<?xml version="1.0" encoding="utf-8"?>
<!-- Generator: Adobe Illustrator 18.1.1, SVG Export Plug-In . SVG Version: 6.00 Build 0)  -->
<!DOCTYPE svg PUBLIC "-//W3C//DTD SVG 1.1//EN" "http://www.w3.org/Graphics/SVG/1.1/DTD/svg11.dtd">
<svg version="1.1" id="Layer_1" xmlns="http://www.w3.org/2000/svg" xmlns:xlink="http://www.w3.org/1999/xlink" x="0px" y="0px"
	 viewBox="227.2 9.7 536.8 474.6" style="enable-background:new 227.2 9.7 536.8 474.6;" xml:space="preserve">
<g>
	<g>
		<path d="M468.6,23.6c1.6,0,3-1.4,3-3c0-1.6-1.4-3-3-3s-3,1.4-3,3C465.5,22.2,466.9,23.6,468.6,23.6z M482.1,23.6c1.6,0,3-1.4,3-3
			c0-1.6-1.4-3-3-3s-3,1.4-3,3C479.1,22.2,480.5,23.6,482.1,23.6z M495.6,23.6c1.6,0,3-1.4,3-3c0-1.6-1.4-3-3-3s-3,1.4-3,3
			C492.6,22.2,493.9,23.6,495.6,23.6z M509.1,23.6c1.6,0,3-1.4,3-3c0-1.6-1.4-3-3-3s-3,1.4-3,3C506.1,22.2,507.4,23.6,509.1,23.6z
			 M522.5,23.6c1.6,0,3-1.4,3-3c0-1.6-1.4-3-3-3c-1.6,0-3,1.4-3,3C519.5,22.2,520.9,23.6,522.5,23.6z M536.1,23.6c1.6,0,3-1.4,3-3
			c0-1.6-1.4-3-3-3s-3,1.4-3,3C533.1,22.2,534.5,23.6,536.1,23.6z M630.6,23.6c1.6,0,3-1.4,3-3c0-1.6-1.4-3-3-3c-1.6,0-3,1.4-3,3
			C627.6,22.2,628.9,23.6,630.6,23.6z M461,31.3c-1.6,0-3,1.4-3,3s1.4,3,3,3s3-1.4,3-3C464,32.6,462.7,31.3,461,31.3z M474.6,31.3
			c-1.6,0-3,1.4-3,3s1.4,3,3,3s3-1.4,3-3C477.6,32.6,476.2,31.3,474.6,31.3z M488.1,31.3c-1.6,0-3,1.4-3,3s1.4,3,3,3s3-1.4,3-3
			C491.1,32.6,489.7,31.3,488.1,31.3z M501.5,31.3c-1.6,0-3,1.4-3,3s1.4,3,3,3s3-1.4,3-3C504.6,32.6,503.2,31.3,501.5,31.3z
			 M515,31.3c-1.6,0-3,1.4-3,3s1.4,3,3,3c1.6,0,3-1.4,3-3C518,32.6,516.8,31.3,515,31.3z M528.6,31.3c-1.6,0-3,1.4-3,3s1.4,3,3,3
			c1.6,0,3-1.4,3-3C531.6,32.6,530.2,31.3,528.6,31.3z M636.5,31.3c-1.6,0-3,1.4-3,3s1.4,3,3,3s3-1.4,3-3
			C639.5,32.6,638.3,31.3,636.5,31.3z M401,51.1c1.6,0,3-1.4,3-3c0-1.6-1.4-3-3-3s-3,1.4-3,3C398,49.7,399.4,51.1,401,51.1z
			 M455,51.1c1.6,0,3-1.4,3-3c0-1.6-1.4-3-3-3s-3,1.4-3,3C452,49.7,453.4,51.1,455,51.1z M468.6,51.1c1.6,0,3-1.4,3-3
			c0-1.6-1.4-3-3-3s-3,1.4-3,3C465.5,49.7,466.9,51.1,468.6,51.1z M482.1,51.1c1.6,0,3-1.4,3-3c0-1.6-1.4-3-3-3s-3,1.4-3,3
			C479.1,49.7,480.5,51.1,482.1,51.1z M495.6,51.1c1.6,0,3-1.4,3-3c0-1.6-1.4-3-3-3s-3,1.4-3,3C492.6,49.7,493.9,51.1,495.6,51.1z
			 M509.1,51.1c1.6,0,3-1.4,3-3c0-1.6-1.4-3-3-3s-3,1.4-3,3C506,49.7,507.4,51.1,509.1,51.1z M522.5,51.1c1.6,0,3-1.4,3-3
			c0-1.6-1.4-3-3-3c-1.6,0-3,1.4-3,3C519.5,49.7,520.9,51.1,522.5,51.1z M630.6,51.1c1.6,0,3-1.4,3-3c0-1.6-1.4-3-3-3
			c-1.6,0-3,1.4-3,3C627.5,49.7,628.9,51.1,630.6,51.1z M644,51.1c1.6,0,3-1.4,3-3c0-1.6-1.4-3-3-3c-1.6,0-3,1.4-3,3
			C641,49.7,642.4,51.1,644,51.1z M393.5,58.7c-1.6,0-3,1.4-3,3c0,1.6,1.4,3,3,3s3-1.4,3-3C396.5,60.1,395.3,58.7,393.5,58.7z
			 M407.1,58.7c-1.6,0-3,1.4-3,3c0,1.6,1.4,3,3,3s3-1.4,3-3C410.1,60.1,408.7,58.7,407.1,58.7z M434,58.7c-1.6,0-3,1.4-3,3
			c0,1.6,1.4,3,3,3s3-1.4,3-3C437,60.1,435.7,58.7,434,58.7z M447.5,58.7c-1.6,0-3,1.4-3,3c0,1.6,1.4,3,3,3s3-1.4,3-3
			C450.5,60.1,449.2,58.7,447.5,58.7z M461,58.7c-1.6,0-3,1.4-3,3c0,1.6,1.4,3,3,3s3-1.4,3-3C464,60.1,462.7,58.7,461,58.7z
			 M474.6,58.7c-1.6,0-3,1.4-3,3c0,1.6,1.4,3,3,3s3-1.4,3-3C477.6,60.1,476.2,58.7,474.6,58.7z M488.1,58.7c-1.6,0-3,1.4-3,3
			c0,1.6,1.4,3,3,3s3-1.4,3-3C491.1,60.1,489.7,58.7,488.1,58.7z M501.5,58.7c-1.6,0-3,1.4-3,3c0,1.6,1.4,3,3,3s3-1.4,3-3
			C504.5,60.1,503.2,58.7,501.5,58.7z M515,58.7c-1.6,0-3,1.4-3,3c0,1.6,1.4,3,3,3c1.6,0,3-1.4,3-3C518,60.1,516.8,58.7,515,58.7z
			 M528.6,58.7c-1.6,0-3,1.4-3,3c0,1.6,1.4,3,3,3c1.6,0,3-1.4,3-3C531.6,60.1,530.2,58.7,528.6,58.7z M636.5,58.7c-1.6,0-3,1.4-3,3
			c0,1.6,1.4,3,3,3s3-1.4,3-3C639.5,60.1,638.3,58.7,636.5,58.7z M650.1,58.7c-1.6,0-3,1.4-3,3c0,1.6,1.4,3,3,3s3-1.4,3-3
			C653.1,60.1,651.7,58.7,650.1,58.7z M663.6,58.7c-1.6,0-3,1.4-3,3c0,1.6,1.4,3,3,3c1.6,0,3-1.4,3-3
			C666.6,60.1,665.2,58.7,663.6,58.7z M374.1,78.5c1.6,0,3-1.4,3-3s-1.4-3-3-3s-3,1.4-3,3S372.4,78.5,374.1,78.5z M387.6,78.5
			c1.6,0,3-1.4,3-3s-1.4-3-3-3s-3,1.4-3,3S385.9,78.5,387.6,78.5z M401,78.5c1.6,0,3-1.4,3-3s-1.4-3-3-3s-3,1.4-3,3
			S399.4,78.5,401,78.5z M414.6,78.5c1.6,0,3-1.4,3-3s-1.4-3-3-3s-3,1.4-3,3S412.9,78.5,414.6,78.5z M428.1,78.5c1.6,0,3-1.4,3-3
			s-1.4-3-3-3s-3,1.4-3,3S426.4,78.5,428.1,78.5z M441.6,78.5c1.6,0,3-1.4,3-3s-1.4-3-3-3s-3,1.4-3,3S439.9,78.5,441.6,78.5z
			 M455,78.5c1.6,0,3-1.4,3-3s-1.4-3-3-3s-3,1.4-3,3S453.4,78.5,455,78.5z M468.6,78.5c1.6,0,3-1.4,3-3s-1.4-3-3-3s-3,1.4-3,3
			S466.9,78.5,468.6,78.5z M482.1,78.5c1.6,0,3-1.4,3-3s-1.4-3-3-3s-3,1.4-3,3S480.5,78.5,482.1,78.5z M495.6,78.5c1.6,0,3-1.4,3-3
			s-1.4-3-3-3s-3,1.4-3,3S493.9,78.5,495.6,78.5z M509.1,78.5c1.6,0,3-1.4,3-3s-1.4-3-3-3s-3,1.4-3,3S507.4,78.5,509.1,78.5z
			 M522.5,78.5c1.6,0,3-1.4,3-3s-1.4-3-3-3c-1.6,0-3,1.4-3,3S520.9,78.5,522.5,78.5z M536.1,78.5c1.6,0,3-1.4,3-3s-1.4-3-3-3
			s-3,1.4-3,3S534.5,78.5,536.1,78.5z M549.6,78.5c1.6,0,3-1.4,3-3s-1.4-3-3-3c-1.6,0-3,1.4-3,3S547.9,78.5,549.6,78.5z M630.6,78.5
			c1.6,0,3-1.4,3-3s-1.4-3-3-3c-1.6,0-3,1.4-3,3S628.9,78.5,630.6,78.5z M644,78.5c1.6,0,3-1.4,3-3s-1.4-3-3-3c-1.6,0-3,1.4-3,3
			S642.4,78.5,644,78.5z M657.6,78.5c1.6,0,3-1.4,3-3s-1.4-3-3-3c-1.6,0-3,1.4-3,3S656,78.5,657.6,78.5z M366.6,86.2
			c-1.6,0-3,1.4-3,3c0,1.6,1.4,3,3,3s3-1.4,3-3C369.6,87.6,368.2,86.2,366.6,86.2z M380,86.2c-1.6,0-3,1.4-3,3c0,1.6,1.4,3,3,3
			c1.6,0,3-1.4,3-3C383,87.6,381.7,86.2,380,86.2z M393.5,86.2c-1.6,0-3,1.4-3,3c0,1.6,1.4,3,3,3s3-1.4,3-3
			C396.5,87.6,395.3,86.2,393.5,86.2z M407.1,86.2c-1.6,0-3,1.4-3,3c0,1.6,1.4,3,3,3s3-1.4,3-3C410.1,87.6,408.7,86.2,407.1,86.2z
			 M420.6,86.2c-1.6,0-3,1.4-3,3c0,1.6,1.4,3,3,3s3-1.4,3-3C423.6,87.6,422.2,86.2,420.6,86.2z M434,86.2c-1.6,0-3,1.4-3,3
			c0,1.6,1.4,3,3,3s3-1.4,3-3C437,87.6,435.7,86.2,434,86.2z M447.5,86.2c-1.6,0-3,1.4-3,3c0,1.6,1.4,3,3,3s3-1.4,3-3
			C450.5,87.6,449.2,86.2,447.5,86.2z M461,86.2c-1.6,0-3,1.4-3,3c0,1.6,1.4,3,3,3s3-1.4,3-3C464,87.6,462.7,86.2,461,86.2z
			 M474.6,86.2c-1.6,0-3,1.4-3,3c0,1.6,1.4,3,3,3s3-1.4,3-3C477.6,87.6,476.2,86.2,474.6,86.2z M488.1,86.2c-1.6,0-3,1.4-3,3
			c0,1.6,1.4,3,3,3s3-1.4,3-3C491.1,87.6,489.7,86.2,488.1,86.2z M501.5,86.2c-1.6,0-3,1.4-3,3c0,1.6,1.4,3,3,3s3-1.4,3-3
			C504.5,87.6,503.2,86.2,501.5,86.2z M515,86.2c-1.6,0-3,1.4-3,3c0,1.6,1.4,3,3,3c1.6,0,3-1.4,3-3C518,87.6,516.8,86.2,515,86.2z
			 M528.6,86.2c-1.6,0-3,1.4-3,3c0,1.6,1.4,3,3,3c1.6,0,3-1.4,3-3C531.6,87.6,530.2,86.2,528.6,86.2z M542.1,86.2c-1.6,0-3,1.4-3,3
			c0,1.6,1.4,3,3,3c1.6,0,3-1.4,3-3C545.1,87.6,543.7,86.2,542.1,86.2z M555.5,86.2c-1.6,0-3,1.4-3,3c0,1.6,1.4,3,3,3s3-1.4,3-3
			C558.5,87.6,557.2,86.2,555.5,86.2z M569,86.2c-1.6,0-3,1.4-3,3c0,1.6,1.4,3,3,3c1.6,0,3-1.4,3-3C572,87.6,570.8,86.2,569,86.2z
			 M623,86.2c-1.6,0-3,1.4-3,3c0,1.6,1.4,3,3,3c1.6,0,3-1.4,3-3C626,87.6,624.7,86.2,623,86.2z M636.5,86.2c-1.6,0-3,1.4-3,3
			c0,1.6,1.4,3,3,3s3-1.4,3-3C639.5,87.6,638.3,86.2,636.5,86.2z M650.1,86.2c-1.6,0-3,1.4-3,3c0,1.6,1.4,3,3,3s3-1.4,3-3
			C653.1,87.6,651.7,86.2,650.1,86.2z M663.6,86.2c-1.6,0-3,1.4-3,3c0,1.6,1.4,3,3,3c1.6,0,3-1.4,3-3
			C666.6,87.6,665.2,86.2,663.6,86.2z M347.1,106c1.6,0,3-1.4,3-3s-1.4-3-3-3s-3,1.4-3,3S345.4,106,347.1,106z M360.6,106
			c1.6,0,3-1.4,3-3s-1.4-3-3-3s-3,1.4-3,3S359,106,360.6,106z M374.1,106c1.6,0,3-1.4,3-3s-1.4-3-3-3s-3,1.4-3,3
			C371.1,104.6,372.4,106,374.1,106z M387.6,106c1.6,0,3-1.4,3-3s-1.4-3-3-3s-3,1.4-3,3C384.5,104.6,385.9,106,387.6,106z M401,106
			c1.6,0,3-1.4,3-3s-1.4-3-3-3s-3,1.4-3,3S399.4,106,401,106z M414.6,106c1.6,0,3-1.4,3-3s-1.4-3-3-3s-3,1.4-3,3
			C411.6,104.6,412.9,106,414.6,106z M428.1,106c1.6,0,3-1.4,3-3s-1.4-3-3-3s-3,1.4-3,3C425.1,104.6,426.4,106,428.1,106z
			 M441.6,106c1.6,0,3-1.4,3-3s-1.4-3-3-3s-3,1.4-3,3C438.5,104.6,439.9,106,441.6,106z M455,106c1.6,0,3-1.4,3-3s-1.4-3-3-3
			s-3,1.4-3,3C452,104.6,453.4,106,455,106z M468.6,106c1.6,0,3-1.4,3-3s-1.4-3-3-3s-3,1.4-3,3C465.5,104.6,466.9,106,468.6,106z
			 M482.1,106c1.6,0,3-1.4,3-3s-1.4-3-3-3s-3,1.4-3,3S480.5,106,482.1,106z M495.6,106c1.6,0,3-1.4,3-3s-1.4-3-3-3s-3,1.4-3,3
			S493.9,106,495.6,106z M509.1,106c1.6,0,3-1.4,3-3s-1.4-3-3-3s-3,1.4-3,3C506,104.6,507.4,106,509.1,106z M522.5,106
			c1.6,0,3-1.4,3-3s-1.4-3-3-3c-1.6,0-3,1.4-3,3S520.9,106,522.5,106z M536.1,106c1.6,0,3-1.4,3-3s-1.4-3-3-3s-3,1.4-3,3
			C533.1,104.6,534.5,106,536.1,106z M549.6,106c1.6,0,3-1.4,3-3s-1.4-3-3-3c-1.6,0-3,1.4-3,3S547.9,106,549.6,106z M563.1,106
			c1.6,0,3-1.4,3-3s-1.4-3-3-3s-3,1.4-3,3C560,104.6,561.4,106,563.1,106z M576.5,106c1.6,0,3-1.4,3-3s-1.4-3-3-3c-1.6,0-3,1.4-3,3
			S574.9,106,576.5,106z M590.1,106c1.6,0,3-1.4,3-3s-1.4-3-3-3s-3,1.4-3,3S588.4,106,590.1,106z M603.6,106c1.6,0,3-1.4,3-3
			s-1.4-3-3-3c-1.6,0-3,1.4-3,3S602,106,603.6,106z M617.1,106c1.6,0,3-1.4,3-3s-1.4-3-3-3c-1.6,0-3,1.4-3,3S615.4,106,617.1,106z
			 M630.6,106c1.6,0,3-1.4,3-3s-1.4-3-3-3c-1.6,0-3,1.4-3,3C627.5,104.6,628.9,106,630.6,106z M644,106c1.6,0,3-1.4,3-3s-1.4-3-3-3
			c-1.6,0-3,1.4-3,3S642.4,106,644,106z M657.6,106c1.6,0,3-1.4,3-3s-1.4-3-3-3c-1.6,0-3,1.4-3,3S656,106,657.6,106z M671.1,106
			c1.6,0,3-1.4,3-3s-1.4-3-3-3s-3,1.4-3,3S669.4,106,671.1,106z M339.5,113.6c-1.6,0-3,1.4-3,3c0,1.6,1.4,3,3,3s3-1.4,3-3
			C342.5,115,341.2,113.6,339.5,113.6z M353.1,113.6c-1.6,0-3,1.4-3,3c0,1.6,1.4,3,3,3s3-1.4,3-3C356.1,115,354.7,113.6,353.1,113.6
			z M366.6,113.6c-1.6,0-3,1.4-3,3c0,1.6,1.4,3,3,3s3-1.4,3-3C369.6,115,368.2,113.6,366.6,113.6z M380,113.6c-1.6,0-3,1.4-3,3
			c0,1.6,1.4,3,3,3c1.6,0,3-1.4,3-3C383,115,381.7,113.6,380,113.6z M393.5,113.6c-1.6,0-3,1.4-3,3c0,1.6,1.4,3,3,3s3-1.4,3-3
			C396.5,115,395.3,113.6,393.5,113.6z M407.1,113.6c-1.6,0-3,1.4-3,3c0,1.6,1.4,3,3,3s3-1.4,3-3C410.1,115,408.7,113.6,407.1,113.6
			z M420.6,113.6c-1.6,0-3,1.4-3,3c0,1.6,1.4,3,3,3s3-1.4,3-3C423.6,115,422.2,113.6,420.6,113.6z M434,113.6c-1.6,0-3,1.4-3,3
			c0,1.6,1.4,3,3,3s3-1.4,3-3C437,115,435.7,113.6,434,113.6z M447.5,113.6c-1.6,0-3,1.4-3,3c0,1.6,1.4,3,3,3s3-1.4,3-3
			C450.5,115,449.2,113.6,447.5,113.6z M461,113.6c-1.6,0-3,1.4-3,3c0,1.6,1.4,3,3,3s3-1.4,3-3C464,115,462.7,113.6,461,113.6z
			 M474.6,113.6c-1.6,0-3,1.4-3,3c0,1.6,1.4,3,3,3s3-1.4,3-3C477.6,115,476.2,113.6,474.6,113.6z M488.1,113.6c-1.6,0-3,1.4-3,3
			c0,1.6,1.4,3,3,3s3-1.4,3-3C491.1,115,489.7,113.6,488.1,113.6z M501.5,113.6c-1.6,0-3,1.4-3,3c0,1.6,1.4,3,3,3s3-1.4,3-3
			C504.5,115,503.2,113.6,501.5,113.6z M515,113.6c-1.6,0-3,1.4-3,3c0,1.6,1.4,3,3,3c1.6,0,3-1.4,3-3C518,115,516.8,113.6,515,113.6
			z M528.6,113.6c-1.6,0-3,1.4-3,3c0,1.6,1.4,3,3,3c1.6,0,3-1.4,3-3C531.6,115,530.2,113.6,528.6,113.6z M542.1,113.6
			c-1.6,0-3,1.4-3,3c0,1.6,1.4,3,3,3c1.6,0,3-1.4,3-3C545.1,115,543.7,113.6,542.1,113.6z M555.5,113.6c-1.6,0-3,1.4-3,3
			c0,1.6,1.4,3,3,3s3-1.4,3-3C558.5,115,557.2,113.6,555.5,113.6z M569,113.6c-1.6,0-3,1.4-3,3c0,1.6,1.4,3,3,3c1.6,0,3-1.4,3-3
			C572,115,570.8,113.6,569,113.6z M582.5,113.6c-1.6,0-3,1.4-3,3c0,1.6,1.4,3,3,3c1.6,0,3-1.4,3-3
			C585.5,115,584.2,113.6,582.5,113.6z M596.1,113.6c-1.6,0-3,1.4-3,3c0,1.6,1.4,3,3,3c1.6,0,3-1.4,3-3
			C599.1,115,597.7,113.6,596.1,113.6z M609.6,113.6c-1.6,0-3,1.4-3,3c0,1.6,1.4,3,3,3c1.6,0,3-1.4,3-3
			C612.6,115,611.2,113.6,609.6,113.6z M623,113.6c-1.6,0-3,1.4-3,3c0,1.6,1.4,3,3,3c1.6,0,3-1.4,3-3C626,115,624.7,113.6,623,113.6
			z M636.5,113.6c-1.6,0-3,1.4-3,3c0,1.6,1.4,3,3,3s3-1.4,3-3C639.5,115,638.3,113.6,636.5,113.6z M650.1,113.6c-1.6,0-3,1.4-3,3
			c0,1.6,1.4,3,3,3s3-1.4,3-3C653.1,115,651.7,113.6,650.1,113.6z M663.6,113.6c-1.6,0-3,1.4-3,3c0,1.6,1.4,3,3,3c1.6,0,3-1.4,3-3
			C666.6,115,665.2,113.6,663.6,113.6z M333.5,133.4c1.6,0,3-1.4,3-3s-1.4-3-3-3s-3,1.4-3,3S331.9,133.4,333.5,133.4z M347.1,133.4
			c1.6,0,3-1.4,3-3s-1.4-3-3-3s-3,1.4-3,3S345.4,133.4,347.1,133.4z M360.6,133.4c1.6,0,3-1.4,3-3s-1.4-3-3-3s-3,1.4-3,3
			S359,133.4,360.6,133.4z M374.1,133.4c1.6,0,3-1.4,3-3s-1.4-3-3-3s-3,1.4-3,3S372.4,133.4,374.1,133.4z M387.6,133.4
			c1.6,0,3-1.4,3-3s-1.4-3-3-3s-3,1.4-3,3S385.9,133.4,387.6,133.4z M401,133.4c1.6,0,3-1.4,3-3s-1.4-3-3-3s-3,1.4-3,3
			S399.4,133.4,401,133.4z M414.6,133.4c1.6,0,3-1.4,3-3s-1.4-3-3-3s-3,1.4-3,3S412.9,133.4,414.6,133.4z M428.1,133.4
			c1.6,0,3-1.4,3-3s-1.4-3-3-3s-3,1.4-3,3S426.4,133.4,428.1,133.4z M441.6,133.4c1.6,0,3-1.4,3-3s-1.4-3-3-3s-3,1.4-3,3
			S439.9,133.4,441.6,133.4z M455,133.4c1.6,0,3-1.4,3-3s-1.4-3-3-3s-3,1.4-3,3S453.4,133.4,455,133.4z M468.6,133.4
			c1.6,0,3-1.4,3-3s-1.4-3-3-3s-3,1.4-3,3S466.9,133.4,468.6,133.4z M482.1,133.4c1.6,0,3-1.4,3-3s-1.4-3-3-3s-3,1.4-3,3
			S480.5,133.4,482.1,133.4z M495.6,133.4c1.6,0,3-1.4,3-3s-1.4-3-3-3s-3,1.4-3,3S493.9,133.4,495.6,133.4z M509.1,133.4
			c1.6,0,3-1.4,3-3s-1.4-3-3-3s-3,1.4-3,3S507.4,133.4,509.1,133.4z M522.5,133.4c1.6,0,3-1.4,3-3s-1.4-3-3-3c-1.6,0-3,1.4-3,3
			S520.9,133.4,522.5,133.4z M536.1,133.4c1.6,0,3-1.4,3-3s-1.4-3-3-3s-3,1.4-3,3S534.5,133.4,536.1,133.4z M549.6,133.4
			c1.6,0,3-1.4,3-3s-1.4-3-3-3c-1.6,0-3,1.4-3,3S547.9,133.4,549.6,133.4z M563.1,133.4c1.6,0,3-1.4,3-3s-1.4-3-3-3s-3,1.4-3,3
			S561.4,133.4,563.1,133.4z M576.5,133.4c1.6,0,3-1.4,3-3s-1.4-3-3-3c-1.6,0-3,1.4-3,3S574.9,133.4,576.5,133.4z M590.1,133.4
			c1.6,0,3-1.4,3-3s-1.4-3-3-3s-3,1.4-3,3S588.4,133.4,590.1,133.4z M603.6,133.4c1.6,0,3-1.4,3-3s-1.4-3-3-3c-1.6,0-3,1.4-3,3
			S602,133.4,603.6,133.4z M617.1,133.4c1.6,0,3-1.4,3-3s-1.4-3-3-3c-1.6,0-3,1.4-3,3S615.4,133.4,617.1,133.4z M630.6,133.4
			c1.6,0,3-1.4,3-3s-1.4-3-3-3c-1.6,0-3,1.4-3,3S628.9,133.4,630.6,133.4z M644,133.4c1.6,0,3-1.4,3-3s-1.4-3-3-3c-1.6,0-3,1.4-3,3
			S642.4,133.4,644,133.4z M657.6,133.4c1.6,0,3-1.4,3-3s-1.4-3-3-3c-1.6,0-3,1.4-3,3S656,133.4,657.6,133.4z M671.1,133.4
			c1.6,0,3-1.4,3-3s-1.4-3-3-3s-3,1.4-3,3S669.4,133.4,671.1,133.4z M312.5,141c-1.6,0-3,1.4-3,3s1.4,3,3,3s3-1.4,3-3
			S314.2,141,312.5,141z M326,141c-1.6,0-3,1.4-3,3s1.4,3,3,3s3-1.4,3-3S327.7,141,326,141z M339.5,141c-1.6,0-3,1.4-3,3s1.4,3,3,3
			s3-1.4,3-3S341.2,141,339.5,141z M353.1,141c-1.6,0-3,1.4-3,3s1.4,3,3,3s3-1.4,3-3S354.7,141,353.1,141z M366.6,141
			c-1.6,0-3,1.4-3,3s1.4,3,3,3s3-1.4,3-3S368.2,141,366.6,141z M380,141c-1.6,0-3,1.4-3,3s1.4,3,3,3c1.6,0,3-1.4,3-3
			S381.7,141,380,141z M393.5,141c-1.6,0-3,1.4-3,3s1.4,3,3,3s3-1.4,3-3S395.3,141,393.5,141z M407.1,141c-1.6,0-3,1.4-3,3
			s1.4,3,3,3s3-1.4,3-3S408.7,141,407.1,141z M420.6,141c-1.6,0-3,1.4-3,3s1.4,3,3,3s3-1.4,3-3S422.2,141,420.6,141z M434,141
			c-1.6,0-3,1.4-3,3s1.4,3,3,3s3-1.4,3-3S435.7,141,434,141z M447.5,141c-1.6,0-3,1.4-3,3s1.4,3,3,3s3-1.4,3-3S449.2,141,447.5,141z
			 M461,141c-1.6,0-3,1.4-3,3s1.4,3,3,3s3-1.4,3-3S462.7,141,461,141z M474.6,141c-1.6,0-3,1.4-3,3s1.4,3,3,3s3-1.4,3-3
			S476.2,141,474.6,141z M488.1,141c-1.6,0-3,1.4-3,3s1.4,3,3,3s3-1.4,3-3S489.7,141,488.1,141z M501.5,141c-1.6,0-3,1.4-3,3
			s1.4,3,3,3s3-1.4,3-3S503.2,141,501.5,141z M515,141c-1.6,0-3,1.4-3,3s1.4,3,3,3c1.6,0,3-1.4,3-3S516.8,141,515,141z M528.6,141
			c-1.6,0-3,1.4-3,3s1.4,3,3,3c1.6,0,3-1.4,3-3S530.2,141,528.6,141z M542.1,141c-1.6,0-3,1.4-3,3s1.4,3,3,3c1.6,0,3-1.4,3-3
			S543.7,141,542.1,141z M555.5,141c-1.6,0-3,1.4-3,3s1.4,3,3,3s3-1.4,3-3S557.2,141,555.5,141z M569,141c-1.6,0-3,1.4-3,3
			s1.4,3,3,3c1.6,0,3-1.4,3-3S570.8,141,569,141z M582.5,141c-1.6,0-3,1.4-3,3s1.4,3,3,3c1.6,0,3-1.4,3-3S584.2,141,582.5,141z
			 M596.1,141c-1.6,0-3,1.4-3,3s1.4,3,3,3c1.6,0,3-1.4,3-3S597.7,141,596.1,141z M609.6,141c-1.6,0-3,1.4-3,3s1.4,3,3,3
			c1.6,0,3-1.4,3-3S611.2,141,609.6,141z M623,141c-1.6,0-3,1.4-3,3s1.4,3,3,3c1.6,0,3-1.4,3-3S624.7,141,623,141z M636.5,141
			c-1.6,0-3,1.4-3,3s1.4,3,3,3s3-1.4,3-3S638.3,141,636.5,141z M650.1,141c-1.6,0-3,1.4-3,3s1.4,3,3,3s3-1.4,3-3
			S651.7,141,650.1,141z M663.6,141c-1.6,0-3,1.4-3,3s1.4,3,3,3c1.6,0,3-1.4,3-3S665.2,141,663.6,141z M677,141c-1.6,0-3,1.4-3,3
			s1.4,3,3,3c1.6,0,3-1.4,3-3S678.7,141,677,141z M690.5,141c-1.6,0-3,1.4-3,3s1.4,3,3,3c1.6,0,3-1.4,3-3S692.3,141,690.5,141z
			 M279.5,160.8c1.6,0,3-1.4,3-3c0-1.6-1.4-3-3-3s-3,1.4-3,3C276.5,159.4,277.9,160.8,279.5,160.8z M293.1,160.8c1.6,0,3-1.4,3-3
			c0-1.6-1.4-3-3-3s-3,1.4-3,3C290.1,159.4,291.4,160.8,293.1,160.8z M306.6,160.8c1.6,0,3-1.4,3-3c0-1.6-1.4-3-3-3
			c-1.6,0-3,1.4-3,3C303.6,159.4,304.9,160.8,306.6,160.8z M320.1,160.8c1.6,0,3-1.4,3-3c0-1.6-1.4-3-3-3s-3,1.4-3,3
			C317.1,159.4,318.4,160.8,320.1,160.8z M333.5,160.8c1.6,0,3-1.4,3-3c0-1.6-1.4-3-3-3s-3,1.4-3,3
			C330.5,159.4,331.9,160.8,333.5,160.8z M347.1,160.8c1.6,0,3-1.4,3-3c0-1.6-1.4-3-3-3s-3,1.4-3,3
			C344,159.4,345.4,160.8,347.1,160.8z M360.6,160.8c1.6,0,3-1.4,3-3c0-1.6-1.4-3-3-3s-3,1.4-3,3C357.6,159.4,359,160.8,360.6,160.8
			z M374.1,160.8c1.6,0,3-1.4,3-3c0-1.6-1.4-3-3-3s-3,1.4-3,3C371.1,159.4,372.4,160.8,374.1,160.8z M387.6,160.8c1.6,0,3-1.4,3-3
			c0-1.6-1.4-3-3-3s-3,1.4-3,3C384.6,159.4,385.9,160.8,387.6,160.8z M401,160.8c1.6,0,3-1.4,3-3c0-1.6-1.4-3-3-3s-3,1.4-3,3
			C398,159.4,399.4,160.8,401,160.8z M414.6,160.8c1.6,0,3-1.4,3-3c0-1.6-1.4-3-3-3s-3,1.4-3,3C411.6,159.4,412.9,160.8,414.6,160.8
			z M428.1,160.8c1.6,0,3-1.4,3-3c0-1.6-1.4-3-3-3s-3,1.4-3,3C425.1,159.4,426.4,160.8,428.1,160.8z M441.6,160.8c1.6,0,3-1.4,3-3
			c0-1.6-1.4-3-3-3s-3,1.4-3,3C438.6,159.4,439.9,160.8,441.6,160.8z M455,160.8c1.6,0,3-1.4,3-3c0-1.6-1.4-3-3-3s-3,1.4-3,3
			C452,159.4,453.4,160.8,455,160.8z M468.6,160.8c1.6,0,3-1.4,3-3c0-1.6-1.4-3-3-3s-3,1.4-3,3C465.5,159.4,466.9,160.8,468.6,160.8
			z M482.1,160.8c1.6,0,3-1.4,3-3c0-1.6-1.4-3-3-3s-3,1.4-3,3C479.1,159.4,480.5,160.8,482.1,160.8z M495.6,160.8c1.6,0,3-1.4,3-3
			c0-1.6-1.4-3-3-3s-3,1.4-3,3C492.6,159.4,493.9,160.8,495.6,160.8z M509.1,160.8c1.6,0,3-1.4,3-3c0-1.6-1.4-3-3-3s-3,1.4-3,3
			C506.1,159.4,507.4,160.8,509.1,160.8z M522.5,160.8c1.6,0,3-1.4,3-3c0-1.6-1.4-3-3-3c-1.6,0-3,1.4-3,3
			C519.5,159.4,520.9,160.8,522.5,160.8z M536.1,160.8c1.6,0,3-1.4,3-3c0-1.6-1.4-3-3-3s-3,1.4-3,3
			C533.1,159.4,534.5,160.8,536.1,160.8z M549.6,160.8c1.6,0,3-1.4,3-3c0-1.6-1.4-3-3-3c-1.6,0-3,1.4-3,3
			C546.6,159.4,547.9,160.8,549.6,160.8z M563.1,160.8c1.6,0,3-1.4,3-3c0-1.6-1.4-3-3-3s-3,1.4-3,3
			C560.1,159.4,561.4,160.8,563.1,160.8z M576.5,160.8c1.6,0,3-1.4,3-3c0-1.6-1.4-3-3-3c-1.6,0-3,1.4-3,3
			C573.5,159.4,574.9,160.8,576.5,160.8z M590.1,160.8c1.6,0,3-1.4,3-3c0-1.6-1.4-3-3-3s-3,1.4-3,3
			C587.1,159.4,588.4,160.8,590.1,160.8z M603.6,160.8c1.6,0,3-1.4,3-3c0-1.6-1.4-3-3-3c-1.6,0-3,1.4-3,3
			C600.6,159.4,602,160.8,603.6,160.8z M617.1,160.8c1.6,0,3-1.4,3-3c0-1.6-1.4-3-3-3c-1.6,0-3,1.4-3,3
			C614.1,159.4,615.4,160.8,617.1,160.8z M630.6,160.8c1.6,0,3-1.4,3-3c0-1.6-1.4-3-3-3c-1.6,0-3,1.4-3,3
			C627.6,159.4,628.9,160.8,630.6,160.8z M644,160.8c1.6,0,3-1.4,3-3c0-1.6-1.4-3-3-3c-1.6,0-3,1.4-3,3
			C641,159.4,642.4,160.8,644,160.8z M657.6,160.8c1.6,0,3-1.4,3-3c0-1.6-1.4-3-3-3c-1.6,0-3,1.4-3,3
			C654.6,159.4,656,160.8,657.6,160.8z M671.1,160.8c1.6,0,3-1.4,3-3c0-1.6-1.4-3-3-3s-3,1.4-3,3
			C668.1,159.4,669.4,160.8,671.1,160.8z M684.6,160.8c1.6,0,3-1.4,3-3c0-1.6-1.4-3-3-3s-3,1.4-3,3
			C681.6,159.4,682.9,160.8,684.6,160.8z M698,160.8c1.6,0,3-1.4,3-3c0-1.6-1.4-3-3-3s-3,1.4-3,3C695,159.4,696.4,160.8,698,160.8z
			 M258.5,168.6c-1.6,0-3,1.4-3,3c0,1.6,1.4,3,3,3s3-1.4,3-3C261.6,169.9,260.2,168.6,258.5,168.6z M272,168.6c-1.6,0-3,1.4-3,3
			c0,1.6,1.4,3,3,3s3-1.4,3-3C275,169.9,273.8,168.6,272,168.6z M285.5,168.6c-1.6,0-3,1.4-3,3c0,1.6,1.4,3,3,3c1.6,0,3-1.4,3-3
			C288.6,169.9,287.2,168.6,285.5,168.6z M299.1,168.6c-1.6,0-3,1.4-3,3c0,1.6,1.4,3,3,3s3-1.4,3-3
			C302.1,169.9,300.7,168.6,299.1,168.6z M312.5,168.6c-1.6,0-3,1.4-3,3c0,1.6,1.4,3,3,3s3-1.4,3-3
			C315.6,169.9,314.2,168.6,312.5,168.6z M326,168.6c-1.6,0-3,1.4-3,3c0,1.6,1.4,3,3,3s3-1.4,3-3C329,169.9,327.7,168.6,326,168.6z
			 M339.5,168.6c-1.6,0-3,1.4-3,3c0,1.6,1.4,3,3,3s3-1.4,3-3C342.5,169.9,341.2,168.6,339.5,168.6z M353.1,168.6c-1.6,0-3,1.4-3,3
			c0,1.6,1.4,3,3,3s3-1.4,3-3C356.1,169.9,354.7,168.6,353.1,168.6z M366.6,168.6c-1.6,0-3,1.4-3,3c0,1.6,1.4,3,3,3s3-1.4,3-3
			C369.6,169.9,368.2,168.6,366.6,168.6z M380,168.6c-1.6,0-3,1.4-3,3c0,1.6,1.4,3,3,3c1.6,0,3-1.4,3-3
			C383.1,169.9,381.7,168.6,380,168.6z M393.5,168.6c-1.6,0-3,1.4-3,3c0,1.6,1.4,3,3,3s3-1.4,3-3
			C396.5,169.9,395.3,168.6,393.5,168.6z M407.1,168.6c-1.6,0-3,1.4-3,3c0,1.6,1.4,3,3,3s3-1.4,3-3
			C410.1,169.9,408.7,168.6,407.1,168.6z M420.6,168.6c-1.6,0-3,1.4-3,3c0,1.6,1.4,3,3,3s3-1.4,3-3
			C423.6,169.9,422.2,168.6,420.6,168.6z M434,168.6c-1.6,0-3,1.4-3,3c0,1.6,1.4,3,3,3s3-1.4,3-3C437.1,169.9,435.7,168.6,434,168.6
			z M447.5,168.6c-1.6,0-3,1.4-3,3c0,1.6,1.4,3,3,3s3-1.4,3-3C450.5,169.9,449.2,168.6,447.5,168.6z M461,168.6c-1.6,0-3,1.4-3,3
			c0,1.6,1.4,3,3,3s3-1.4,3-3C464,169.9,462.7,168.6,461,168.6z M474.6,168.6c-1.6,0-3,1.4-3,3c0,1.6,1.4,3,3,3s3-1.4,3-3
			C477.6,169.9,476.2,168.6,474.6,168.6z M488.1,168.6c-1.6,0-3,1.4-3,3c0,1.6,1.4,3,3,3s3-1.4,3-3
			C491.1,169.9,489.7,168.6,488.1,168.6z M501.5,168.6c-1.6,0-3,1.4-3,3c0,1.6,1.4,3,3,3s3-1.4,3-3
			C504.6,169.9,503.2,168.6,501.5,168.6z M515,168.6c-1.6,0-3,1.4-3,3c0,1.6,1.4,3,3,3c1.6,0,3-1.4,3-3
			C518,169.9,516.8,168.6,515,168.6z M528.6,168.6c-1.6,0-3,1.4-3,3c0,1.6,1.4,3,3,3c1.6,0,3-1.4,3-3
			C531.6,169.9,530.2,168.6,528.6,168.6z M542.1,168.6c-1.6,0-3,1.4-3,3c0,1.6,1.4,3,3,3c1.6,0,3-1.4,3-3
			C545.1,169.9,543.7,168.6,542.1,168.6z M555.5,168.6c-1.6,0-3,1.4-3,3c0,1.6,1.4,3,3,3s3-1.4,3-3
			C558.6,169.9,557.2,168.6,555.5,168.6z M569,168.6c-1.6,0-3,1.4-3,3c0,1.6,1.4,3,3,3c1.6,0,3-1.4,3-3
			C572,169.9,570.8,168.6,569,168.6z M582.5,168.6c-1.6,0-3,1.4-3,3c0,1.6,1.4,3,3,3c1.6,0,3-1.4,3-3
			C585.5,169.9,584.2,168.6,582.5,168.6z M596.1,168.6c-1.6,0-3,1.4-3,3c0,1.6,1.4,3,3,3c1.6,0,3-1.4,3-3
			C599.1,169.9,597.7,168.6,596.1,168.6z M609.6,168.6c-1.6,0-3,1.4-3,3c0,1.6,1.4,3,3,3c1.6,0,3-1.4,3-3
			C612.6,169.9,611.2,168.6,609.6,168.6z M623,168.6c-1.6,0-3,1.4-3,3c0,1.6,1.4,3,3,3c1.6,0,3-1.4,3-3
			C626.1,169.9,624.7,168.6,623,168.6z M636.5,168.6c-1.6,0-3,1.4-3,3c0,1.6,1.4,3,3,3s3-1.4,3-3
			C639.5,169.9,638.3,168.6,636.5,168.6z M650.1,168.6c-1.6,0-3,1.4-3,3c0,1.6,1.4,3,3,3s3-1.4,3-3
			C653.1,169.9,651.7,168.6,650.1,168.6z M663.6,168.6c-1.6,0-3,1.4-3,3c0,1.6,1.4,3,3,3c1.6,0,3-1.4,3-3
			C666.6,169.9,665.2,168.6,663.6,168.6z M677,168.6c-1.6,0-3,1.4-3,3c0,1.6,1.4,3,3,3c1.6,0,3-1.4,3-3
			C680.1,169.9,678.7,168.6,677,168.6z M690.5,168.6c-1.6,0-3,1.4-3,3c0,1.6,1.4,3,3,3c1.6,0,3-1.4,3-3
			C693.5,169.9,692.3,168.6,690.5,168.6z M704,168.6c-1.6,0-3,1.4-3,3c0,1.6,1.4,3,3,3c1.6,0,3-1.4,3-3
			C707.1,169.9,705.7,168.6,704,168.6z M252.6,188.3c1.6,0,3-1.4,3-3s-1.4-3-3-3c-1.6,0-3,1.4-3,3
			C249.6,186.9,250.9,188.3,252.6,188.3z M266.1,188.3c1.6,0,3-1.4,3-3s-1.4-3-3-3c-1.6,0-3,1.4-3,3
			C263,186.9,264.4,188.3,266.1,188.3z M279.5,188.3c1.6,0,3-1.4,3-3s-1.4-3-3-3s-3,1.4-3,3C276.5,186.9,277.9,188.3,279.5,188.3z
			 M293.1,188.3c1.6,0,3-1.4,3-3s-1.4-3-3-3s-3,1.4-3,3C290.1,186.9,291.4,188.3,293.1,188.3z M306.6,188.3c1.6,0,3-1.4,3-3
			s-1.4-3-3-3c-1.6,0-3,1.4-3,3C303.6,186.9,304.9,188.3,306.6,188.3z M320.1,188.3c1.6,0,3-1.4,3-3s-1.4-3-3-3s-3,1.4-3,3
			C317,186.9,318.4,188.3,320.1,188.3z M333.5,188.3c1.6,0,3-1.4,3-3s-1.4-3-3-3s-3,1.4-3,3C330.5,186.9,331.9,188.3,333.5,188.3z
			 M347.1,188.3c1.6,0,3-1.4,3-3s-1.4-3-3-3s-3,1.4-3,3C344,186.9,345.4,188.3,347.1,188.3z M360.6,188.3c1.6,0,3-1.4,3-3
			s-1.4-3-3-3s-3,1.4-3,3C357.6,186.9,359,188.3,360.6,188.3z M374.1,188.3c1.6,0,3-1.4,3-3s-1.4-3-3-3s-3,1.4-3,3
			C371.1,186.9,372.4,188.3,374.1,188.3z M387.6,188.3c1.6,0,3-1.4,3-3s-1.4-3-3-3s-3,1.4-3,3C384.5,186.9,385.9,188.3,387.6,188.3z
			 M401,188.3c1.6,0,3-1.4,3-3s-1.4-3-3-3s-3,1.4-3,3C398,186.9,399.4,188.3,401,188.3z M414.6,188.3c1.6,0,3-1.4,3-3s-1.4-3-3-3
			s-3,1.4-3,3C411.6,186.9,412.9,188.3,414.6,188.3z M428.1,188.3c1.6,0,3-1.4,3-3s-1.4-3-3-3s-3,1.4-3,3
			C425.1,186.9,426.4,188.3,428.1,188.3z M441.6,188.3c1.6,0,3-1.4,3-3s-1.4-3-3-3s-3,1.4-3,3C438.5,186.9,439.9,188.3,441.6,188.3z
			 M455,188.3c1.6,0,3-1.4,3-3s-1.4-3-3-3s-3,1.4-3,3C452,186.9,453.4,188.3,455,188.3z M468.6,188.3c1.6,0,3-1.4,3-3s-1.4-3-3-3
			s-3,1.4-3,3C465.5,186.9,466.9,188.3,468.6,188.3z M482.1,188.3c1.6,0,3-1.4,3-3s-1.4-3-3-3s-3,1.4-3,3
			C479.1,186.9,480.5,188.3,482.1,188.3z M495.6,188.3c1.6,0,3-1.4,3-3s-1.4-3-3-3s-3,1.4-3,3C492.6,186.9,493.9,188.3,495.6,188.3z
			 M509.1,188.3c1.6,0,3-1.4,3-3s-1.4-3-3-3s-3,1.4-3,3C506,186.9,507.4,188.3,509.1,188.3z M522.5,188.3c1.6,0,3-1.4,3-3
			s-1.4-3-3-3c-1.6,0-3,1.4-3,3C519.5,186.9,520.9,188.3,522.5,188.3z M536.1,188.3c1.6,0,3-1.4,3-3s-1.4-3-3-3s-3,1.4-3,3
			C533.1,186.9,534.5,188.3,536.1,188.3z M549.6,188.3c1.6,0,3-1.4,3-3s-1.4-3-3-3c-1.6,0-3,1.4-3,3
			C546.6,186.9,547.9,188.3,549.6,188.3z M563.1,188.3c1.6,0,3-1.4,3-3s-1.4-3-3-3s-3,1.4-3,3C560,186.9,561.4,188.3,563.1,188.3z
			 M576.5,188.3c1.6,0,3-1.4,3-3s-1.4-3-3-3c-1.6,0-3,1.4-3,3C573.5,186.9,574.9,188.3,576.5,188.3z M590.1,188.3c1.6,0,3-1.4,3-3
			s-1.4-3-3-3s-3,1.4-3,3C587.1,186.9,588.4,188.3,590.1,188.3z M603.6,188.3c1.6,0,3-1.4,3-3s-1.4-3-3-3c-1.6,0-3,1.4-3,3
			C600.6,186.9,602,188.3,603.6,188.3z M617.1,188.3c1.6,0,3-1.4,3-3s-1.4-3-3-3c-1.6,0-3,1.4-3,3
			C614.1,186.9,615.4,188.3,617.1,188.3z M630.6,188.3c1.6,0,3-1.4,3-3s-1.4-3-3-3c-1.6,0-3,1.4-3,3
			C627.5,186.9,628.9,188.3,630.6,188.3z M644,188.3c1.6,0,3-1.4,3-3s-1.4-3-3-3c-1.6,0-3,1.4-3,3C641,186.9,642.4,188.3,644,188.3z
			 M657.6,188.3c1.6,0,3-1.4,3-3s-1.4-3-3-3c-1.6,0-3,1.4-3,3C654.6,186.9,656,188.3,657.6,188.3z M671.1,188.3c1.6,0,3-1.4,3-3
			s-1.4-3-3-3s-3,1.4-3,3C668.1,186.9,669.4,188.3,671.1,188.3z M684.6,188.3c1.6,0,3-1.4,3-3s-1.4-3-3-3s-3,1.4-3,3
			C681.5,186.9,682.9,188.3,684.6,188.3z M698,188.3c1.6,0,3-1.4,3-3s-1.4-3-3-3s-3,1.4-3,3C695,186.9,696.4,188.3,698,188.3z
			 M711.6,188.3c1.6,0,3-1.4,3-3s-1.4-3-3-3c-1.6,0-3,1.4-3,3C708.6,186.9,709.9,188.3,711.6,188.3z M725.1,188.3c1.6,0,3-1.4,3-3
			s-1.4-3-3-3c-1.6,0-3,1.4-3,3C722.1,186.9,723.5,188.3,725.1,188.3z M245.1,196c-1.6,0-3,1.4-3,3c0,1.6,1.4,3,3,3s3-1.4,3-3
			C248.1,197.3,246.7,196,245.1,196z M258.5,196c-1.6,0-3,1.4-3,3c0,1.6,1.4,3,3,3s3-1.4,3-3C261.6,197.3,260.2,196,258.5,196z
			 M272,196c-1.6,0-3,1.4-3,3c0,1.6,1.4,3,3,3s3-1.4,3-3C275,197.3,273.8,196,272,196z M285.5,196c-1.6,0-3,1.4-3,3c0,1.6,1.4,3,3,3
			c1.6,0,3-1.4,3-3C288.6,197.3,287.2,196,285.5,196z M299.1,196c-1.6,0-3,1.4-3,3c0,1.6,1.4,3,3,3s3-1.4,3-3
			C302.1,197.3,300.7,196,299.1,196z M312.5,196c-1.6,0-3,1.4-3,3c0,1.6,1.4,3,3,3s3-1.4,3-3C315.6,197.3,314.2,196,312.5,196z
			 M326,196c-1.6,0-3,1.4-3,3c0,1.6,1.4,3,3,3s3-1.4,3-3C329,197.3,327.7,196,326,196z M339.5,196c-1.6,0-3,1.4-3,3c0,1.6,1.4,3,3,3
			s3-1.4,3-3C342.5,197.3,341.2,196,339.5,196z M353.1,196c-1.6,0-3,1.4-3,3c0,1.6,1.4,3,3,3s3-1.4,3-3
			C356.1,197.3,354.7,196,353.1,196z M366.6,196c-1.6,0-3,1.4-3,3c0,1.6,1.4,3,3,3s3-1.4,3-3C369.6,197.3,368.2,196,366.6,196z
			 M380,196c-1.6,0-3,1.4-3,3c0,1.6,1.4,3,3,3c1.6,0,3-1.4,3-3C383.1,197.3,381.7,196,380,196z M393.5,196c-1.6,0-3,1.4-3,3
			c0,1.6,1.4,3,3,3s3-1.4,3-3C396.5,197.3,395.3,196,393.5,196z M407.1,196c-1.6,0-3,1.4-3,3c0,1.6,1.4,3,3,3s3-1.4,3-3
			C410.1,197.3,408.7,196,407.1,196z M420.6,196c-1.6,0-3,1.4-3,3c0,1.6,1.4,3,3,3s3-1.4,3-3C423.6,197.3,422.2,196,420.6,196z
			 M434,196c-1.6,0-3,1.4-3,3c0,1.6,1.4,3,3,3s3-1.4,3-3C437.1,197.3,435.7,196,434,196z M447.5,196c-1.6,0-3,1.4-3,3
			c0,1.6,1.4,3,3,3s3-1.4,3-3C450.5,197.3,449.2,196,447.5,196z M461,196c-1.6,0-3,1.4-3,3c0,1.6,1.4,3,3,3s3-1.4,3-3
			C464,197.3,462.7,196,461,196z M474.6,196c-1.6,0-3,1.4-3,3c0,1.6,1.4,3,3,3s3-1.4,3-3C477.6,197.3,476.2,196,474.6,196z
			 M488.1,196c-1.6,0-3,1.4-3,3c0,1.6,1.4,3,3,3s3-1.4,3-3C491.1,197.3,489.7,196,488.1,196z M501.5,196c-1.6,0-3,1.4-3,3
			c0,1.6,1.4,3,3,3s3-1.4,3-3C504.6,197.3,503.2,196,501.5,196z M515,196c-1.6,0-3,1.4-3,3c0,1.6,1.4,3,3,3c1.6,0,3-1.4,3-3
			C518,197.3,516.8,196,515,196z M528.6,196c-1.6,0-3,1.4-3,3c0,1.6,1.4,3,3,3c1.6,0,3-1.4,3-3C531.6,197.3,530.2,196,528.6,196z
			 M542.1,196c-1.6,0-3,1.4-3,3c0,1.6,1.4,3,3,3c1.6,0,3-1.4,3-3C545.1,197.3,543.7,196,542.1,196z M555.5,196c-1.6,0-3,1.4-3,3
			c0,1.6,1.4,3,3,3s3-1.4,3-3C558.6,197.3,557.2,196,555.5,196z M569,196c-1.6,0-3,1.4-3,3c0,1.6,1.4,3,3,3c1.6,0,3-1.4,3-3
			C572,197.3,570.8,196,569,196z M582.5,196c-1.6,0-3,1.4-3,3c0,1.6,1.4,3,3,3c1.6,0,3-1.4,3-3C585.5,197.3,584.2,196,582.5,196z
			 M596.1,196c-1.6,0-3,1.4-3,3c0,1.6,1.4,3,3,3c1.6,0,3-1.4,3-3C599.1,197.3,597.7,196,596.1,196z M609.6,196c-1.6,0-3,1.4-3,3
			c0,1.6,1.4,3,3,3c1.6,0,3-1.4,3-3C612.6,197.3,611.2,196,609.6,196z M623,196c-1.6,0-3,1.4-3,3c0,1.6,1.4,3,3,3c1.6,0,3-1.4,3-3
			C626.1,197.3,624.7,196,623,196z M636.5,196c-1.6,0-3,1.4-3,3c0,1.6,1.4,3,3,3s3-1.4,3-3C639.5,197.3,638.3,196,636.5,196z
			 M650.1,196c-1.6,0-3,1.4-3,3c0,1.6,1.4,3,3,3s3-1.4,3-3C653.1,197.3,651.7,196,650.1,196z M663.6,196c-1.6,0-3,1.4-3,3
			c0,1.6,1.4,3,3,3c1.6,0,3-1.4,3-3C666.6,197.3,665.2,196,663.6,196z M677,196c-1.6,0-3,1.4-3,3c0,1.6,1.4,3,3,3c1.6,0,3-1.4,3-3
			C680.1,197.3,678.7,196,677,196z M690.5,196c-1.6,0-3,1.4-3,3c0,1.6,1.4,3,3,3c1.6,0,3-1.4,3-3C693.5,197.3,692.3,196,690.5,196z
			 M704,196c-1.6,0-3,1.4-3,3c0,1.6,1.4,3,3,3c1.6,0,3-1.4,3-3C707.1,197.3,705.7,196,704,196z M717.6,196c-1.6,0-3,1.4-3,3
			c0,1.6,1.4,3,3,3c1.6,0,3-1.4,3-3C720.6,197.3,719.2,196,717.6,196z M731.1,196c-1.6,0-3,1.4-3,3c0,1.6,1.4,3,3,3s3-1.4,3-3
			C734.1,197.3,732.7,196,731.1,196z M239.1,209.7c-1.6,0-3,1.4-3,3s1.4,3,3,3c1.6,0,3-1.4,3-3C242.1,211.1,240.7,209.7,239.1,209.7
			z M252.6,215.7c1.6,0,3-1.4,3-3c0-1.6-1.4-3-3-3c-1.6,0-3,1.4-3,3C249.6,214.5,250.9,215.7,252.6,215.7z M266.1,215.7
			c1.6,0,3-1.4,3-3c0-1.6-1.4-3-3-3c-1.6,0-3,1.4-3,3C263,214.5,264.4,215.7,266.1,215.7z M279.5,215.7c1.6,0,3-1.4,3-3
			c0-1.6-1.4-3-3-3s-3,1.4-3,3C276.5,214.5,277.9,215.7,279.5,215.7z M293.1,215.7c1.6,0,3-1.4,3-3c0-1.6-1.4-3-3-3s-3,1.4-3,3
			C290.1,214.5,291.4,215.7,293.1,215.7z M306.6,215.7c1.6,0,3-1.4,3-3c0-1.6-1.4-3-3-3c-1.6,0-3,1.4-3,3
			C303.6,214.5,304.9,215.7,306.6,215.7z M320.1,215.7c1.6,0,3-1.4,3-3c0-1.6-1.4-3-3-3s-3,1.4-3,3
			C317,214.5,318.4,215.7,320.1,215.7z M333.5,215.7c1.6,0,3-1.4,3-3c0-1.6-1.4-3-3-3s-3,1.4-3,3
			C330.5,214.5,331.9,215.7,333.5,215.7z M347.1,215.7c1.6,0,3-1.4,3-3c0-1.6-1.4-3-3-3s-3,1.4-3,3
			C344,214.5,345.4,215.7,347.1,215.7z M360.6,215.7c1.6,0,3-1.4,3-3c0-1.6-1.4-3-3-3s-3,1.4-3,3C357.6,214.5,359,215.7,360.6,215.7
			z M374.1,215.7c1.6,0,3-1.4,3-3c0-1.6-1.4-3-3-3s-3,1.4-3,3C371.1,214.5,372.4,215.7,374.1,215.7z M387.6,215.7c1.6,0,3-1.4,3-3
			c0-1.6-1.4-3-3-3s-3,1.4-3,3C384.5,214.5,385.9,215.7,387.6,215.7z M401,215.7c1.6,0,3-1.4,3-3c0-1.6-1.4-3-3-3s-3,1.4-3,3
			C398,214.5,399.4,215.7,401,215.7z M414.6,215.7c1.6,0,3-1.4,3-3c0-1.6-1.4-3-3-3s-3,1.4-3,3C411.6,214.5,412.9,215.7,414.6,215.7
			z M428.1,215.7c1.6,0,3-1.4,3-3c0-1.6-1.4-3-3-3s-3,1.4-3,3C425.1,214.5,426.4,215.7,428.1,215.7z M441.6,215.7c1.6,0,3-1.4,3-3
			c0-1.6-1.4-3-3-3s-3,1.4-3,3C438.5,214.5,439.9,215.7,441.6,215.7z M455,215.7c1.6,0,3-1.4,3-3c0-1.6-1.4-3-3-3s-3,1.4-3,3
			C452,214.5,453.4,215.7,455,215.7z M468.6,215.7c1.6,0,3-1.4,3-3c0-1.6-1.4-3-3-3s-3,1.4-3,3C465.5,214.5,466.9,215.7,468.6,215.7
			z M482.1,215.7c1.6,0,3-1.4,3-3c0-1.6-1.4-3-3-3s-3,1.4-3,3C479.1,214.5,480.5,215.7,482.1,215.7z M495.6,215.7c1.6,0,3-1.4,3-3
			c0-1.6-1.4-3-3-3s-3,1.4-3,3C492.6,214.5,493.9,215.7,495.6,215.7z M509.1,215.7c1.6,0,3-1.4,3-3c0-1.6-1.4-3-3-3s-3,1.4-3,3
			C506,214.5,507.4,215.7,509.1,215.7z M522.5,215.7c1.6,0,3-1.4,3-3c0-1.6-1.4-3-3-3c-1.6,0-3,1.4-3,3
			C519.5,214.5,520.9,215.7,522.5,215.7z M536.1,215.7c1.6,0,3-1.4,3-3c0-1.6-1.4-3-3-3s-3,1.4-3,3
			C533.1,214.5,534.5,215.7,536.1,215.7z M549.6,215.7c1.6,0,3-1.4,3-3c0-1.6-1.4-3-3-3c-1.6,0-3,1.4-3,3
			C546.6,214.5,547.9,215.7,549.6,215.7z M563.1,215.7c1.6,0,3-1.4,3-3c0-1.6-1.4-3-3-3s-3,1.4-3,3
			C560,214.5,561.4,215.7,563.1,215.7z M576.5,215.7c1.6,0,3-1.4,3-3c0-1.6-1.4-3-3-3c-1.6,0-3,1.4-3,3
			C573.5,214.5,574.9,215.7,576.5,215.7z M590.1,215.7c1.6,0,3-1.4,3-3c0-1.6-1.4-3-3-3s-3,1.4-3,3
			C587.1,214.5,588.4,215.7,590.1,215.7z M603.6,215.7c1.6,0,3-1.4,3-3c0-1.6-1.4-3-3-3c-1.6,0-3,1.4-3,3
			C600.6,214.5,602,215.7,603.6,215.7z M617.1,215.7c1.6,0,3-1.4,3-3c0-1.6-1.4-3-3-3c-1.6,0-3,1.4-3,3
			C614.1,214.5,615.4,215.7,617.1,215.7z M630.6,215.7c1.6,0,3-1.4,3-3c0-1.6-1.4-3-3-3c-1.6,0-3,1.4-3,3
			C627.5,214.5,628.9,215.7,630.6,215.7z M644,215.7c1.6,0,3-1.4,3-3c0-1.6-1.4-3-3-3c-1.6,0-3,1.4-3,3
			C641,214.5,642.4,215.7,644,215.7z M657.6,215.7c1.6,0,3-1.4,3-3c0-1.6-1.4-3-3-3c-1.6,0-3,1.4-3,3
			C654.6,214.5,656,215.7,657.6,215.7z M671.1,215.7c1.6,0,3-1.4,3-3c0-1.6-1.4-3-3-3s-3,1.4-3,3
			C668.1,214.5,669.4,215.7,671.1,215.7z M684.6,215.7c1.6,0,3-1.4,3-3c0-1.6-1.4-3-3-3s-3,1.4-3,3
			C681.5,214.5,682.9,215.7,684.6,215.7z M698,215.7c1.6,0,3-1.4,3-3c0-1.6-1.4-3-3-3s-3,1.4-3,3C695,214.5,696.4,215.7,698,215.7z
			 M711.6,215.7c1.6,0,3-1.4,3-3c0-1.6-1.4-3-3-3c-1.6,0-3,1.4-3,3C708.6,214.5,709.9,215.7,711.6,215.7z M725.1,215.7
			c1.6,0,3-1.4,3-3c0-1.6-1.4-3-3-3c-1.6,0-3,1.4-3,3C722.1,214.5,723.5,215.7,725.1,215.7z M738.6,215.7c1.6,0,3-1.4,3-3
			c0-1.6-1.4-3-3-3c-1.6,0-3,1.4-3,3C735.6,214.5,736.9,215.7,738.6,215.7z M258.5,223.5c-1.6,0-3,1.4-3,3s1.4,3,3,3s3-1.4,3-3
			C261.6,224.7,260.2,223.5,258.5,223.5z M272,223.5c-1.6,0-3,1.4-3,3s1.4,3,3,3s3-1.4,3-3C275,224.7,273.8,223.5,272,223.5z
			 M285.5,223.5c-1.6,0-3,1.4-3,3s1.4,3,3,3c1.6,0,3-1.4,3-3C288.6,224.7,287.2,223.5,285.5,223.5z M299.1,223.5c-1.6,0-3,1.4-3,3
			s1.4,3,3,3s3-1.4,3-3C302.1,224.7,300.7,223.5,299.1,223.5z M312.5,223.5c-1.6,0-3,1.4-3,3s1.4,3,3,3s3-1.4,3-3
			C315.6,224.7,314.2,223.5,312.5,223.5z M326,223.5c-1.6,0-3,1.4-3,3s1.4,3,3,3s3-1.4,3-3C329,224.7,327.7,223.5,326,223.5z
			 M339.5,223.5c-1.6,0-3,1.4-3,3s1.4,3,3,3s3-1.4,3-3C342.5,224.7,341.2,223.5,339.5,223.5z M353.1,223.5c-1.6,0-3,1.4-3,3
			s1.4,3,3,3s3-1.4,3-3C356.1,224.7,354.7,223.5,353.1,223.5z M366.6,223.5c-1.6,0-3,1.4-3,3s1.4,3,3,3s3-1.4,3-3
			C369.6,224.7,368.2,223.5,366.6,223.5z M380,223.5c-1.6,0-3,1.4-3,3s1.4,3,3,3c1.6,0,3-1.4,3-3C383.1,224.7,381.7,223.5,380,223.5
			z M393.5,223.5c-1.6,0-3,1.4-3,3s1.4,3,3,3s3-1.4,3-3C396.5,224.7,395.3,223.5,393.5,223.5z M407.1,223.5c-1.6,0-3,1.4-3,3
			s1.4,3,3,3s3-1.4,3-3C410.1,224.7,408.7,223.5,407.1,223.5z M420.6,223.5c-1.6,0-3,1.4-3,3s1.4,3,3,3s3-1.4,3-3
			C423.6,224.7,422.2,223.5,420.6,223.5z M434,223.5c-1.6,0-3,1.4-3,3s1.4,3,3,3s3-1.4,3-3C437.1,224.7,435.7,223.5,434,223.5z
			 M447.5,223.5c-1.6,0-3,1.4-3,3s1.4,3,3,3s3-1.4,3-3C450.5,224.7,449.2,223.5,447.5,223.5z M461,223.5c-1.6,0-3,1.4-3,3s1.4,3,3,3
			s3-1.4,3-3C464,224.7,462.7,223.5,461,223.5z M474.6,223.5c-1.6,0-3,1.4-3,3s1.4,3,3,3s3-1.4,3-3
			C477.6,224.7,476.2,223.5,474.6,223.5z M488.1,223.5c-1.6,0-3,1.4-3,3s1.4,3,3,3s3-1.4,3-3C491.1,224.7,489.7,223.5,488.1,223.5z
			 M501.5,223.5c-1.6,0-3,1.4-3,3s1.4,3,3,3s3-1.4,3-3C504.6,224.7,503.2,223.5,501.5,223.5z M515,223.5c-1.6,0-3,1.4-3,3s1.4,3,3,3
			c1.6,0,3-1.4,3-3C518,224.7,516.8,223.5,515,223.5z M528.6,223.5c-1.6,0-3,1.4-3,3s1.4,3,3,3c1.6,0,3-1.4,3-3
			C531.6,224.7,530.2,223.5,528.6,223.5z M542.1,223.5c-1.6,0-3,1.4-3,3s1.4,3,3,3c1.6,0,3-1.4,3-3
			C545.1,224.7,543.7,223.5,542.1,223.5z M555.5,223.5c-1.6,0-3,1.4-3,3s1.4,3,3,3s3-1.4,3-3C558.6,224.7,557.2,223.5,555.5,223.5z
			 M569,223.5c-1.6,0-3,1.4-3,3s1.4,3,3,3c1.6,0,3-1.4,3-3C572,224.7,570.8,223.5,569,223.5z M582.5,223.5c-1.6,0-3,1.4-3,3
			s1.4,3,3,3c1.6,0,3-1.4,3-3C585.5,224.7,584.2,223.5,582.5,223.5z M596.1,223.5c-1.6,0-3,1.4-3,3s1.4,3,3,3c1.6,0,3-1.4,3-3
			C599.1,224.7,597.7,223.5,596.1,223.5z M609.6,223.5c-1.6,0-3,1.4-3,3s1.4,3,3,3c1.6,0,3-1.4,3-3
			C612.6,224.7,611.2,223.5,609.6,223.5z M623,223.5c-1.6,0-3,1.4-3,3s1.4,3,3,3c1.6,0,3-1.4,3-3C626.1,224.7,624.7,223.5,623,223.5
			z M636.5,223.5c-1.6,0-3,1.4-3,3s1.4,3,3,3s3-1.4,3-3C639.5,224.7,638.3,223.5,636.5,223.5z M650.1,223.5c-1.6,0-3,1.4-3,3
			s1.4,3,3,3s3-1.4,3-3C653.1,224.7,651.7,223.5,650.1,223.5z M663.6,223.5c-1.6,0-3,1.4-3,3s1.4,3,3,3c1.6,0,3-1.4,3-3
			C666.6,224.7,665.2,223.5,663.6,223.5z M677,223.5c-1.6,0-3,1.4-3,3s1.4,3,3,3c1.6,0,3-1.4,3-3C680.1,224.7,678.7,223.5,677,223.5
			z M690.5,223.5c-1.6,0-3,1.4-3,3s1.4,3,3,3c1.6,0,3-1.4,3-3C693.5,224.7,692.3,223.5,690.5,223.5z M704,223.5c-1.6,0-3,1.4-3,3
			s1.4,3,3,3c1.6,0,3-1.4,3-3C707.1,224.7,705.7,223.5,704,223.5z M717.6,223.5c-1.6,0-3,1.4-3,3s1.4,3,3,3c1.6,0,3-1.4,3-3
			C720.6,224.7,719.2,223.5,717.6,223.5z M731.1,223.5c-1.6,0-3,1.4-3,3s1.4,3,3,3s3-1.4,3-3C734.1,224.7,732.7,223.5,731.1,223.5z
			 M744.5,223.5c-1.6,0-3,1.4-3,3s1.4,3,3,3s3-1.4,3-3C747.6,224.7,746.2,223.5,744.5,223.5z M252.6,237.1c-1.6,0-3,1.4-3,3
			c0,1.6,1.4,3,3,3c1.6,0,3-1.4,3-3C255.6,238.5,254.2,237.1,252.6,237.1z M266.1,243.2c1.6,0,3-1.4,3-3c0-1.6-1.4-3-3-3
			c-1.6,0-3,1.4-3,3C263,241.8,264.4,243.2,266.1,243.2z M279.5,243.2c1.6,0,3-1.4,3-3c0-1.6-1.4-3-3-3s-3,1.4-3,3
			C276.5,241.8,277.9,243.2,279.5,243.2z M293.1,243.2c1.6,0,3-1.4,3-3c0-1.6-1.4-3-3-3s-3,1.4-3,3
			C290.1,241.8,291.4,243.2,293.1,243.2z M306.6,243.2c1.6,0,3-1.4,3-3c0-1.6-1.4-3-3-3c-1.6,0-3,1.4-3,3
			C303.6,241.8,304.9,243.2,306.6,243.2z M320.1,243.2c1.6,0,3-1.4,3-3c0-1.6-1.4-3-3-3s-3,1.4-3,3
			C317,241.8,318.4,243.2,320.1,243.2z M333.5,243.2c1.6,0,3-1.4,3-3c0-1.6-1.4-3-3-3s-3,1.4-3,3
			C330.5,241.8,331.9,243.2,333.5,243.2z M347.1,243.2c1.6,0,3-1.4,3-3c0-1.6-1.4-3-3-3s-3,1.4-3,3
			C344,241.8,345.4,243.2,347.1,243.2z M360.6,243.2c1.6,0,3-1.4,3-3c0-1.6-1.4-3-3-3s-3,1.4-3,3C357.6,241.8,359,243.2,360.6,243.2
			z M374.1,243.2c1.6,0,3-1.4,3-3c0-1.6-1.4-3-3-3s-3,1.4-3,3C371.1,241.8,372.4,243.2,374.1,243.2z M387.6,243.2c1.6,0,3-1.4,3-3
			c0-1.6-1.4-3-3-3s-3,1.4-3,3C384.5,241.8,385.9,243.2,387.6,243.2z M401,243.2c1.6,0,3-1.4,3-3c0-1.6-1.4-3-3-3s-3,1.4-3,3
			C398,241.8,399.4,243.2,401,243.2z M414.6,243.2c1.6,0,3-1.4,3-3c0-1.6-1.4-3-3-3s-3,1.4-3,3C411.6,241.8,412.9,243.2,414.6,243.2
			z M428.1,243.2c1.6,0,3-1.4,3-3c0-1.6-1.4-3-3-3s-3,1.4-3,3C425.1,241.8,426.4,243.2,428.1,243.2z M441.6,243.2c1.6,0,3-1.4,3-3
			c0-1.6-1.4-3-3-3s-3,1.4-3,3C438.5,241.8,439.9,243.2,441.6,243.2z M455,243.2c1.6,0,3-1.4,3-3c0-1.6-1.4-3-3-3s-3,1.4-3,3
			C452,241.8,453.4,243.2,455,243.2z M468.6,243.2c1.6,0,3-1.4,3-3c0-1.6-1.4-3-3-3s-3,1.4-3,3C465.5,241.8,466.9,243.2,468.6,243.2
			z M482.1,243.2c1.6,0,3-1.4,3-3c0-1.6-1.4-3-3-3s-3,1.4-3,3C479.1,241.8,480.5,243.2,482.1,243.2z M495.6,243.2c1.6,0,3-1.4,3-3
			c0-1.6-1.4-3-3-3s-3,1.4-3,3C492.6,241.8,493.9,243.2,495.6,243.2z M509.1,243.2c1.6,0,3-1.4,3-3c0-1.6-1.4-3-3-3s-3,1.4-3,3
			C506,241.8,507.4,243.2,509.1,243.2z M522.5,243.2c1.6,0,3-1.4,3-3c0-1.6-1.4-3-3-3c-1.6,0-3,1.4-3,3
			C519.5,241.8,520.9,243.2,522.5,243.2z M536.1,243.2c1.6,0,3-1.4,3-3c0-1.6-1.4-3-3-3s-3,1.4-3,3
			C533.1,241.8,534.5,243.2,536.1,243.2z M549.6,243.2c1.6,0,3-1.4,3-3c0-1.6-1.4-3-3-3c-1.6,0-3,1.4-3,3
			C546.6,241.8,547.9,243.2,549.6,243.2z M563.1,243.2c1.6,0,3-1.4,3-3c0-1.6-1.4-3-3-3s-3,1.4-3,3
			C560,241.8,561.4,243.2,563.1,243.2z M576.5,243.2c1.6,0,3-1.4,3-3c0-1.6-1.4-3-3-3c-1.6,0-3,1.4-3,3
			C573.5,241.8,574.9,243.2,576.5,243.2z M590.1,243.2c1.6,0,3-1.4,3-3c0-1.6-1.4-3-3-3s-3,1.4-3,3
			C587.1,241.8,588.4,243.2,590.1,243.2z M603.6,243.2c1.6,0,3-1.4,3-3c0-1.6-1.4-3-3-3c-1.6,0-3,1.4-3,3
			C600.6,241.8,602,243.2,603.6,243.2z M617.1,243.2c1.6,0,3-1.4,3-3c0-1.6-1.4-3-3-3c-1.6,0-3,1.4-3,3
			C614.1,241.8,615.4,243.2,617.1,243.2z M630.6,243.2c1.6,0,3-1.4,3-3c0-1.6-1.4-3-3-3c-1.6,0-3,1.4-3,3
			C627.5,241.8,628.9,243.2,630.6,243.2z M644,243.2c1.6,0,3-1.4,3-3c0-1.6-1.4-3-3-3c-1.6,0-3,1.4-3,3
			C641,241.8,642.4,243.2,644,243.2z M657.6,243.2c1.6,0,3-1.4,3-3c0-1.6-1.4-3-3-3c-1.6,0-3,1.4-3,3
			C654.6,241.8,656,243.2,657.6,243.2z M671.1,243.2c1.6,0,3-1.4,3-3c0-1.6-1.4-3-3-3s-3,1.4-3,3
			C668.1,241.8,669.4,243.2,671.1,243.2z M684.6,243.2c1.6,0,3-1.4,3-3c0-1.6-1.4-3-3-3s-3,1.4-3,3
			C681.5,241.8,682.9,243.2,684.6,243.2z M698,243.2c1.6,0,3-1.4,3-3c0-1.6-1.4-3-3-3s-3,1.4-3,3C695,241.8,696.4,243.2,698,243.2z
			 M711.6,243.2c1.6,0,3-1.4,3-3c0-1.6-1.4-3-3-3c-1.6,0-3,1.4-3,3C708.6,241.8,709.9,243.2,711.6,243.2z M725.1,243.2
			c1.6,0,3-1.4,3-3c0-1.6-1.4-3-3-3c-1.6,0-3,1.4-3,3C722.1,241.8,723.5,243.2,725.1,243.2z M738.6,243.2c1.6,0,3-1.4,3-3
			c0-1.6-1.4-3-3-3c-1.6,0-3,1.4-3,3C735.6,241.8,736.9,243.2,738.6,243.2z M752.1,237.1c-1.6,0-3,1.4-3,3c0,1.6,1.4,3,3,3
			s3-1.4,3-3C755.1,238.5,753.8,237.1,752.1,237.1z M258.5,250.9c-1.6,0-3,1.4-3,3c0,1.6,1.4,3,3,3s3-1.4,3-3
			C261.5,252.3,260.2,250.9,258.5,250.9z M272,250.9c-1.6,0-3,1.4-3,3c0,1.6,1.4,3,3,3s3-1.4,3-3C275,252.3,273.8,250.9,272,250.9z
			 M285.5,250.9c-1.6,0-3,1.4-3,3c0,1.6,1.4,3,3,3c1.6,0,3-1.4,3-3C288.6,252.3,287.2,250.9,285.5,250.9z M299.1,250.9
			c-1.6,0-3,1.4-3,3c0,1.6,1.4,3,3,3s3-1.4,3-3C302.1,252.3,300.7,250.9,299.1,250.9z M312.5,250.9c-1.6,0-3,1.4-3,3
			c0,1.6,1.4,3,3,3s3-1.4,3-3C315.5,252.3,314.2,250.9,312.5,250.9z M326,250.9c-1.6,0-3,1.4-3,3c0,1.6,1.4,3,3,3s3-1.4,3-3
			C329,252.3,327.7,250.9,326,250.9z M339.5,250.9c-1.6,0-3,1.4-3,3c0,1.6,1.4,3,3,3s3-1.4,3-3C342.5,252.3,341.2,250.9,339.5,250.9
			z M353.1,250.9c-1.6,0-3,1.4-3,3c0,1.6,1.4,3,3,3s3-1.4,3-3C356.1,252.3,354.7,250.9,353.1,250.9z M366.6,250.9c-1.6,0-3,1.4-3,3
			c0,1.6,1.4,3,3,3s3-1.4,3-3C369.6,252.3,368.2,250.9,366.6,250.9z M380,250.9c-1.6,0-3,1.4-3,3c0,1.6,1.4,3,3,3c1.6,0,3-1.4,3-3
			C383,252.3,381.7,250.9,380,250.9z M393.5,250.9c-1.6,0-3,1.4-3,3c0,1.6,1.4,3,3,3s3-1.4,3-3C396.5,252.3,395.3,250.9,393.5,250.9
			z M407.1,250.9c-1.6,0-3,1.4-3,3c0,1.6,1.4,3,3,3s3-1.4,3-3C410.1,252.3,408.7,250.9,407.1,250.9z M420.6,250.9c-1.6,0-3,1.4-3,3
			c0,1.6,1.4,3,3,3s3-1.4,3-3C423.6,252.3,422.2,250.9,420.6,250.9z M434,250.9c-1.6,0-3,1.4-3,3c0,1.6,1.4,3,3,3s3-1.4,3-3
			C437,252.3,435.7,250.9,434,250.9z M447.5,250.9c-1.6,0-3,1.4-3,3c0,1.6,1.4,3,3,3s3-1.4,3-3C450.5,252.3,449.2,250.9,447.5,250.9
			z M461,250.9c-1.6,0-3,1.4-3,3c0,1.6,1.4,3,3,3s3-1.4,3-3C464,252.3,462.7,250.9,461,250.9z M474.6,250.9c-1.6,0-3,1.4-3,3
			c0,1.6,1.4,3,3,3s3-1.4,3-3C477.6,252.3,476.2,250.9,474.6,250.9z M488.1,250.9c-1.6,0-3,1.4-3,3c0,1.6,1.4,3,3,3s3-1.4,3-3
			C491.1,252.3,489.7,250.9,488.1,250.9z M501.5,250.9c-1.6,0-3,1.4-3,3c0,1.6,1.4,3,3,3s3-1.4,3-3
			C504.5,252.3,503.2,250.9,501.5,250.9z M515,250.9c-1.6,0-3,1.4-3,3c0,1.6,1.4,3,3,3c1.6,0,3-1.4,3-3
			C518,252.3,516.8,250.9,515,250.9z M528.6,250.9c-1.6,0-3,1.4-3,3c0,1.6,1.4,3,3,3c1.6,0,3-1.4,3-3
			C531.6,252.3,530.2,250.9,528.6,250.9z M542.1,250.9c-1.6,0-3,1.4-3,3c0,1.6,1.4,3,3,3c1.6,0,3-1.4,3-3
			C545.1,252.3,543.7,250.9,542.1,250.9z M555.5,250.9c-1.6,0-3,1.4-3,3c0,1.6,1.4,3,3,3s3-1.4,3-3
			C558.5,252.3,557.2,250.9,555.5,250.9z M569,250.9c-1.6,0-3,1.4-3,3c0,1.6,1.4,3,3,3c1.6,0,3-1.4,3-3
			C572,252.3,570.8,250.9,569,250.9z M582.5,250.9c-1.6,0-3,1.4-3,3c0,1.6,1.4,3,3,3c1.6,0,3-1.4,3-3
			C585.5,252.3,584.2,250.9,582.5,250.9z M596.1,250.9c-1.6,0-3,1.4-3,3c0,1.6,1.4,3,3,3c1.6,0,3-1.4,3-3
			C599.1,252.3,597.7,250.9,596.1,250.9z M609.6,250.9c-1.6,0-3,1.4-3,3c0,1.6,1.4,3,3,3c1.6,0,3-1.4,3-3
			C612.6,252.3,611.2,250.9,609.6,250.9z M623,250.9c-1.6,0-3,1.4-3,3c0,1.6,1.4,3,3,3c1.6,0,3-1.4,3-3
			C626,252.3,624.7,250.9,623,250.9z M636.5,250.9c-1.6,0-3,1.4-3,3c0,1.6,1.4,3,3,3s3-1.4,3-3C639.5,252.3,638.3,250.9,636.5,250.9
			z M650.1,250.9c-1.6,0-3,1.4-3,3c0,1.6,1.4,3,3,3s3-1.4,3-3C653.1,252.3,651.7,250.9,650.1,250.9z M663.6,250.9c-1.6,0-3,1.4-3,3
			c0,1.6,1.4,3,3,3c1.6,0,3-1.4,3-3C666.6,252.3,665.2,250.9,663.6,250.9z M677,250.9c-1.6,0-3,1.4-3,3c0,1.6,1.4,3,3,3
			c1.6,0,3-1.4,3-3C680,252.3,678.7,250.9,677,250.9z M690.5,250.9c-1.6,0-3,1.4-3,3c0,1.6,1.4,3,3,3c1.6,0,3-1.4,3-3
			C693.5,252.3,692.3,250.9,690.5,250.9z M704,250.9c-1.6,0-3,1.4-3,3c0,1.6,1.4,3,3,3c1.6,0,3-1.4,3-3
			C707.1,252.3,705.7,250.9,704,250.9z M717.6,250.9c-1.6,0-3,1.4-3,3c0,1.6,1.4,3,3,3c1.6,0,3-1.4,3-3
			C720.6,252.3,719.2,250.9,717.6,250.9z M731.1,250.9c-1.6,0-3,1.4-3,3c0,1.6,1.4,3,3,3s3-1.4,3-3
			C734.1,252.3,732.7,250.9,731.1,250.9z M744.5,250.9c-1.6,0-3,1.4-3,3c0,1.6,1.4,3,3,3s3-1.4,3-3
			C747.5,252.3,746.2,250.9,744.5,250.9z M266.1,264.6c-1.6,0-3,1.4-3,3s1.4,3,3,3c1.6,0,3-1.4,3-3S267.7,264.6,266.1,264.6z
			 M279.5,270.6c1.6,0,3-1.4,3-3s-1.4-3-3-3s-3,1.4-3,3S277.9,270.6,279.5,270.6z M293.1,270.6c1.6,0,3-1.4,3-3s-1.4-3-3-3
			s-3,1.4-3,3S291.4,270.6,293.1,270.6z M306.6,270.6c1.6,0,3-1.4,3-3s-1.4-3-3-3c-1.6,0-3,1.4-3,3S304.9,270.6,306.6,270.6z
			 M320.1,270.6c1.6,0,3-1.4,3-3s-1.4-3-3-3s-3,1.4-3,3S318.4,270.6,320.1,270.6z M333.5,270.6c1.6,0,3-1.4,3-3s-1.4-3-3-3
			s-3,1.4-3,3S331.9,270.6,333.5,270.6z M347.1,270.6c1.6,0,3-1.4,3-3s-1.4-3-3-3s-3,1.4-3,3S345.4,270.6,347.1,270.6z M360.6,270.6
			c1.6,0,3-1.4,3-3s-1.4-3-3-3s-3,1.4-3,3S359,270.6,360.6,270.6z M374.1,270.6c1.6,0,3-1.4,3-3s-1.4-3-3-3s-3,1.4-3,3
			S372.4,270.6,374.1,270.6z M387.6,270.6c1.6,0,3-1.4,3-3s-1.4-3-3-3s-3,1.4-3,3S385.9,270.6,387.6,270.6z M401,270.6
			c1.6,0,3-1.4,3-3s-1.4-3-3-3s-3,1.4-3,3S399.4,270.6,401,270.6z M414.6,270.6c1.6,0,3-1.4,3-3s-1.4-3-3-3s-3,1.4-3,3
			S412.9,270.6,414.6,270.6z M428.1,270.6c1.6,0,3-1.4,3-3s-1.4-3-3-3s-3,1.4-3,3S426.4,270.6,428.1,270.6z M441.6,270.6
			c1.6,0,3-1.4,3-3s-1.4-3-3-3s-3,1.4-3,3S439.9,270.6,441.6,270.6z M455,270.6c1.6,0,3-1.4,3-3s-1.4-3-3-3s-3,1.4-3,3
			S453.4,270.6,455,270.6z M468.6,264.6c-1.6,0-3,1.4-3,3s1.4,3,3,3s3-1.4,3-3S470.3,264.6,468.6,264.6z M482.1,270.6
			c1.6,0,3-1.4,3-3s-1.4-3-3-3s-3,1.4-3,3S480.5,270.6,482.1,270.6z M495.6,270.6c1.6,0,3-1.4,3-3s-1.4-3-3-3s-3,1.4-3,3
			S493.9,270.6,495.6,270.6z M509.1,270.6c1.6,0,3-1.4,3-3s-1.4-3-3-3s-3,1.4-3,3S507.4,270.6,509.1,270.6z M522.5,270.6
			c1.6,0,3-1.4,3-3s-1.4-3-3-3c-1.6,0-3,1.4-3,3S520.9,270.6,522.5,270.6z M536.1,270.6c1.6,0,3-1.4,3-3s-1.4-3-3-3s-3,1.4-3,3
			S534.5,270.6,536.1,270.6z M549.6,270.6c1.6,0,3-1.4,3-3s-1.4-3-3-3c-1.6,0-3,1.4-3,3S547.9,270.6,549.6,270.6z M563.1,270.6
			c1.6,0,3-1.4,3-3s-1.4-3-3-3s-3,1.4-3,3S561.4,270.6,563.1,270.6z M576.5,270.6c1.6,0,3-1.4,3-3s-1.4-3-3-3c-1.6,0-3,1.4-3,3
			S574.9,270.6,576.5,270.6z M590.1,270.6c1.6,0,3-1.4,3-3s-1.4-3-3-3s-3,1.4-3,3S588.4,270.6,590.1,270.6z M603.6,270.6
			c1.6,0,3-1.4,3-3s-1.4-3-3-3c-1.6,0-3,1.4-3,3S602,270.6,603.6,270.6z M617.1,270.6c1.6,0,3-1.4,3-3s-1.4-3-3-3c-1.6,0-3,1.4-3,3
			S615.4,270.6,617.1,270.6z M630.6,270.6c1.6,0,3-1.4,3-3s-1.4-3-3-3c-1.6,0-3,1.4-3,3S628.9,270.6,630.6,270.6z M644,270.6
			c1.6,0,3-1.4,3-3s-1.4-3-3-3c-1.6,0-3,1.4-3,3S642.4,270.6,644,270.6z M657.6,270.6c1.6,0,3-1.4,3-3s-1.4-3-3-3c-1.6,0-3,1.4-3,3
			S656,270.6,657.6,270.6z M671.1,270.6c1.6,0,3-1.4,3-3s-1.4-3-3-3s-3,1.4-3,3S669.4,270.6,671.1,270.6z M684.6,270.6
			c1.6,0,3-1.4,3-3s-1.4-3-3-3s-3,1.4-3,3S682.9,270.6,684.6,270.6z M698,270.6c1.6,0,3-1.4,3-3s-1.4-3-3-3s-3,1.4-3,3
			S696.4,270.6,698,270.6z M711.6,270.6c1.6,0,3-1.4,3-3s-1.4-3-3-3c-1.6,0-3,1.4-3,3S709.9,270.6,711.6,270.6z M725.1,270.6
			c1.6,0,3-1.4,3-3s-1.4-3-3-3c-1.6,0-3,1.4-3,3S723.5,270.6,725.1,270.6z M738.6,270.6c1.6,0,3-1.4,3-3s-1.4-3-3-3
			c-1.6,0-3,1.4-3,3S736.9,270.6,738.6,270.6z M272,278.4c-1.6,0-3,1.4-3,3s1.4,3,3,3s3-1.4,3-3C275,279.7,273.8,278.4,272,278.4z
			 M285.5,278.4c-1.6,0-3,1.4-3,3s1.4,3,3,3c1.6,0,3-1.4,3-3C288.6,279.7,287.2,278.4,285.5,278.4z M299.1,278.4c-1.6,0-3,1.4-3,3
			s1.4,3,3,3s3-1.4,3-3C302.1,279.7,300.7,278.4,299.1,278.4z M312.5,278.4c-1.6,0-3,1.4-3,3s1.4,3,3,3s3-1.4,3-3
			C315.6,279.7,314.2,278.4,312.5,278.4z M326,278.4c-1.6,0-3,1.4-3,3s1.4,3,3,3s3-1.4,3-3C329,279.7,327.7,278.4,326,278.4z
			 M339.5,278.4c-1.6,0-3,1.4-3,3s1.4,3,3,3s3-1.4,3-3C342.5,279.7,341.2,278.4,339.5,278.4z M353.1,278.4c-1.6,0-3,1.4-3,3
			s1.4,3,3,3s3-1.4,3-3C356.1,279.7,354.7,278.4,353.1,278.4z M366.6,278.4c-1.6,0-3,1.4-3,3s1.4,3,3,3s3-1.4,3-3
			C369.6,279.7,368.2,278.4,366.6,278.4z M380,278.4c-1.6,0-3,1.4-3,3s1.4,3,3,3c1.6,0,3-1.4,3-3C383.1,279.7,381.7,278.4,380,278.4
			z M393.5,278.4c-1.6,0-3,1.4-3,3s1.4,3,3,3s3-1.4,3-3C396.5,279.7,395.3,278.4,393.5,278.4z M407.1,278.4c-1.6,0-3,1.4-3,3
			s1.4,3,3,3s3-1.4,3-3C410.1,279.7,408.7,278.4,407.1,278.4z M420.6,278.4c-1.6,0-3,1.4-3,3s1.4,3,3,3s3-1.4,3-3
			C423.6,279.7,422.2,278.4,420.6,278.4z M434,278.4c-1.6,0-3,1.4-3,3s1.4,3,3,3s3-1.4,3-3C437.1,279.7,435.7,278.4,434,278.4z
			 M447.5,278.4c-1.6,0-3,1.4-3,3s1.4,3,3,3s3-1.4,3-3C450.5,279.7,449.2,278.4,447.5,278.4z M461,278.4c-1.6,0-3,1.4-3,3s1.4,3,3,3
			s3-1.4,3-3C464,279.7,462.7,278.4,461,278.4z M474.6,278.4c-1.6,0-3,1.4-3,3s1.4,3,3,3s3-1.4,3-3
			C477.6,279.7,476.2,278.4,474.6,278.4z M488.1,278.4c-1.6,0-3,1.4-3,3s1.4,3,3,3s3-1.4,3-3C491.1,279.7,489.7,278.4,488.1,278.4z
			 M501.5,278.4c-1.6,0-3,1.4-3,3s1.4,3,3,3s3-1.4,3-3C504.6,279.7,503.2,278.4,501.5,278.4z M515,278.4c-1.6,0-3,1.4-3,3s1.4,3,3,3
			c1.6,0,3-1.4,3-3C518,279.7,516.8,278.4,515,278.4z M528.6,278.4c-1.6,0-3,1.4-3,3s1.4,3,3,3c1.6,0,3-1.4,3-3
			C531.6,279.7,530.2,278.4,528.6,278.4z M542.1,278.4c-1.6,0-3,1.4-3,3s1.4,3,3,3c1.6,0,3-1.4,3-3
			C545.1,279.7,543.7,278.4,542.1,278.4z M555.5,278.4c-1.6,0-3,1.4-3,3s1.4,3,3,3s3-1.4,3-3C558.6,279.7,557.2,278.4,555.5,278.4z
			 M569,278.4c-1.6,0-3,1.4-3,3s1.4,3,3,3c1.6,0,3-1.4,3-3C572,279.7,570.8,278.4,569,278.4z M582.5,278.4c-1.6,0-3,1.4-3,3
			s1.4,3,3,3c1.6,0,3-1.4,3-3C585.5,279.7,584.2,278.4,582.5,278.4z M596.1,278.4c-1.6,0-3,1.4-3,3s1.4,3,3,3c1.6,0,3-1.4,3-3
			C599.1,279.7,597.7,278.4,596.1,278.4z M609.6,278.4c-1.6,0-3,1.4-3,3s1.4,3,3,3c1.6,0,3-1.4,3-3
			C612.6,279.7,611.2,278.4,609.6,278.4z M623,278.4c-1.6,0-3,1.4-3,3s1.4,3,3,3c1.6,0,3-1.4,3-3C626.1,279.7,624.7,278.4,623,278.4
			z M636.5,278.4c-1.6,0-3,1.4-3,3s1.4,3,3,3s3-1.4,3-3C639.5,279.7,638.3,278.4,636.5,278.4z M650.1,278.4c-1.6,0-3,1.4-3,3
			s1.4,3,3,3s3-1.4,3-3C653.1,279.7,651.7,278.4,650.1,278.4z M663.6,278.4c-1.6,0-3,1.4-3,3s1.4,3,3,3c1.6,0,3-1.4,3-3
			C666.6,279.7,665.2,278.4,663.6,278.4z M677,278.4c-1.6,0-3,1.4-3,3s1.4,3,3,3c1.6,0,3-1.4,3-3C680.1,279.7,678.7,278.4,677,278.4
			z M690.5,278.4c-1.6,0-3,1.4-3,3s1.4,3,3,3c1.6,0,3-1.4,3-3C693.5,279.7,692.3,278.4,690.5,278.4z M704,278.4c-1.6,0-3,1.4-3,3
			s1.4,3,3,3c1.6,0,3-1.4,3-3C707.1,279.7,705.7,278.4,704,278.4z M717.6,278.4c-1.6,0-3,1.4-3,3s1.4,3,3,3c1.6,0,3-1.4,3-3
			C720.6,279.7,719.2,278.4,717.6,278.4z M731.1,278.4c-1.6,0-3,1.4-3,3s1.4,3,3,3s3-1.4,3-3C734.1,279.7,732.7,278.4,731.1,278.4z
			 M744.5,278.4c-1.6,0-3,1.4-3,3s1.4,3,3,3s3-1.4,3-3C747.6,279.7,746.2,278.4,744.5,278.4z M279.5,292c-1.6,0-3,1.4-3,3
			c0,1.6,1.4,3,3,3s3-1.4,3-3C282.7,293.4,281.3,292,279.5,292z M293.1,298.2c1.6,0,3-1.4,3-3s-1.4-3-3-3s-3,1.4-3,3
			C290.1,296.8,291.4,298.2,293.1,298.2z M306.6,298.2c1.6,0,3-1.4,3-3s-1.4-3-3-3c-1.6,0-3,1.4-3,3
			C303.6,296.8,304.9,298.2,306.6,298.2z M320.1,298.2c1.6,0,3-1.4,3-3s-1.4-3-3-3s-3,1.4-3,3C317,296.8,318.4,298.2,320.1,298.2z
			 M333.5,298.2c1.6,0,3-1.4,3-3s-1.4-3-3-3s-3,1.4-3,3C330.5,296.8,331.9,298.2,333.5,298.2z M347.1,298.2c1.6,0,3-1.4,3-3
			s-1.4-3-3-3s-3,1.4-3,3C344,296.8,345.4,298.2,347.1,298.2z M360.6,298.2c1.6,0,3-1.4,3-3s-1.4-3-3-3s-3,1.4-3,3
			C357.6,296.8,359,298.2,360.6,298.2z M374.1,298.2c1.6,0,3-1.4,3-3s-1.4-3-3-3s-3,1.4-3,3C371.1,296.8,372.4,298.2,374.1,298.2z
			 M387.6,292c-1.6,0-3,1.4-3,3c0,1.6,1.4,3,3,3s3-1.4,3-3C390.6,293.4,389.2,292,387.6,292z M401,292c-1.6,0-3,1.4-3,3
			c0,1.6,1.4,3,3,3c1.6,0,3-1.4,3-3C404.2,293.4,402.8,292,401,292z M414.6,292c-1.6,0-3,1.4-3,3c0,1.6,1.4,3,3,3c1.6,0,3-1.4,3-3
			C417.6,293.4,416.3,292,414.6,292z M428.1,292c-1.6,0-3,1.4-3,3c0,1.6,1.4,3,3,3s3-1.4,3-3C431.1,293.4,429.7,292,428.1,292z
			 M441.6,292c-1.6,0-3,1.4-3,3c0,1.6,1.4,3,3,3c1.6,0,3-1.4,3-3C444.6,293.4,443.2,292,441.6,292z M455,292c-1.6,0-3,1.4-3,3
			c0,1.6,1.4,3,3,3c1.6,0,3-1.4,3-3C458.2,293.4,456.8,292,455,292z M482.1,292c-1.6,0-3,1.4-3,3c0,1.6,1.4,3,3,3c1.6,0,3-1.4,3-3
			C485.1,293.4,483.7,292,482.1,292z M495.6,292c-1.6,0-3,1.4-3,3c0,1.6,1.4,3,3,3s3-1.4,3-3C498.6,293.4,497.2,292,495.6,292z
			 M509.1,292c-1.6,0-3,1.4-3,3c0,1.6,1.4,3,3,3s3-1.4,3-3C512.1,293.4,510.8,292,509.1,292z M522.5,298.2c1.6,0,3-1.4,3-3
			s-1.4-3-3-3c-1.6,0-3,1.4-3,3C519.5,296.8,520.9,298.2,522.5,298.2z M536.1,298.2c1.6,0,3-1.4,3-3s-1.4-3-3-3s-3,1.4-3,3
			C533.1,296.8,534.5,298.2,536.1,298.2z M549.6,292c-1.6,0-3,1.4-3,3c0,1.6,1.4,3,3,3c1.6,0,3-1.4,3-3
			C552.6,293.4,551.2,292,549.6,292z M563.1,298.2c1.6,0,3-1.4,3-3s-1.4-3-3-3s-3,1.4-3,3C560,296.8,561.4,298.2,563.1,298.2z
			 M576.5,298.2c1.6,0,3-1.4,3-3s-1.4-3-3-3c-1.6,0-3,1.4-3,3C573.5,296.8,574.9,298.2,576.5,298.2z M590.1,298.2c1.6,0,3-1.4,3-3
			s-1.4-3-3-3s-3,1.4-3,3C587.1,296.8,588.4,298.2,590.1,298.2z M603.6,298.2c1.6,0,3-1.4,3-3s-1.4-3-3-3c-1.6,0-3,1.4-3,3
			C600.6,296.8,602,298.2,603.6,298.2z M617.1,298.2c1.6,0,3-1.4,3-3s-1.4-3-3-3c-1.6,0-3,1.4-3,3
			C614.1,296.8,615.4,298.2,617.1,298.2z M630.6,298.2c1.6,0,3-1.4,3-3s-1.4-3-3-3c-1.6,0-3,1.4-3,3
			C627.5,296.8,628.9,298.2,630.6,298.2z M644,298.2c1.6,0,3-1.4,3-3s-1.4-3-3-3c-1.6,0-3,1.4-3,3C641,296.8,642.4,298.2,644,298.2z
			 M657.6,298.2c1.6,0,3-1.4,3-3s-1.4-3-3-3c-1.6,0-3,1.4-3,3C654.6,296.8,656,298.2,657.6,298.2z M671.1,298.2c1.6,0,3-1.4,3-3
			s-1.4-3-3-3s-3,1.4-3,3C668.1,296.8,669.4,298.2,671.1,298.2z M684.6,298.2c1.6,0,3-1.4,3-3s-1.4-3-3-3s-3,1.4-3,3
			C681.5,296.8,682.9,298.2,684.6,298.2z M698,298.2c1.6,0,3-1.4,3-3s-1.4-3-3-3s-3,1.4-3,3C695,296.8,696.4,298.2,698,298.2z
			 M711.6,298.2c1.6,0,3-1.4,3-3s-1.4-3-3-3c-1.6,0-3,1.4-3,3C708.6,296.8,709.9,298.2,711.6,298.2z M725.1,298.2c1.6,0,3-1.4,3-3
			s-1.4-3-3-3c-1.6,0-3,1.4-3,3C722.1,296.8,723.5,298.2,725.1,298.2z M738.6,292c-1.6,0-3,1.4-3,3c0,1.6,1.4,3,3,3c1.6,0,3-1.4,3-3
			C741.6,293.4,740.2,292,738.6,292z M285.5,305.8c-1.6,0-3,1.4-3,3c0,1.6,1.4,3,3,3c1.6,0,3-1.4,3-3
			C288.6,307.2,287.2,305.8,285.5,305.8z M299.1,305.8c-1.6,0-3,1.4-3,3c0,1.6,1.4,3,3,3s3-1.4,3-3
			C302.1,307.2,300.7,305.8,299.1,305.8z M312.5,305.8c-1.6,0-3,1.4-3,3c0,1.6,1.4,3,3,3s3-1.4,3-3
			C315.6,307.2,314.2,305.8,312.5,305.8z M326,305.8c-1.6,0-3,1.4-3,3c0,1.6,1.4,3,3,3s3-1.4,3-3C329,307.2,327.7,305.8,326,305.8z
			 M339.5,305.8c-1.6,0-3,1.4-3,3c0,1.6,1.4,3,3,3s3-1.4,3-3C342.5,307.2,341.2,305.8,339.5,305.8z M353.1,305.8c-1.6,0-3,1.4-3,3
			c0,1.6,1.4,3,3,3s3-1.4,3-3C356.1,307.2,354.7,305.8,353.1,305.8z M366.6,305.8c-1.6,0-3,1.4-3,3c0,1.6,1.4,3,3,3s3-1.4,3-3
			C369.6,307.2,368.2,305.8,366.6,305.8z M380,305.8c-1.6,0-3,1.4-3,3c0,1.6,1.4,3,3,3c1.6,0,3-1.4,3-3
			C383.1,307.2,381.7,305.8,380,305.8z M393.5,305.8c-1.6,0-3,1.4-3,3c0,1.6,1.4,3,3,3s3-1.4,3-3
			C396.5,307.2,395.3,305.8,393.5,305.8z M515,305.8c-1.6,0-3,1.4-3,3c0,1.6,1.4,3,3,3c1.6,0,3-1.4,3-3
			C518,307.2,516.8,305.8,515,305.8z M528.6,305.8c-1.6,0-3,1.4-3,3c0,1.6,1.4,3,3,3c1.6,0,3-1.4,3-3
			C531.6,307.2,530.2,305.8,528.6,305.8z M542.1,305.8c-1.6,0-3,1.4-3,3c0,1.6,1.4,3,3,3c1.6,0,3-1.4,3-3
			C545.1,307.2,543.7,305.8,542.1,305.8z M555.5,305.8c-1.6,0-3,1.4-3,3c0,1.6,1.4,3,3,3s3-1.4,3-3
			C558.6,307.2,557.2,305.8,555.5,305.8z M569,305.8c-1.6,0-3,1.4-3,3c0,1.6,1.4,3,3,3c1.6,0,3-1.4,3-3
			C572,307.2,570.8,305.8,569,305.8z M582.5,305.8c-1.6,0-3,1.4-3,3c0,1.6,1.4,3,3,3c1.6,0,3-1.4,3-3
			C585.5,307.2,584.2,305.8,582.5,305.8z M596.1,305.8c-1.6,0-3,1.4-3,3c0,1.6,1.4,3,3,3c1.6,0,3-1.4,3-3
			C599.1,307.2,597.7,305.8,596.1,305.8z M609.6,305.8c-1.6,0-3,1.4-3,3c0,1.6,1.4,3,3,3c1.6,0,3-1.4,3-3
			C612.6,307.2,611.2,305.8,609.6,305.8z M623,305.8c-1.6,0-3,1.4-3,3c0,1.6,1.4,3,3,3c1.6,0,3-1.4,3-3
			C626.1,307.2,624.7,305.8,623,305.8z M636.5,305.8c-1.6,0-3,1.4-3,3c0,1.6,1.4,3,3,3s3-1.4,3-3
			C639.5,307.2,638.3,305.8,636.5,305.8z M650.1,305.8c-1.6,0-3,1.4-3,3c0,1.6,1.4,3,3,3s3-1.4,3-3
			C653.1,307.2,651.7,305.8,650.1,305.8z M663.6,305.8c-1.6,0-3,1.4-3,3c0,1.6,1.4,3,3,3c1.6,0,3-1.4,3-3
			C666.6,307.2,665.2,305.8,663.6,305.8z M677,305.8c-1.6,0-3,1.4-3,3c0,1.6,1.4,3,3,3c1.6,0,3-1.4,3-3
			C680.1,307.2,678.7,305.8,677,305.8z M690.5,305.8c-1.6,0-3,1.4-3,3c0,1.6,1.4,3,3,3c1.6,0,3-1.4,3-3
			C693.5,307.2,692.3,305.8,690.5,305.8z M704,305.8c-1.6,0-3,1.4-3,3c0,1.6,1.4,3,3,3c1.6,0,3-1.4,3-3
			C707.1,307.2,705.7,305.8,704,305.8z M717.6,305.8c-1.6,0-3,1.4-3,3c0,1.6,1.4,3,3,3c1.6,0,3-1.4,3-3
			C720.6,307.2,719.2,305.8,717.6,305.8z M731.1,305.8c-1.6,0-3,1.4-3,3c0,1.6,1.4,3,3,3s3-1.4,3-3
			C734.1,307.2,732.7,305.8,731.1,305.8z M293.1,325.5c1.6,0,3-1.4,3-3s-1.4-3-3-3s-3,1.4-3,3S291.4,325.5,293.1,325.5z
			 M306.6,325.5c1.6,0,3-1.4,3-3s-1.4-3-3-3c-1.6,0-3,1.4-3,3S304.9,325.5,306.6,325.5z M320.1,319.5c-1.6,0-3,1.4-3,3s1.4,3,3,3
			s3-1.4,3-3S321.7,319.5,320.1,319.5z M333.5,319.5c-1.6,0-3,1.4-3,3s1.4,3,3,3s3-1.4,3-3S335.3,319.5,333.5,319.5z M347.1,319.5
			c-1.6,0-3,1.4-3,3s1.4,3,3,3s3-1.4,3-3S348.8,319.5,347.1,319.5z M360.6,319.5c-1.6,0-3,1.4-3,3s1.4,3,3,3s3-1.4,3-3
			S362.2,319.5,360.6,319.5z M374.1,319.5c-1.6,0-3,1.4-3,3s1.4,3,3,3s3-1.4,3-3S375.7,319.5,374.1,319.5z M522.5,319.5
			c-1.6,0-3,1.4-3,3s1.4,3,3,3c1.6,0,3-1.4,3-3S524.3,319.5,522.5,319.5z M536.1,319.5c-1.6,0-3,1.4-3,3s1.4,3,3,3s3-1.4,3-3
			S537.8,319.5,536.1,319.5z M563.1,319.5c-1.6,0-3,1.4-3,3s1.4,3,3,3s3-1.4,3-3S564.7,319.5,563.1,319.5z M576.5,325.5
			c1.6,0,3-1.4,3-3s-1.4-3-3-3c-1.6,0-3,1.4-3,3S574.9,325.5,576.5,325.5z M590.1,325.5c1.6,0,3-1.4,3-3s-1.4-3-3-3s-3,1.4-3,3
			S588.4,325.5,590.1,325.5z M603.6,325.5c1.6,0,3-1.4,3-3s-1.4-3-3-3c-1.6,0-3,1.4-3,3S602,325.5,603.6,325.5z M617.1,325.5
			c1.6,0,3-1.4,3-3s-1.4-3-3-3c-1.6,0-3,1.4-3,3S615.4,325.5,617.1,325.5z M630.6,325.5c1.6,0,3-1.4,3-3s-1.4-3-3-3
			c-1.6,0-3,1.4-3,3S628.9,325.5,630.6,325.5z M644,325.5c1.6,0,3-1.4,3-3s-1.4-3-3-3c-1.6,0-3,1.4-3,3S642.4,325.5,644,325.5z
			 M657.6,325.5c1.6,0,3-1.4,3-3s-1.4-3-3-3c-1.6,0-3,1.4-3,3S656,325.5,657.6,325.5z M671.1,325.5c1.6,0,3-1.4,3-3s-1.4-3-3-3
			s-3,1.4-3,3S669.4,325.5,671.1,325.5z M684.6,325.5c1.6,0,3-1.4,3-3s-1.4-3-3-3s-3,1.4-3,3S682.9,325.5,684.6,325.5z M698,325.5
			c1.6,0,3-1.4,3-3s-1.4-3-3-3s-3,1.4-3,3S696.4,325.5,698,325.5z M711.6,319.5c-1.6,0-3,1.4-3,3s1.4,3,3,3c1.6,0,3-1.4,3-3
			S713.3,319.5,711.6,319.5z M725.1,319.5c-1.6,0-3,1.4-3,3s1.4,3,3,3c1.6,0,3-1.4,3-3S726.7,319.5,725.1,319.5z M285.5,333.2
			c-1.6,0-3,1.4-3,3s1.4,3,3,3c1.6,0,3-1.4,3-3S287.2,333.2,285.5,333.2z M299.1,333.2c-1.6,0-3,1.4-3,3s1.4,3,3,3s3-1.4,3-3
			S300.7,333.2,299.1,333.2z M312.5,333.2c-1.6,0-3,1.4-3,3s1.4,3,3,3s3-1.4,3-3S314.2,333.2,312.5,333.2z M326,333.2
			c-1.6,0-3,1.4-3,3s1.4,3,3,3s3-1.4,3-3S327.7,333.2,326,333.2z M339.5,333.2c-1.6,0-3,1.4-3,3s1.4,3,3,3s3-1.4,3-3
			S341.2,333.2,339.5,333.2z M569,333.2c-1.6,0-3,1.4-3,3s1.4,3,3,3c1.6,0,3-1.4,3-3S570.8,333.2,569,333.2z M582.5,333.2
			c-1.6,0-3,1.4-3,3s1.4,3,3,3c1.6,0,3-1.4,3-3S584.2,333.2,582.5,333.2z M596.1,333.2c-1.6,0-3,1.4-3,3s1.4,3,3,3c1.6,0,3-1.4,3-3
			S597.7,333.2,596.1,333.2z M609.6,333.2c-1.6,0-3,1.4-3,3s1.4,3,3,3c1.6,0,3-1.4,3-3S611.2,333.2,609.6,333.2z M623,333.2
			c-1.6,0-3,1.4-3,3s1.4,3,3,3c1.6,0,3-1.4,3-3S624.7,333.2,623,333.2z M636.5,333.2c-1.6,0-3,1.4-3,3s1.4,3,3,3s3-1.4,3-3
			S638.3,333.2,636.5,333.2z M650.1,333.2c-1.6,0-3,1.4-3,3s1.4,3,3,3s3-1.4,3-3S651.7,333.2,650.1,333.2z M663.6,333.2
			c-1.6,0-3,1.4-3,3s1.4,3,3,3c1.6,0,3-1.4,3-3S665.2,333.2,663.6,333.2z M677,333.2c-1.6,0-3,1.4-3,3s1.4,3,3,3c1.6,0,3-1.4,3-3
			S678.7,333.2,677,333.2z M690.5,333.2c-1.6,0-3,1.4-3,3s1.4,3,3,3c1.6,0,3-1.4,3-3S692.3,333.2,690.5,333.2z M704,333.2
			c-1.6,0-3,1.4-3,3s1.4,3,3,3c1.6,0,3-1.4,3-3S705.7,333.2,704,333.2z M717.6,333.2c-1.6,0-3,1.4-3,3s1.4,3,3,3c1.6,0,3-1.4,3-3
			S719.2,333.2,717.6,333.2z M293.1,346.9c-1.6,0-3,1.4-3,3c0,1.6,1.4,3,3,3s3-1.4,3-3C296.1,348.3,294.8,346.9,293.1,346.9z
			 M306.6,346.9c-1.6,0-3,1.4-3,3c0,1.6,1.4,3,3,3c1.6,0,3-1.4,3-3C309.6,348.3,308.2,346.9,306.6,346.9z M576.5,346.9
			c-1.6,0-3,1.4-3,3c0,1.6,1.4,3,3,3c1.6,0,3-1.4,3-3C579.5,348.3,578.3,346.9,576.5,346.9z M590.1,352.9c1.6,0,3-1.4,3-3
			c0-1.6-1.4-3-3-3s-3,1.4-3,3C587.1,351.6,588.4,352.9,590.1,352.9z M603.6,352.9c1.6,0,3-1.4,3-3c0-1.6-1.4-3-3-3
			c-1.6,0-3,1.4-3,3C600.6,351.6,602,352.9,603.6,352.9z M617.1,352.9c1.6,0,3-1.4,3-3c0-1.6-1.4-3-3-3c-1.6,0-3,1.4-3,3
			C614.1,351.6,615.4,352.9,617.1,352.9z M630.6,352.9c1.6,0,3-1.4,3-3c0-1.6-1.4-3-3-3c-1.6,0-3,1.4-3,3
			C627.6,351.6,628.9,352.9,630.6,352.9z M644,352.9c1.6,0,3-1.4,3-3c0-1.6-1.4-3-3-3c-1.6,0-3,1.4-3,3
			C641,351.6,642.4,352.9,644,352.9z M657.6,352.9c1.6,0,3-1.4,3-3c0-1.6-1.4-3-3-3c-1.6,0-3,1.4-3,3
			C654.6,351.6,656,352.9,657.6,352.9z M671.1,352.9c1.6,0,3-1.4,3-3c0-1.6-1.4-3-3-3s-3,1.4-3,3
			C668.1,351.6,669.4,352.9,671.1,352.9z M684.6,352.9c1.6,0,3-1.4,3-3c0-1.6-1.4-3-3-3s-3,1.4-3,3
			C681.6,351.6,682.9,352.9,684.6,352.9z M698,346.9c-1.6,0-3,1.4-3,3c0,1.6,1.4,3,3,3s3-1.4,3-3C701,348.3,699.8,346.9,698,346.9z
			 M582.5,360.7c-1.6,0-3,1.4-3,3c0,1.6,1.4,3,3,3c1.6,0,3-1.4,3-3C585.5,362.1,584.2,360.7,582.5,360.7z M596.1,360.7
			c-1.6,0-3,1.4-3,3c0,1.6,1.4,3,3,3c1.6,0,3-1.4,3-3C599.1,362.1,597.7,360.7,596.1,360.7z M609.6,360.7c-1.6,0-3,1.4-3,3
			c0,1.6,1.4,3,3,3c1.6,0,3-1.4,3-3C612.6,362.1,611.2,360.7,609.6,360.7z M623,360.7c-1.6,0-3,1.4-3,3c0,1.6,1.4,3,3,3
			c1.6,0,3-1.4,3-3C626,362.1,624.7,360.7,623,360.7z M636.5,360.7c-1.6,0-3,1.4-3,3c0,1.6,1.4,3,3,3s3-1.4,3-3
			C639.5,362.1,638.3,360.7,636.5,360.7z M650.1,360.7c-1.6,0-3,1.4-3,3c0,1.6,1.4,3,3,3s3-1.4,3-3
			C653.1,362.1,651.7,360.7,650.1,360.7z M663.6,360.7c-1.6,0-3,1.4-3,3c0,1.6,1.4,3,3,3c1.6,0,3-1.4,3-3
			C666.6,362.1,665.2,360.7,663.6,360.7z M677,360.7c-1.6,0-3,1.4-3,3c0,1.6,1.4,3,3,3c1.6,0,3-1.4,3-3
			C680,362.1,678.7,360.7,677,360.7z M690.5,360.7c-1.6,0-3,1.4-3,3c0,1.6,1.4,3,3,3c1.6,0,3-1.4,3-3
			C693.5,362.1,692.3,360.7,690.5,360.7z M590.1,374.5c-1.6,0-3,1.4-3,3c0,1.6,1.4,3,3,3s3-1.4,3-3
			C593.1,375.7,591.8,374.5,590.1,374.5z M603.6,374.5c-1.6,0-3,1.4-3,3c0,1.6,1.4,3,3,3c1.6,0,3-1.4,3-3
			C606.6,375.7,605.2,374.5,603.6,374.5z M617.1,374.5c-1.6,0-3,1.4-3,3c0,1.6,1.4,3,3,3c1.6,0,3-1.4,3-3
			C620.1,375.7,618.7,374.5,617.1,374.5z M630.6,374.5c-1.6,0-3,1.4-3,3c0,1.6,1.4,3,3,3c1.6,0,3-1.4,3-3
			C633.6,375.7,632.3,374.5,630.6,374.5z M644,380.5c1.6,0,3-1.4,3-3c0-1.6-1.4-3-3-3c-1.6,0-3,1.4-3,3
			C641,379.1,642.4,380.5,644,380.5z M657.6,380.5c1.6,0,3-1.4,3-3c0-1.6-1.4-3-3-3c-1.6,0-3,1.4-3,3
			C654.6,379.1,656,380.5,657.6,380.5z M671.1,374.5c-1.6,0-3,1.4-3,3c0,1.6,1.4,3,3,3s3-1.4,3-3
			C674.1,375.7,672.7,374.5,671.1,374.5z M684.6,374.5c-1.6,0-3,1.4-3,3c0,1.6,1.4,3,3,3s3-1.4,3-3
			C687.6,375.7,686.2,374.5,684.6,374.5z M596.1,388.1c-1.6,0-3,1.4-3,3s1.4,3,3,3c1.6,0,3-1.4,3-3
			C599.1,389.5,597.7,388.1,596.1,388.1z M609.6,388.1c-1.6,0-3,1.4-3,3s1.4,3,3,3c1.6,0,3-1.4,3-3
			C612.6,389.5,611.2,388.1,609.6,388.1z M623,388.1c-1.6,0-3,1.4-3,3s1.4,3,3,3c1.6,0,3-1.4,3-3C626.1,389.5,624.7,388.1,623,388.1
			z M636.5,388.1c-1.6,0-3,1.4-3,3s1.4,3,3,3s3-1.4,3-3C639.5,389.5,638.3,388.1,636.5,388.1z M650.1,388.1c-1.6,0-3,1.4-3,3
			s1.4,3,3,3s3-1.4,3-3C653.1,389.5,651.7,388.1,650.1,388.1z M663.6,388.1c-1.6,0-3,1.4-3,3s1.4,3,3,3c1.6,0,3-1.4,3-3
			C666.6,389.5,665.2,388.1,663.6,388.1z M677,388.1c-1.6,0-3,1.4-3,3s1.4,3,3,3c1.6,0,3-1.4,3-3C680.1,389.5,678.7,388.1,677,388.1
			z M644,407.9c1.6,0,3-1.4,3-3c0-1.6-1.4-3-3-3c-1.6,0-3,1.4-3,3C641,406.5,642.4,407.9,644,407.9z M644,456.8c-1.6,0-3,1.4-3,3
			c0,1.6,1.4,3,3,3c1.6,0,3-1.4,3-3C647.1,458.2,645.8,456.8,644,456.8z M657.6,456.8c-1.6,0-3,1.4-3,3c0,1.6,1.4,3,3,3
			c1.6,0,3-1.4,3-3C660.6,458.2,659.3,456.8,657.6,456.8z M650.1,470.5c-1.6,0-3,1.4-3,3s1.4,3,3,3s3-1.4,3-3
			S651.7,470.5,650.1,470.5z"/>
	</g>
</g>
</svg>
