<?xml version="1.0" encoding="utf-8"?>
<!-- Generator: Adobe Illustrator 18.1.1, SVG Export Plug-In . SVG Version: 6.00 Build 0)  -->
<!DOCTYPE svg PUBLIC "-//W3C//DTD SVG 1.1//EN" "http://www.w3.org/Graphics/SVG/1.1/DTD/svg11.dtd">
<svg version="1.1" id="Layer_1" xmlns="http://www.w3.org/2000/svg" xmlns:xlink="http://www.w3.org/1999/xlink" x="0px" y="0px"
	 viewBox="0 0 483.1 452.6" style="enable-background:new 0 0 483.1 452.6;" xml:space="preserve">
<g>
	<path d="M470.7,251l-1-3.1c2-3.8-0.3-5.4-1.7-6.3c-1-0.7-1.7-1.2-2-2.1c12.1-18.6-3.8-38.2-14.4-51.2c-1.1-1.3-2.1-2.5-3-3.7
		c-0.1-1.2,0.2-1.9,0.6-2.8c0.6-1.3,1.3-2.8,0.6-5.5c-0.1-0.3-0.2-0.5-0.4-0.7c-3.8-3.8-7.6-7.3-12.7-6.9c0.9-6.4-1.3-10.6-3.4-14.4
		c-1.9-3.5-3.4-6.3-2-10.4c0.2-0.6,0-1.3-0.5-1.7c-2.8-2-5.8-3.9-8.6-5.8c-6.7-4.4-13.7-8.9-19.1-14.6c-1.5-6-2.3-13-3.2-20.5
		c-1.7-15.4-3.6-31.2-11.8-41.1c-0.3-0.3-0.7-0.5-1.1-0.5c0,0,0,0,0,0c-1.8,0-3.3,0.4-4.6,0.8c-1.3,0.3-2.5,0.7-4.1,0.7
		c-0.3,0-0.7,0-1,0c-1.9-18.9-7.5-34.2-13.5-49.5c-0.2-0.5-0.6-0.8-1-0.9c-0.5-0.1-1,0-1.3,0.4c-4.4,4.2-10.7,13.8-10.5,21.1
		c0.1,2.1,0.7,3.9,1.7,5.3c-6.2,3.8-6.1,12-5.9,20.7c0.1,4.2,0.2,8.6-0.5,12.7c-1.6,9.3-9,25.9-10.6,27.4c-2.5,2.3-4.7,3.4-6.8,3.4
		c-3.4,0-6.5-3.1-9.8-6.4c-3.7-3.8-8-8-13.7-8.4l-4.5-4.5c-0.1-0.1-0.1-0.1-0.2-0.2c-3-2.1-6.2-4-9.3-5.9c-6.9-4.1-13.4-7.9-18-13.8
		c4.8-7.1,5-13.2,4.6-20.1c0.4-0.1,0.9,0.1,1.6,0.3c1,0.3,2.1,0.7,3.6,0.7c0.7,0,1.5-0.1,2.2-0.3c0.5-0.1,0.9-0.5,1.1-1
		c0.4-1.6,1.2-3.2,2-4.7c1.5-2.9,3-5.9,1.9-8.7c-0.7-1.8-2.2-3.2-4.8-4.2c-0.1-0.1-0.3-0.1-0.5-0.1c-3.4-0.2-4,2.6-4.4,4.2
		c-0.4,2-0.7,2-1.3,2c-5.5-4.7-13.2-5.3-20.7-5.9c-5.2-0.4-10.5-0.8-14.9-2.6c-2-0.8-3.3-2.4-4.8-4.1c-2-2.3-4.1-4.8-7.8-4.8
		c-0.6,0-1.2,0.1-1.8,0.2c0,0-0.1,0-0.1,0c-0.1,0-0.4,0.1-0.6,0.1c-0.8,0.1-2.8,0.4-2.9,2.5c0,0.7,0.5,1.3,1.1,1.5
		c2.7,0.6,6.1,2.2,6.2,9.5c-1,0.1-1.9,0.2-2.9,0.3c-2.6,0.3-5.3,0.6-7.8,0.6c-3.5,0-6-0.7-7.9-2c-0.4-0.3-0.8-0.4-1.3-0.2
		c-0.4,0.1-0.8,0.4-1,0.8c-0.8,2-2.7,3.5-4.7,5.2c-3.2,2.6-7,5.7-5.8,11c-5.3,0.4-6.5,4.9-7.6,8.5c-0.6,2.2-1.2,4.3-2.4,5.4
		c-0.4,0.3-0.5,0.8-0.4,1.3c0.1,0.5,0.4,0.9,0.9,1.1l0.4,0.2c2.5,1,4.1,1.6,3.8,4.5c-0.4,0-0.8-0.1-1.2-0.1
		c-0.6-0.1-1.2-0.1-1.8-0.1c-0.9,0-2.2,0.1-3,1.2c-0.1,0.1-0.2,0.3-0.2,0.4l-6.5-3.7c-0.2-0.1-0.3-0.1-0.5-0.2
		c-0.3-0.1-0.7-0.1-1-0.1c-3.2,0-4,2.5-4.6,4.2c0,0.1-0.1,0.3-0.1,0.4c-2.4-8.3-5.7-17.3-13.5-17.3c-1.1,0-2.3,0.2-3.5,0.6
		c-1.2,0.4-1.4,1.7-1.8,3.3c0,0.2-0.1,0.5-0.1,0.7c-3.5,1.5-7.5,3.8-11.3,5.9c-3.2,1.8-6.3,3.6-9.1,4.9c-0.5,0.2-0.8,0.7-0.8,1.3
		c0,0.6,0.3,1.1,0.8,1.3c0.3,0.2,0.7,0.4,1,1.1c-2.1,0-2.6,2.2-3,3.7c-0.6,2.2-0.9,3-1.9,3c-0.4,0-1.1-0.1-2.2-0.6
		c-0.5-0.2-1-0.2-1.4,0.1c-0.4,0.3-0.7,0.7-0.7,1.2v9.4c-4.2-0.2-7.3,0.8-9.4,3.1c-0.3,0.4-0.5,0.9-0.3,1.4c0.2,0.8,0.6,1.7,0.9,2.7
		c1.3,3.4,2,5.7,0.7,7.2c-1.7-2.2-2.9-4.9-3.7-8.1c-0.1-0.4-0.4-0.8-0.8-1c-0.4-0.2-0.8-0.2-1.2,0c-5.9,2.7-10.3,7.1-13,13
		c-0.3,0.6-0.1,1.3,0.4,1.7c1.5,1.3,2.5,3.2,3.1,5.8c-2.6,2.9-4.8,6.4-7.2,10.1c-5.5,8.7-11.1,17.6-22,17.6c-1.5,0-3-0.2-4.6-0.5
		c-0.4-0.1-0.9,0-1.2,0.3c-5.8,5-14.1,10.9-27.4,11.9c-0.3,0-0.7,0.2-0.9,0.4c-2.6,2.5-5.4,4.8-8.2,7c-6.2,5-12.5,10.2-16.6,17.7
		c-0.9-1.8-2.2-3.5-4.5-4.2c-0.4-0.1-0.8-0.1-1.2,0.1c-0.4,0.2-0.6,0.6-0.7,1c-0.9,5.7-0.4,10.5,0,15.1c0.6,5.7,1.1,11.2-1.2,17.8
		c-0.1,0.4-0.1,0.9,0.1,1.3c1.7,2.6,3.7,4.8,5.8,6.9c3.1,3.2,6,6.2,7.4,10.7c-0.5,1.4-1.4,2.4-2.5,3.5c-1.4,1.5-3,3.2-3.5,6
		c-0.1,0.4,0,0.8,0.2,1.1c3.3,4.9,6.5,10,9.7,14.8c3.5,5.5,7.2,11.2,10.9,16.7c-0.4,8.6,3.3,15.6,6.9,22.4c5.1,9.6,9.4,17.9,2,29.2
		c-0.2,0.2-0.2,0.5-0.2,0.8c0,1.5,0.4,2.6,0.8,3.5c0.5,1.1,0.8,1.9,0.4,3.6c-0.1,0.5,0.1,1.1,0.5,1.5c5.4,4.5,12.5,6.8,20.4,6.8
		c13.3,0,26.2-6.7,31.8-16.4c11.7-1.3,24.4-2.8,39.8-4.8c0.6-0.1,1.1-0.6,1.2-1.2c0.5-2.7,1.3-5.2,2.1-7.8c0.5-1.7,1-3.4,1.5-5.1
		c6.5-4.8,15.3-6.1,23.9-7.4c9.6-1.4,19.4-2.9,26-9.4l1.9-1l0.7,0c2,0,4,0.1,6,0.1c6,0,12.1-0.4,16.2-3.3c7,7.3,15.7,9.7,25.8,6.9
		c3.5,1.7,5,5.7,6.6,10c1.4,3.8,2.8,7.7,5.8,10.2c2.2,5.7,3.7,11.1,4.7,16.5c0.1,0.5,0.4,0.9,0.9,1.1c0.5,0.2,1,0.1,1.4-0.2
		c9.8-6.8,17-16.4,23.9-25.7c0.1-0.2,0.3-0.4,0.4-0.5c1.2,5.9-0.9,10.5-3.2,15.3c-1.6,3.3-3.2,6.7-3.8,10.7c-0.1,0.4,0,0.8,0.3,1.1
		c0.2,0.3,0.6,0.5,1,0.6c0.5,0.1,0.9,0.1,1.3,0.1c4.7,0,5.7-3.9,6.5-6.7c0.5-1.7,0.8-3,1.5-3.8c1.9,5.1,1.7,10.7-0.6,15.7
		c-0.2,0.5-0.2,1,0.1,1.5c0.3,0.4,0.8,0.7,1.3,0.6c3.3-0.4,6.3-1.1,9.1-1.7c0.5-0.1,0.9-0.2,1.4-0.3c-0.4,9.8,4.7,29.4,14.3,34.9
		l3.7,2.5c0.2,0.2,0.5,0.2,0.8,0.2c5.4,0.1,9,2.1,12.8,4.1c3.9,2.1,8,4.3,14.2,4.5c0.2,0,0.4,0,0.5-0.1c2.2-0.8,4.1-3,5.9-5.1
		c1-1.2,2.3-2.7,3.3-3.3c0.7,6.4,5.5,8.9,9.7,11c2,1,3.9,2,5.4,3.3c0.3,0.2,0.6,0.4,1,0.4c0,0,0.1,0,0.1,0c0.4,0,0.7-0.2,1-0.5
		c7.5-8.5,16-12.7,25.3-12.7c2.5,0,5,0.3,7.6,0.9c0.7,0.2,1.4-0.2,1.7-0.9l2.5-6.2c0.8-2.2,1.5-4.5,2.2-6.8
		c2.4-8,4.8-15.6,10.7-19.5c0.4-0.3,0.7-0.7,0.7-1.2v-7c2.4-4.4,6.6-7.7,11.1-11.1c4.4-3.4,8.9-6.9,12-11.8
		c2.6-4.1,4.2-9.4,5.8-14.5c1.2-3.9,2.4-7.9,4.1-11.4c1-2.2,2.3-4.3,3.6-6.4C469.5,265.1,473.5,258.6,470.7,251z M463.2,269.9
		c-1.3,2.1-2.6,4.4-3.7,6.6c-1.8,3.7-3,7.8-4.2,11.8c-1.6,5.2-3.1,10-5.5,13.8c-2.8,4.4-7.1,7.8-11.3,11c-4.6,3.6-9.4,7.3-12,12.4
		c-0.1,0.2-0.2,0.4-0.2,0.7v6.6c-6.4,4.5-8.9,12.7-11.3,20.6c-0.7,2.2-1.4,4.5-2.1,6.6l-2,5c-2.4-0.5-4.7-0.7-7-0.7
		c-9.7,0-18.9,4.4-26.6,12.7c-1.5-1.1-3.2-2-4.9-2.8c-4.4-2.2-8.2-4.1-8.2-9.9c0-0.6-0.3-1.1-0.8-1.3c-0.4-0.2-0.9-0.3-1.4-0.3
		c-2.2,0-4.1,2.2-6.1,4.5c-1.4,1.7-3,3.5-4.5,4.2c-5.3-0.2-8.8-2.1-12.6-4.1c-3.8-2.1-7.8-4.2-13.7-4.5l-3.4-2.3
		c-8.9-5.2-14-26-12.8-34.1c0.1-0.5-0.1-1-0.4-1.3c-0.3-0.3-0.8-0.5-1.3-0.4c-1.1,0.2-2.2,0.5-3.4,0.8c-2.1,0.5-4.2,1-6.3,1.3
		c1.9-5.6,1.6-11.8-1-17.2c-0.3-0.6-1-1-1.7-0.8c-3.2,0.9-4,4-4.7,6.5c-0.8,2.9-1.3,4.3-3,4.5c0.7-2.9,1.9-5.5,3.2-8.3
		c2.8-5.8,5.6-11.8,2.6-20.3c-0.2-0.5-0.6-0.9-1.2-0.9c-0.5-0.1-1.1,0.1-1.4,0.6c-0.7,1-1.4,1.9-2.2,2.9
		c-6.4,8.5-12.9,17.2-21.4,23.7c-1-5-2.5-10-4.5-15.2c-0.1-0.2-0.3-0.5-0.5-0.6c-2.6-2-3.8-5.5-5.2-9.2c-1.8-4.8-3.6-9.8-8.6-11.9
		c-0.3-0.1-0.6-0.1-1-0.1c-9.6,2.8-17.8,0.5-24.3-6.9c-0.3-0.3-0.6-0.5-1-0.5c-0.4,0-0.8,0.1-1.1,0.4c-3.3,3-9.6,3.4-15.3,3.4
		c-1.9,0-4-0.1-5.9-0.1l-1,0c-0.2,0-0.5,0-0.7,0.2l-2.5,1.2c-0.1,0.1-0.3,0.2-0.4,0.3c-5.9,5.9-15,7.3-24.6,8.7
		c-9.1,1.4-18.5,2.8-25.6,8.3c-0.3,0.2-0.4,0.5-0.5,0.8c-0.5,1.9-1,3.7-1.6,5.5c-0.7,2.3-1.4,4.6-1.9,7.1c-15.3,2-27.8,3.5-39.4,4.8
		c-0.5,0.1-0.9,0.3-1.1,0.8c-4.7,9-17.1,15.5-29.5,15.5c-6.9,0-13-1.9-17.9-5.6c0.3-2.1-0.3-3.4-0.8-4.5c-0.3-0.6-0.5-1.2-0.6-1.9
		c8-12.5,2.9-22.3-2.1-31.7c-3.5-6.6-7-13.4-6.5-21.4c0-0.3-0.1-0.6-0.2-0.9c-3.8-5.6-7.5-11.4-11.1-17c-3-4.7-6.2-9.6-9.4-14.4
		c0.5-1.7,1.5-2.8,2.7-4c1.2-1.3,2.6-2.8,3.3-5.1c0.1-0.3,0.1-0.6,0-0.8c-1.6-5.4-5-8.9-8.3-12.3c-1.8-1.9-3.6-3.7-5-5.9
		c2.3-6.9,1.7-12.5,1.1-18.4c-0.4-3.8-0.8-7.7-0.4-12.1c0.8,0.8,1.3,1.9,1.9,3.2c0.2,0.4,0.4,0.8,0.6,1.2c0.3,0.5,0.8,0.8,1.3,0.8
		c0.6,0,1.1-0.4,1.3-0.9c3.6-8.4,10.2-13.7,17.1-19.3c2.7-2.2,5.4-4.4,8-6.8c13.4-1.2,22-7,28-12.1c1.5,0.3,3.1,0.4,4.5,0.4
		c12.5,0,18.8-10.1,24.4-19c2.4-3.8,4.7-7.4,7.3-10.2c0.3-0.3,0.5-0.8,0.4-1.2c-0.5-3.1-1.7-5.6-3.4-7.4c2.2-4.3,5.4-7.6,9.6-9.9
		c1.1,3.5,2.7,6.4,4.8,8.7c0.5,0.5,1.2,0.6,1.8,0.3c4.8-2.8,2.8-8,1.5-11.5c-0.2-0.6-0.4-1.1-0.6-1.6c1.8-1.4,4.4-1.9,8-1.4
		c0.4,0.1,0.8-0.1,1.1-0.4c0.3-0.3,0.5-0.7,0.5-1.1v-9c0.5,0.1,0.9,0.2,1.4,0.2c3.5,0,4.3-3.3,4.8-5.2c0.1-0.4,0.3-1.1,0.4-1.4
		c0.2,0.1,0.5,0.3,0.9,0.6c0.4,0.4,1.1,0.5,1.6,0.2c0.5-0.3,0.8-0.8,0.8-1.4c-0.1-1.9-0.6-3.4-1.3-4.4c2.4-1.2,4.9-2.6,7.3-4
		c4-2.3,8-4.6,11.5-6c0.9-0.4,1.1-1.2,1.3-2.6c0.1-0.3,0.2-0.9,0.3-1.2c0.8-0.2,1.5-0.3,2.1-0.3c5.9,0,8.7,8.1,11.5,17.9
		c0.1,0.4,0.4,0.7,0.7,0.9c0.4,0.2,0.8,0.2,1.2,0.1c1.9-0.7,2.5-2.5,3-3.9c0.6-1.8,0.9-2.2,1.8-2.2c0.1,0,0.2,0,0.3,0l8.3,4.8
		c0.5,0.3,1.2,0.2,1.6-0.1c0.5-0.4,0.7-1,0.5-1.6c-0.1-0.3-0.1-0.5-0.1-0.6c0.3-0.1,1.2,0,2.1,0.1c1.1,0.1,2.3,0.2,3.1,0
		c0.5-0.1,1-0.6,1.1-1.1c1.1-5.2-1.5-7.1-4-8.3c0.9-1.5,1.4-3.3,1.9-5.1c1.1-4.1,2-6.4,5.5-6.4c0.4,0,0.8,0,1.2,0.1
		c0.5,0.1,1-0.2,1.3-0.6c0.3-0.4,0.4-1,0.2-1.5c-2-4.4,0.3-6.6,4.2-9.7c1.8-1.4,3.6-2.9,4.8-4.8c2.2,1.2,4.8,1.7,8.2,1.7
		c2.6,0,5.4-0.3,8.1-0.7c1.4-0.2,2.8-0.3,4.1-0.5c0.7-0.1,1.3-0.7,1.3-1.4c0.2-6-1.4-10.1-4.8-12.2c2.2,0,3.5,1.5,5.5,3.8
		c1.5,1.8,3.3,3.8,5.9,4.9c4.8,2,10.4,2.4,15.8,2.8c7.5,0.6,14.6,1.1,19.4,5.5c0.2,0.2,0.5,0.3,0.7,0.4c0.3,0.1,0.6,0.1,0.9,0.1
		c3.1,0,3.7-2.7,4-4.2c0.4-1.8,0.6-2,1.1-2c1.6,0.7,2.6,1.5,2.9,2.5c0.6,1.6-0.6,3.9-1.8,6.4c-0.7,1.4-1.4,2.9-2,4.4
		c-0.2,0-0.5,0-0.7,0c-1,0-1.9-0.3-2.8-0.5c-0.8-0.2-1.5-0.5-2.3-0.5c-1,0-1.9,0.4-2.7,1.2c-0.3,0.3-0.4,0.7-0.4,1.1
		c0.5,7.2,0.4,12.9-4.6,19.9c-0.4,0.5-0.4,1.2,0,1.7c4.9,6.9,12.3,11.2,19.4,15.5c3,1.8,6.2,3.7,9,5.7l4.8,4.8
		c0.3,0.3,0.6,0.4,1,0.4c4.9,0.1,8.7,3.9,12.3,7.6c3.5,3.6,7.2,7.2,11.8,7.2c2.9,0,5.7-1.4,8.8-4.2c2.7-2.5,10-20.3,11.5-29.1
		c0.7-4.3,0.6-8.8,0.6-13.2c-0.2-8.8-0.3-16.3,5.9-18.8c0.5-0.2,0.8-0.6,0.9-1.1c0.1-0.5-0.1-1-0.5-1.3c-1.4-1.1-2.1-2.7-2.1-4.7
		c-0.2-5.4,4.2-12.8,8.1-17.2c5.7,14.8,10.9,29.6,12.6,47.8c0.1,0.7,0.6,1.2,1.2,1.3c0.9,0.2,1.7,0.2,2.6,0.2c1.9,0,3.4-0.4,4.8-0.8
		c1.1-0.3,2.1-0.5,3.2-0.6c7.3,9.2,9,24.3,10.7,39c0.9,7.7,1.7,15,3.3,21.3c0.1,0.2,0.2,0.5,0.4,0.6c5.8,6.1,13,10.8,19.9,15.3
		c2.5,1.7,5.1,3.4,7.7,5.1c-1.2,4.7,0.7,8.2,2.5,11.6c2.1,3.9,4.2,7.9,2.7,14.4c-0.1,0.5,0,1,0.4,1.4c0.4,0.4,0.9,0.5,1.4,0.4
		c4.4-1.1,7.3,0.9,11.8,5.4c0.3,1.5-0.1,2.3-0.5,3.3c-0.5,1.1-1.1,2.5-0.8,4.8c0,0.2,0.1,0.5,0.3,0.7c1,1.3,2.1,2.6,3.3,4.1
		c10.1,12.4,25.4,31.2,13.9,48.2c-0.2,0.3-0.3,0.7-0.2,1c0.3,2.6,2.1,3.8,3.3,4.6c1.5,1,1.7,1.2,0.5,3c-0.2,0.4-0.3,0.8-0.1,1.2
		l1.2,3.7C470.3,258.2,466.8,263.9,463.2,269.9z"/>
	<path d="M391.6,402.4c-0.4-0.2-0.8-0.3-1.2-0.2c-5.6,1.8-10.6,2.6-15.4,2.6c-6.5,0-12.3-1.6-17.8-4.9c-0.5-0.3-1.2-0.3-1.7,0.1
		c-0.5,0.4-0.7,1-0.5,1.6c1.5,4.6,2.5,10,3.4,15.1c1.6,8.9,3.3,18.1,7.8,24.5c0.2,0.3,0.6,0.6,1,0.6c0.4,0,0.7,0.1,1.1,0.1
		c4.6,0,7.4-3.5,9.4-6c1.1-1.4,2.3-2.9,3.1-2.9c0.4,0,1.2,0.3,2.6,2.2c0.3,0.4,0.8,0.6,1.3,0.6c0.5-0.1,0.9-0.4,1.2-0.8
		c3.9-8.4,7.9-17.1,6.3-31.5C392.2,403,392,402.6,391.6,402.4z M384.3,431.6c-1.1-1.1-2.3-1.6-3.4-1.6c-2.3,0-3.8,1.9-5.4,4
		c-1.9,2.4-3.9,4.9-7.1,4.9c0,0-0.1,0-0.1,0c-3.9-5.9-5.4-14.5-6.9-22.8c-0.7-4-1.5-8.2-2.5-12.1c5,2.4,10.4,3.7,16.2,3.7
		c4.6,0,9.4-0.7,14.5-2.3C390.5,416.9,387.5,424.5,384.3,431.6z"/>
</g>
</svg>
