<?xml version="1.0" encoding="utf-8"?>
<!-- Generator: Adobe Illustrator 18.1.1, SVG Export Plug-In . SVG Version: 6.00 Build 0)  -->
<!DOCTYPE svg PUBLIC "-//W3C//DTD SVG 1.1//EN" "http://www.w3.org/Graphics/SVG/1.1/DTD/svg11.dtd">
<svg version="1.1" id="Layer_1" xmlns="http://www.w3.org/2000/svg" xmlns:xlink="http://www.w3.org/1999/xlink" x="0px" y="0px"
	 viewBox="0 0 89.7 86" style="enable-background:new 0 0 89.7 86;" xml:space="preserve">
<g>
	<path d="M56.8,30.4c0,0,0-0.1,0-0.1c0-5.1-4.2-9.3-9.3-9.3c-3.4,0-6.6,1.9-8.2,4.9c-0.8-0.4-1.6-0.7-2.5-0.7c-2.6,0-4.8,2-5.1,4.5
		c-2.6,1-4.4,3.6-4.4,6.4c0,3.8,3.1,6.9,6.9,6.9h21.5c3.5,0,6.4-2.9,6.4-6.4C62.2,33.5,59.9,30.9,56.8,30.4z M55.8,41.1H34.4
		c-2.7,0-4.9-2.2-4.9-4.9c0-2.2,1.5-4.1,3.6-4.7l0.8-0.2l0-0.9c0-1.7,1.4-3.1,3.1-3.1c0.8,0,1.6,0.3,2.2,0.9l1.1,1.1l0.5-1.5
		c1.1-2.9,3.8-4.8,6.8-4.8c4,0,7.3,3.3,7.3,7.3c0,0.3,0,0.6-0.1,0.9l-0.1,1.1h1.1c2.4,0,4.4,2,4.4,4.4
		C60.2,39.1,58.2,41.1,55.8,41.1z"/>
	<circle cx="44.8" cy="63.1" r="3.7"/>
	<path d="M86.8,0h-84C1.3,0,0,1.3,0,2.8v65.7c0,1.6,1.3,2.8,2.8,2.8h31.9v5.3h-8.3c-2.5,0-4.4,2.1-4.4,4.7V86h45.8v-4.7
		c0-2.6-2-4.7-4.4-4.7H55v-5.3h31.9c1.6,0,2.8-1.3,2.8-2.8V2.8C89.7,1.3,88.4,0,86.8,0z M65.7,81.3V84H23.9v-2.7
		c0-1.5,1.1-2.7,2.4-2.7h36.9C64.6,78.7,65.7,79.9,65.7,81.3z M53,76.7H36.7v-5.3H53V76.7z M87.7,68.6c0,0.5-0.4,0.8-0.8,0.8h-84
		C2.4,69.4,2,69,2,68.6V2.8C2,2.4,2.4,2,2.8,2h84c0.5,0,0.8,0.4,0.8,0.8V68.6z"/>
	<path d="M79.5,7.3H10.1c-1.6,0-2.8,1.3-2.8,2.8V54c0,1.6,1.3,2.8,2.8,2.8h69.4c1.6,0,2.8-1.3,2.8-2.8V10.1
		C82.3,8.6,81.1,7.3,79.5,7.3z M80.3,54c0,0.5-0.4,0.8-0.8,0.8H10.1c-0.5,0-0.8-0.4-0.8-0.8V10.1c0-0.5,0.4-0.8,0.8-0.8h69.4
		c0.5,0,0.8,0.4,0.8,0.8V54z"/>
</g>
</svg>
