<?xml version="1.0" encoding="utf-8"?>
<!-- Generator: Adobe Illustrator 18.1.1, SVG Export Plug-In . SVG Version: 6.00 Build 0)  -->
<!DOCTYPE svg PUBLIC "-//W3C//DTD SVG 1.1//EN" "http://www.w3.org/Graphics/SVG/1.1/DTD/svg11.dtd">
<svg version="1.1" id="Layer_1" xmlns="http://www.w3.org/2000/svg" xmlns:xlink="http://www.w3.org/1999/xlink" x="0px" y="0px"
	 viewBox="0 0 44.5 44.5" style="enable-background:new 0 0 44.5 44.5;" xml:space="preserve">
<path d="M42.6,1.9C41.5,0.7,39.9,0,38.2,0H6.3C2.8,0,0,2.8,0,6.3v31.9c0,3.5,2.8,6.3,6.3,6.3h16.1c0.6,0,1-0.4,1-1V28.3
	c0-0.6-0.4-1-1-1h-4.1v-4.6h4.1c0.6,0,1-0.4,1-1v-3.3c0-4.6,3.3-8.1,7.6-8.1h3.7v5.5h-3.2c-1.5,0-2.4,0.9-2.4,2.5v3.5
	c0,0.6,0.4,1,1,1h4.6v4.6h-4.6c-0.6,0-1,0.4-1,1v15.2c0,0.6,0.4,1,1,1h8.1c3.5,0,6.3-2.8,6.3-6.3V6.3C44.5,4.6,43.8,3.1,42.6,1.9z
	 M42.5,38.2c0,2.4-1.9,4.3-4.3,4.3h-7.1V29.3h4.6c0.6,0,1-0.4,1-1v-6.6c0-0.6-0.4-1-1-1h-4.6v-2.5c0-0.3,0.1-0.4,0.1-0.4
	c0,0,0.1-0.1,0.3-0.1h4.2c0.6,0,1-0.4,1-1V9.2c0-0.6-0.4-1-1-1H31c-5.4,0-9.6,4.5-9.6,10.1v2.3h-4.1c-0.6,0-1,0.4-1,1v6.6
	c0,0.6,0.4,1,1,1h4.1v13.2H6.3c-2.4,0-4.3-1.9-4.3-4.3V6.3C2,3.9,3.9,2,6.3,2h31.9c1.1,0,2.2,0.5,3,1.3c0.8,0.8,1.3,1.9,1.3,3V38.2z
	"/>
</svg>
