<?xml version="1.0" encoding="utf-8"?>
<!-- Generator: Adobe Illustrator 18.1.1, SVG Export Plug-In . SVG Version: 6.00 Build 0)  -->
<!DOCTYPE svg PUBLIC "-//W3C//DTD SVG 1.1//EN" "http://www.w3.org/Graphics/SVG/1.1/DTD/svg11.dtd">
<svg version="1.1" id="Layer_1" xmlns="http://www.w3.org/2000/svg" xmlns:xlink="http://www.w3.org/1999/xlink" x="0px" y="0px"
	 viewBox="0 0 58 26.7" style="enable-background:new 0 0 58 26.7;" xml:space="preserve">
<path d="M51.3,15.3c-1.8,0-3.4,1-4.3,2.4L36.3,14c0-0.2,0.1-0.4,0.1-0.7s0-0.4-0.1-0.7l10.8-3.8c0.9,1.5,2.5,2.4,4.3,2.4
	c2.8,0,5-2.2,5-5c0-2.8-2.2-5-5-5c-2.8,0-5,2.2-5,5c0,0.2,0,0.4,0.1,0.7l-10.8,3.8c-0.9-1.5-2.5-2.4-4.3-2.4c-2.4,0-4.4,1.7-4.9,4
	l-14.9,0c-0.1-0.6-0.4-1.2-0.7-1.7C9.9,9.2,8.4,8.3,6.7,8.3c-1,0-1.9,0.3-2.7,0.8c-2.3,1.5-3,4.6-1.5,6.9c0.9,1.4,2.5,2.3,4.2,2.3
	c1,0,1.9-0.3,2.7-0.8c1.1-0.7,1.9-1.8,2.2-3.2c0,0,0,0,0,0l14.9,0c0.5,2.3,2.5,4,4.9,4c1.8,0,3.4-1,4.3-2.4l10.8,3.8
	c0,0.2-0.1,0.4-0.1,0.7c0,2.8,2.2,5,5,5c2.8,0,5-2.2,5-5C56.3,17.6,54.1,15.3,51.3,15.3z M51.3,3.3c1.7,0,3,1.3,3,3s-1.3,3-3,3
	c-1.7,0-3-1.3-3-3S49.7,3.3,51.3,3.3z M8.3,15.8c-0.5,0.3-1.1,0.5-1.6,0.5c-1,0-2-0.5-2.5-1.4c-0.9-1.4-0.5-3.2,0.9-4.2
	c0.5-0.3,1.1-0.5,1.6-0.5c1,0,2,0.5,2.5,1.4C10.1,13.1,9.7,14.9,8.3,15.8z M31.3,16.3c-1.7,0-3-1.3-3-3s1.3-3,3-3c1.7,0,3,1.3,3,3
	S33,16.3,31.3,16.3z M51.3,23.3c-1.7,0-3-1.3-3-3s1.3-3,3-3c1.7,0,3,1.3,3,3S53,23.3,51.3,23.3z"/>
</svg>
