<?xml version="1.0" encoding="utf-8"?>
<!-- Generator: Adobe Illustrator 18.1.1, SVG Export Plug-In . SVG Version: 6.00 Build 0)  -->
<!DOCTYPE svg PUBLIC "-//W3C//DTD SVG 1.1//EN" "http://www.w3.org/Graphics/SVG/1.1/DTD/svg11.dtd">
<svg version="1.1" id="Layer_1" xmlns="http://www.w3.org/2000/svg" xmlns:xlink="http://www.w3.org/1999/xlink" x="0px" y="0px"
	 viewBox="0 0 43.5 40.6" style="enable-background:new 0 0 43.5 40.6;" xml:space="preserve">
<g>
	<path d="M33.1,1c-0.4-0.3-0.9-0.1-1.2,0.2c-0.3,0.4-0.1,0.9,0.2,1.2C37.7,6,41,12,41,18.6c0,6.5-3.3,12.6-8.8,16.1
		c-0.4,0.3-0.5,0.8-0.2,1.2c0.2,0.2,0.4,0.4,0.7,0.4c0.2,0,0.3,0,0.5-0.1c6-3.9,9.5-10.4,9.5-17.5C42.6,11.5,39.1,4.9,33.1,1z"/>
	<path d="M11.3,34.7c-5.5-3.6-8.8-9.6-8.8-16.1C2.5,12,5.8,6,11.3,2.4c0.4-0.3,0.5-0.8,0.2-1.2c-0.3-0.4-0.8-0.5-1.2-0.2
		c-6,3.9-9.5,10.4-9.5,17.5c0,7.1,3.6,13.7,9.5,17.5c0.1,0.1,0.3,0.1,0.5,0.1c0.3,0,0.5-0.1,0.7-0.4C11.8,35.5,11.7,34.9,11.3,34.7z
		"/>
	<path d="M36.8,18.6c0-5.4-3-10.5-7.7-13.1c-0.4-0.2-0.9-0.1-1.1,0.3c-0.2,0.4-0.1,0.9,0.3,1.1c4.2,2.4,6.9,6.8,6.9,11.7
		c0,4.8-2.6,9.3-6.9,11.7c-0.4,0.2-0.5,0.7-0.3,1.1c0.2,0.3,0.4,0.4,0.7,0.4c0.1,0,0.3,0,0.4-0.1C33.8,29,36.8,24,36.8,18.6z"/>
	<path d="M15.2,30.2c-4.2-2.4-6.9-6.8-6.9-11.7c0-4.8,2.6-9.3,6.9-11.7c0.4-0.2,0.5-0.7,0.3-1.1c-0.2-0.4-0.7-0.5-1.1-0.3
		c-4.8,2.7-7.7,7.7-7.7,13.1c0,5.4,3,10.5,7.7,13.1c0.1,0.1,0.3,0.1,0.4,0.1c0.3,0,0.6-0.2,0.7-0.4C15.8,31,15.6,30.5,15.2,30.2z"/>
	<path d="M30.9,18.6c0-3.5-2.1-6.8-5.3-8.3c-0.4-0.2-0.9,0-1.1,0.4c-0.2,0.4,0,0.9,0.4,1.1c2.6,1.2,4.3,3.9,4.3,6.8
		c0,2.9-1.7,5.6-4.3,6.8c-0.4,0.2-0.6,0.7-0.4,1.1c0.1,0.3,0.4,0.5,0.8,0.5c0.1,0,0.2,0,0.4-0.1C28.9,25.4,30.9,22.1,30.9,18.6z"/>
	<path d="M18.6,25.4c-2.6-1.2-4.3-3.9-4.3-6.8c0-2.9,1.7-5.6,4.3-6.8c0.4-0.2,0.6-0.7,0.4-1.1c-0.2-0.4-0.7-0.6-1.1-0.4
		c-3.2,1.5-5.3,4.8-5.3,8.3c0,3.5,2.1,6.8,5.3,8.3c0.1,0.1,0.2,0.1,0.4,0.1c0.3,0,0.6-0.2,0.8-0.5C19.1,26.1,19,25.6,18.6,25.4z"/>
	<path d="M25.1,18.6c0-1.8-1.5-3.3-3.3-3.3c-1.8,0-3.3,1.5-3.3,3.3c0,1.4,0.9,2.6,2.1,3.1v18.9h2.4V21.7
		C24.2,21.2,25.1,20,25.1,18.6z"/>
</g>
</svg>
