<?xml version="1.0" encoding="utf-8"?>
<!-- Generator: Adobe Illustrator 18.1.1, SVG Export Plug-In . SVG Version: 6.00 Build 0)  -->
<!DOCTYPE svg PUBLIC "-//W3C//DTD SVG 1.1//EN" "http://www.w3.org/Graphics/SVG/1.1/DTD/svg11.dtd">
<svg version="1.1" id="Layer_1" xmlns="http://www.w3.org/2000/svg" xmlns:xlink="http://www.w3.org/1999/xlink" x="0px" y="0px"
	 viewBox="0 0 58.7 43.1" style="enable-background:new 0 0 58.7 43.1;" xml:space="preserve">
<g>
	<path d="M54,14.6c-0.6-0.4-1.3-0.5-2-0.1c-0.1,0.1-9.2,5.2-22.7,5.2S6.8,14.6,6.7,14.5c-0.6-0.4-1.4-0.3-2,0.1
		C4.1,15,3.9,15.8,4,16.5c0.1,0.3,5.3,25,25.4,25c20.1,0,25.3-24.8,25.4-25C54.9,15.8,54.6,15,54,14.6z M29.4,37.9
		c-12.7,0-18.6-12.1-20.7-18.4c4.1,1.7,11.4,3.9,20.7,3.9s16.6-2.3,20.7-3.9C47.9,25.7,42.1,37.9,29.4,37.9z"/>
	<path d="M56,5.7c-0.2-0.2-4.4-4.1-10.3-4.1c-5.9,0-10.1,4-10.3,4.1c-0.7,0.7-0.8,1.8-0.1,2.6C36,9,37.1,9,37.9,8.3
		c0,0,3.4-3.1,7.8-3.1c4.4,0,7.8,3.1,7.8,3.1c0.4,0.3,0.8,0.5,1.2,0.5c0.5,0,1-0.2,1.3-0.6C56.8,7.5,56.7,6.4,56,5.7z"/>
	<path d="M13,5.2c4.4,0,7.8,3.1,7.8,3.1c0.3,0.3,0.8,0.5,1.2,0.5c0.5,0,1-0.2,1.3-0.6c0.7-0.7,0.7-1.9-0.1-2.6
		C23.2,5.5,18.9,1.6,13,1.6c-5.9,0-10.1,4-10.3,4.1C2,6.4,2,7.5,2.7,8.3C3.3,9,4.5,9,5.2,8.3C5.2,8.3,8.6,5.2,13,5.2z"/>
</g>
</svg>
