<?xml version="1.0" encoding="utf-8"?>
<!-- Generator: Adobe Illustrator 18.1.1, SVG Export Plug-In . SVG Version: 6.00 Build 0)  -->
<!DOCTYPE svg PUBLIC "-//W3C//DTD SVG 1.1//EN" "http://www.w3.org/Graphics/SVG/1.1/DTD/svg11.dtd">
<svg version="1.1" id="Layer_1" xmlns="http://www.w3.org/2000/svg" xmlns:xlink="http://www.w3.org/1999/xlink" x="0px" y="0px"
	 viewBox="0 0 28.5 51.5" style="enable-background:new 0 0 28.5 51.5;" xml:space="preserve">
<g>
	<path d="M10.9,12.7c3.3,0,6-2.7,6-6c0-3.3-2.7-6-6-6c-3.3,0-6,2.7-6,6C4.9,10.1,7.6,12.7,10.9,12.7z M10.9,2.7c2.2,0,4,1.8,4,4
		s-1.8,4-4,4c-2.2,0-4-1.8-4-4S8.7,2.7,10.9,2.7z"/>
	<path d="M27.5,28c-0.1-0.8-0.7-1.7-1.6-2.5c-0.1-0.1-0.5-0.3-1.4-0.9c-0.9-0.6-2.7-1.7-3.3-2.2c-0.5-1.4-2.3-5.2-2.8-6.2
		c-0.2-0.6-0.9-1.3-1.7-1.8c-0.3-0.2-0.8-0.4-1.2-0.5c0,0-0.1,0-0.1,0c0,0,0,0,0,0c-1-0.2-2.1-0.3-2.4-0.3c-3,0-5,0.2-6,0.6
		c-0.1,0-0.2,0-0.3,0.1c-0.9,0.4-1.7,1.1-2.1,1.9c-0.6,1-3.4,6-3.5,7.7c0,0.7,0.4,1.6,1.3,3.2c0.7,1.2,1.6,2.8,1.6,3.5
		c0,2.5,1.3,3.1,2.4,3.1C6,40.4,5.4,44.4,5.2,46.2c0,0.4-0.1,0.6-0.1,0.8c-0.1,1.1,0.1,2.1,0.7,2.7c0.5,0.6,1.3,0.9,2.2,0.9
		c1.1,0,2.1-0.7,2.6-1.6c0.1,0.3,0.3,0.6,0.5,0.8c0.3,0.4,1,0.9,2,0.9c2.4,0,2.8-1.9,3.1-2.9c0.9-5.8,1.4-14.5,1.6-21.1
		c1.6,1.3,5,3.1,5.1,3.1c0.8,0.4,1.5,0.6,2.2,0.6c0.8,0,1.5-0.3,2.1-1C27.4,29,27.6,28.6,27.5,28z M14.2,47.4
		c-0.3,1.2-0.5,1.3-1.1,1.3c-0.4,0-0.5-0.1-0.5-0.2c-0.2-0.2-0.2-0.6-0.2-1.1c0.6-4.7,0.9-9.5,0.6-14.4c0-0.5-0.5-1-1.1-1
		c-0.5,0-1,0.4-1,0.9c-0.6,7.2-1.9,14.4-1.9,14.4c0,0,0,0.1,0,0.1c0,0.5-0.5,1.1-1,1.1c-0.3,0-0.5-0.1-0.7-0.3
		c-0.2-0.2-0.3-0.7-0.3-1.2c0-0.2,0.1-0.4,0.1-0.8c0.3-1.9,0.9-6.3,1.1-13.7c0.3-0.5,0.6-1.1,0.6-2.1c0-0.6-0.2-1.3-0.5-2
		c0-0.9,0-1.8,0-2.7c0-0.1,0-0.1,0-0.2v-4.6h0c0-0.3-0.1-0.6-0.4-0.8c-0.5-0.3-1.1-0.2-1.4,0.3l-0.5,0.8c-1,1.4-1.3,2-1.4,2.3
		c0,0,0,0.1,0,0.1c-0.2,0.7,0.2,1.6,1,3.5c0.5,1.2,1.2,2.8,1.2,3.5c0,1.1-0.3,1.1-0.5,1.1c-0.3,0-0.5,0-0.5-1.1
		c0-1.3-0.9-2.9-1.8-4.5C3.6,25.4,3,24.3,3,24c0-0.8,1.7-4.2,3.3-6.8c0.1-0.2,0.5-0.7,1.2-1c0.2-0.1,0.3-0.2,0.4-0.3l0,0
		c-0.1,0.2-0.3,0.2-0.3,0.2c0.4-0.2,2.7-0.4,5.4-0.4c0.6,0,1.4,0.1,1.9,0.3c0.2,0,0.3,0.1,0.5,0.2c0.2,0.6,0.5,2.3,0.5,5.3
		C15.9,27.8,15.4,40.1,14.2,47.4z M23.7,28c-0.7-0.4-4.5-2.5-4.9-3c0-0.1-0.2-0.3-0.9-1.6c0-0.7,0-1.4,0-2c0-0.6,0-1.1,0-1.6
		c0.7,1.6,1.4,3.1,1.5,3.5c0.1,0.5,0.1,0.6,4.1,3.1c0.6,0.4,1.2,0.7,1.3,0.8c0.5,0.4,0.8,0.8,0.8,1C25.3,28.4,24.9,28.5,23.7,28z"/>
</g>
</svg>
