<?xml version="1.0" encoding="utf-8"?>
<!-- Generator: Adobe Illustrator 18.1.1, SVG Export Plug-In . SVG Version: 6.00 Build 0)  -->
<!DOCTYPE svg PUBLIC "-//W3C//DTD SVG 1.1//EN" "http://www.w3.org/Graphics/SVG/1.1/DTD/svg11.dtd" [
	<!ENTITY st0 "fill:#010101;">
]>
<svg version="1.1" id="Layer_1" xmlns="http://www.w3.org/2000/svg" xmlns:xlink="http://www.w3.org/1999/xlink" x="0px" y="0px"
	 viewBox="120.9 29.6 258.3 436.8" style="enable-background:new 120.9 29.6 258.3 436.8;" xml:space="preserve">
<g>
	<path style="&st0;" d="M379.1,29.6H120.9v436.8h258.3V29.6z M358.6,445.9h-42.2c2.9-5.3,5.2-11.3,6.7-15.8
		c1.6-4.7,4.7-11.1,6.3-13.4c1.6-1.6,6.3-3.2,10.3-5.5c5.5-2.4,12.6-5.5,19-10.3V445.9z M359.4,49.4v45c-6.3-4.7-13.4-7.9-19-10.3
		c-3.9-1.6-8.7-3.9-10.3-5.5s-3.9-7.9-6.3-13.4c-2.4-3.9-4.7-10.3-7.9-15.8H359.4z M140.6,49.4h22.1c-1.6,2.4-2.4,5.5-3.2,7.9
		c-0.8,3.2-2.4,7.1-3.2,7.9c-0.8,0.8-3.9,2.4-6.3,3.2c-2.4,0.8-5.5,2.4-9.5,4.7V49.4z M158,409.6c-11.8-4.7-17.4-8.7-17.4-18.2
		V104.7c0-10.3,5.5-13.4,17.4-18.2c4.7-2.4,9.5-3.9,12.6-7.1c3.9-3.9,5.5-9.5,7.9-15c3.2-7.9,5.5-15,9.5-15h99.5
		c7.9,0,12.6,10.3,18.2,23.7c3.2,7.9,5.5,15,11.1,19.7c3.9,3.9,9.5,6.3,16.6,9.5c16.6,7.1,26.9,12.6,26.9,30v229.9
		c0,17.4-11.1,22.9-26.9,30c-6.3,3.2-12.6,5.5-16.6,9.5c-4.7,4.7-7.1,11.8-11.1,19.7c-5.5,14.2-9.5,23.7-18.2,23.7H188v1.6
		c-3.9,0-6.3-6.3-9.5-15c-2.4-5.5-3.9-11.1-7.9-15C167.5,413.5,162.7,411.1,158,409.6z M141.4,447.5v-23.3c2.9,1.4,5.8,2.9,8.7,4.3
		c2.4,0.8,5.5,2.4,6.3,3.2c0.8,0.8,2.4,5.5,3.9,7.9c0.8,2.4,1.6,4.7,3.2,7.9H141.4z"/>
	<path style="&st0;" d="M279.6,392.2c0-19-15.8-34.8-34.8-34.8s-34.8,15.8-34.8,34.8s15.8,34.8,34.8,34.8S279.6,411.1,279.6,392.2z
		 M229.9,392.2c0-7.9,6.3-15,15-15c7.9,0,15,6.3,15,15c0,7.9-6.3,15-15,15C237,407.2,229.9,400.1,229.9,392.2z"/>
	<path style="&st0;" d="M279.6,103.9c0-19-15.8-34.8-34.8-34.8s-34.8,15.8-34.8,34.8c0,19,15.8,34.8,34.8,34.8
		S279.6,123.6,279.6,103.9z M229.9,103.9c0-7.9,6.3-15,15-15c7.9,0,15,6.3,15,15c0,7.9-6.3,15-15,15
		C237,118.9,229.9,112.6,229.9,103.9z"/>
	<path style="&st0;" d="M349.1,248.4c0-49-44.2-89.3-99.5-89.3c-55.3,0-99.5,40.3-99.5,89.3s44.2,89.3,99.5,89.3
		S349.1,297.4,349.1,248.4z M170.6,248.4c0-38.7,35.5-69.5,79.8-69.5s79.8,30.8,79.8,69.5s-35.5,69.5-79.8,69.5
		S170.6,286.3,170.6,248.4z"/>
</g>
</svg>
