<?xml version="1.0" encoding="utf-8"?>
<!-- Generator: Adobe Illustrator 18.1.1, SVG Export Plug-In . SVG Version: 6.00 Build 0)  -->
<!DOCTYPE svg PUBLIC "-//W3C//DTD SVG 1.1//EN" "http://www.w3.org/Graphics/SVG/1.1/DTD/svg11.dtd" [
	<!ENTITY st0 "fill:#010101;">
]>
<svg version="1.1" id="Layer_1" xmlns="http://www.w3.org/2000/svg" xmlns:xlink="http://www.w3.org/1999/xlink" x="0px" y="0px"
	 viewBox="31.6 118.9 436.8 258.3" style="enable-background:new 31.6 118.9 436.8 258.3;" xml:space="preserve">
<g>
	<path style="&st0;" d="M31.6,118.9v258.3h436.8V118.9H31.6z M447.9,139.4v42.2c-5.3-2.9-11.3-5.2-15.8-6.7
		c-4.7-1.6-11.1-4.7-13.4-6.3c-1.6-1.6-3.2-6.3-5.5-10.3c-2.4-5.5-5.5-12.6-10.3-19H447.9z M51.3,138.6h45
		c-4.7,6.3-7.9,13.4-10.3,19c-1.6,3.9-3.9,8.7-5.5,10.3s-7.9,3.9-13.4,6.3c-3.9,2.4-10.3,4.7-15.8,7.9V138.6z M51.3,357.4v-22.1
		c2.4,1.6,5.5,2.4,7.9,3.2c3.2,0.8,7.1,2.4,7.9,3.2c0.8,0.8,2.4,3.9,3.2,6.3c0.8,2.4,2.4,5.5,4.7,9.5H51.3z M411.5,340
		c-4.7,11.8-8.7,17.4-18.2,17.4H106.6c-10.3,0-13.4-5.5-18.2-17.4c-2.4-4.7-3.9-9.5-7.1-12.6c-3.9-3.9-9.5-5.5-15-7.9
		c-7.9-3.2-15-5.5-15-9.5v-99.5c0-7.9,10.3-12.6,23.7-18.2c7.9-3.2,15-5.5,19.7-11.1c3.9-3.9,6.3-9.5,9.5-16.6
		c7.1-16.6,12.6-26.9,30-26.9h229.9c17.4,0,22.9,11.1,30,26.9c3.2,6.3,5.5,12.6,9.5,16.6c4.7,4.7,11.8,7.1,19.7,11.1
		c14.2,5.5,23.7,9.5,23.7,18.2V310h1.6c0,3.9-6.3,6.3-15,9.5c-5.5,2.4-11.1,3.9-15,7.9C415.5,330.6,413.1,335.3,411.5,340z
		 M449.4,356.6h-23.3c1.4-2.9,2.9-5.8,4.3-8.7c0.8-2.4,2.4-5.5,3.2-6.3c0.8-0.8,5.5-2.4,7.9-3.9c2.4-0.8,4.7-1.6,7.9-3.2V356.6z"/>
	<path style="&st0;" d="M394.2,218.4c-19,0-34.8,15.8-34.8,34.8s15.8,34.8,34.8,34.8s34.8-15.8,34.8-34.8S413.1,218.4,394.2,218.4z
		 M394.2,268.2c-7.9,0-15-6.3-15-15c0-7.9,6.3-15,15-15c7.9,0,15,6.3,15,15C409.2,261.1,402.1,268.2,394.2,268.2z"/>
	<path style="&st0;" d="M105.8,218.4c-19,0-34.8,15.8-34.8,34.8s15.8,34.8,34.8,34.8c19,0,34.8-15.8,34.8-34.8
		S125.6,218.4,105.8,218.4z M105.8,268.2c-7.9,0-15-6.3-15-15c0-7.9,6.3-15,15-15c7.9,0,15,6.3,15,15
		C120.9,261.1,114.5,268.2,105.8,268.2z"/>
	<path style="&st0;" d="M250.4,148.9c-49,0-89.3,44.2-89.3,99.5c0,55.3,40.3,99.5,89.3,99.5s89.3-44.2,89.3-99.5
		S299.4,148.9,250.4,148.9z M250.4,327.4c-38.7,0-69.5-35.5-69.5-79.8s30.8-79.8,69.5-79.8s69.5,35.5,69.5,79.8
		S288.3,327.4,250.4,327.4z"/>
</g>
</svg>
