<?xml version="1.0" encoding="utf-8"?>
<!-- Generator: Adobe Illustrator 18.1.1, SVG Export Plug-In . SVG Version: 6.00 Build 0)  -->
<!DOCTYPE svg PUBLIC "-//W3C//DTD SVG 1.1//EN" "http://www.w3.org/Graphics/SVG/1.1/DTD/svg11.dtd">
<svg version="1.1" id="Layer_1" xmlns="http://www.w3.org/2000/svg" xmlns:xlink="http://www.w3.org/1999/xlink" x="0px" y="0px"
	 viewBox="0 0 47.1 47.1" style="enable-background:new 0 0 47.1 47.1;" xml:space="preserve">
<g>
	<path d="M41.7,15c0-0.9-0.3-1.6-0.9-2.2l-6.5-6.5c-1.2-1.2-3.3-1.2-4.5,0C29.8,6.4,19,17.1,19,17.1c-0.3,0.3-0.3,0.9,0,1.3l1,1
		c-0.3,0-0.5,0-0.8,0c-1.3,0-2.5,0.4-3.1,1c-0.2,0.2-0.3,0.4-0.3,0.6c0,0.2,0.1,0.5,0.3,0.6l2.5,2.5c-0.3,0.5-0.4,1-0.4,1.5
		c0,0.8,0.3,1.6,0.9,2.3c0.6,0.6,1.4,0.9,2.3,0.9c0.5,0,1.1-0.1,1.5-0.4l2.5,2.5c0.2,0.2,0.4,0.3,0.6,0.3c0.2,0,0.5-0.1,0.6-0.3
		c0.8-0.8,1.2-2.3,1-3.9l1,1c0.2,0.2,0.4,0.3,0.6,0.3s0.5-0.1,0.6-0.3c0,0,10.8-10.8,10.9-10.9C41.4,16.6,41.7,15.9,41.7,15z
		 M20.4,26.7c-0.3-0.3-0.4-0.6-0.4-1c0,0,0-0.1,0-0.1l1.5,1.5C21.1,27.1,20.7,27,20.4,26.7z M25.8,28.9l-7.6-7.6
		c0.3-0.1,0.6-0.1,1-0.1c0.8,0,2.7,0.2,4.6,2.1C25.8,25.3,26.1,27.6,25.8,28.9z M39.5,16c-0.1,0.1-7.9,7.9-10.2,10.2l-8.4-8.4
		C23.2,15.5,31,7.6,31.1,7.5c0.5-0.5,1.4-0.5,2,0l6.5,6.5C40.1,14.6,40.1,15.4,39.5,16z"/>
	<path d="M13.6,44.1C7.7,44.1,3,39.3,3,33.5c0-0.5-0.4-0.9-0.9-0.9c-0.5,0-0.9,0.4-0.9,0.9c0,6.9,5.6,12.5,12.5,12.5
		c0.5,0,0.9-0.4,0.9-0.9C14.5,44.5,14.1,44.1,13.6,44.1z"/>
	<path d="M13.6,37.5c-2.2,0-4.1-1.8-4.1-4.1c0-0.5-0.4-0.9-0.9-0.9c-0.5,0-0.9,0.4-0.9,0.9c0,3.2,2.6,5.9,5.9,5.9
		c0.5,0,0.9-0.4,0.9-0.9C14.5,37.9,14.1,37.5,13.6,37.5z"/>
	<path d="M20.7,13.3l-4.2-4.2l5.8-5.8l4.2,4.2l1.3-1.3L23,1.4c-0.2-0.2-0.4-0.3-0.6-0.3c-0.2,0-0.5,0.1-0.6,0.3l-7.1,7.1
		c-0.2,0.2-0.3,0.4-0.3,0.6s0.1,0.5,0.3,0.6l4.8,4.8L20.7,13.3z"/>
	<path d="M45.7,24.1l-4.8-4.8l-1.3,1.3l4.2,4.2l-5.8,5.8l-4.2-4.2l-1.3,1.3l4.8,4.8c0.2,0.2,0.4,0.3,0.6,0.3c0.2,0,0.5-0.1,0.6-0.3
		l7.1-7.1C46,25,46,24.4,45.7,24.1z"/>
</g>
</svg>
