<?xml version="1.0" encoding="utf-8"?>
<!-- Generator: Adobe Illustrator 18.1.1, SVG Export Plug-In . SVG Version: 6.00 Build 0)  -->
<!DOCTYPE svg PUBLIC "-//W3C//DTD SVG 1.1//EN" "http://www.w3.org/Graphics/SVG/1.1/DTD/svg11.dtd">
<svg version="1.1" id="Layer_1" xmlns="http://www.w3.org/2000/svg" xmlns:xlink="http://www.w3.org/1999/xlink" x="0px" y="0px"
	 viewBox="0 0 57.4 41" style="enable-background:new 0 0 57.4 41;" xml:space="preserve">
<g>
	<path d="M53.3,22.6c-0.8-0.6-1.9-0.4-2.5,0.4C50.7,23.2,42,35,28.7,35c-13.4,0-22-11.8-22.1-11.9c-0.6-0.8-1.7-1-2.5-0.4
		c-0.8,0.6-1,1.7-0.4,2.5c0.4,0.5,9.8,13.5,25.1,13.5c15.3,0,24.7-12.9,25.1-13.5C54.3,24.4,54.1,23.2,53.3,22.6z"/>
	<path d="M43.2,13.2c3,0,5.4-2.4,5.4-5.4c0-3-2.4-5.4-5.4-5.4c-3,0-5.4,2.4-5.4,5.4C37.7,10.8,40.2,13.2,43.2,13.2z"/>
	<path d="M14.2,13.2c3,0,5.4-2.4,5.4-5.4c0-3-2.4-5.4-5.4-5.4c-3,0-5.4,2.4-5.4,5.4C8.7,10.8,11.2,13.2,14.2,13.2z"/>
</g>
</svg>
