<?xml version="1.0" encoding="utf-8"?>
<!-- Generator: Adobe Illustrator 18.0.0, SVG Export Plug-In . SVG Version: 6.00 Build 0)  -->
<!DOCTYPE svg PUBLIC "-//W3C//DTD SVG 1.1//EN" "http://www.w3.org/Graphics/SVG/1.1/DTD/svg11.dtd">
<svg version="1.1" id="Layer_1" xmlns="http://www.w3.org/2000/svg" xmlns:xlink="http://www.w3.org/1999/xlink" x="0px" y="0px"
	 viewBox="0 0 29 49" enable-background="new 0 0 29 49" xml:space="preserve">
<g>
	<polygon points="129,-28.6 108.9,-8.5 88.7,-28.6 86.6,-26.6 108.9,-4.3 131.1,-26.6 	"/>
	<polygon points="23.5,-6.4 25.5,-4.3 45.7,-24.5 65.9,-4.3 68,-6.4 45.7,-28.6 	"/>
	<polygon points="42.3,4.3 62.5,24.5 42.3,44.7 44.4,46.7 66.7,24.5 44.4,2.2 	"/>
	<polygon points="24.6,2.2 2.3,24.5 24.6,46.7 26.7,44.7 6.5,24.5 26.7,4.3 	"/>
</g>
<path d="M49.8,82c-1.4,0-2.7,0.6-3.6,1.5l-7-3.7c0.2-0.6,0.3-1.3,0.3-2c0-2-0.7-3.8-2-5.2l8.3-8.4c1,0.7,2.3,1.1,3.6,1.1
	c3.7,0,6.7-3,6.7-6.7c0-3.7-3-6.7-6.7-6.7c-3.7,0-6.7,3-6.7,6.7c0,1.2,0.3,2.4,0.9,3.4L35,70.9c-1-0.5-2.1-0.8-3.3-0.8
	c-4.3,0-7.8,3.5-7.8,7.8c0,4.3,3.5,7.8,7.8,7.8c2.4,0,4.6-1.1,6-2.8l7.2,3.7c0,0.1,0,0.2,0,0.4c0,2.7,2.2,4.9,4.9,4.9
	s4.9-2.2,4.9-4.9C54.7,84.2,52.5,82,49.8,82z"/>
<g>
	<path fill="#010101" d="M125.8,73.9l-9-24.9h-7L93.3,94.9h8.1l4.1-11.7h16.7L125.8,73.9z M107.9,76.2l1.4-4.1
		c1.1-3.2,2.4-7.2,3.9-12h0.1c1.5,4.8,2.8,8.8,3.9,12l1.4,4.1H107.9z"/>
	<path fill="#010101" d="M130.7,74.8h-3.9l-9.2,23.7h4.5l2.3-6h8.7l2.3,6h4.5L130.7,74.8z M125.8,88.8l0.8-2.1
		c0.6-1.7,1.4-3.7,2.2-6.2h0.1c0.8,2.5,1.5,4.5,2.2,6.2l0.8,2.1H125.8z"/>
</g>
</svg>
