<?xml version="1.0" encoding="utf-8"?>
<!-- Generator: Adobe Illustrator 18.1.1, SVG Export Plug-In . SVG Version: 6.00 Build 0)  -->
<!DOCTYPE svg PUBLIC "-//W3C//DTD SVG 1.1//EN" "http://www.w3.org/Graphics/SVG/1.1/DTD/svg11.dtd">
<svg version="1.1" id="Layer_1" xmlns="http://www.w3.org/2000/svg" xmlns:xlink="http://www.w3.org/1999/xlink" x="0px" y="0px"
	 viewBox="0 0 52.3 44" style="enable-background:new 0 0 52.3 44;" xml:space="preserve">
<g>
	<path d="M43.2,20V6c0-0.6-0.4-1-1-1h-32c-0.6,0-1,0.4-1,1v8h2V7h30v13H43.2z"/>
	<path d="M7.2,5c0-1.1,0.9-2,2-2h34c1.1,0,2,0.9,2,2v15h2V5c0-2.2-1.8-4-4-4h-34c-2.2,0-4,1.8-4,4v9h2V5z"/>
	<path d="M49.2,21h-11c-1.1,0-2,0.9-2,2v18c0,1.1,0.9,2,2,2h11c1.1,0,2-0.9,2-2V23C51.2,21.9,50.3,21,49.2,21z M38.2,41V23h11l0,18
		H38.2z"/>
	<path d="M47.2,24h-7c-0.6,0-1,0.4-1,1v12c0,0.6,0.4,1,1,1h7c0.6,0,1-0.4,1-1V25C48.2,24.4,47.7,24,47.2,24z M46.2,36h-5V26h5V36z"
		/>
	<circle cx="43.7" cy="39.5" r="1"/>
	<path d="M22.2,15h-19c-1.1,0-2,0.9-2,2v24c0,1.1,0.9,2,2,2h19c1.1,0,2-0.9,2-2V17C24.2,15.9,23.3,15,22.2,15z M3.2,41V17h19l0,24
		H3.2z"/>
	<path d="M20.2,18h-15c-0.6,0-1,0.4-1,1v18c0,0.6,0.4,1,1,1h15c0.6,0,1-0.4,1-1V19C21.2,18.4,20.7,18,20.2,18z M19.2,36h-13V20h13
		V36z"/>
	<circle cx="12.7" cy="39.5" r="1"/>
	<rect x="25.2" y="29" width="10" height="2"/>
	<rect x="25.2" y="38" width="10" height="2"/>
	<polygon points="30.2,32 30.2,34 30.2,35 30.2,37 32.2,37 35.2,37 35.2,35 32.2,35 32.2,34 35.2,34 35.2,32 32.2,32 	"/>
</g>
</svg>
