<?xml version="1.0" encoding="utf-8"?>
<!-- Generator: Adobe Illustrator 18.1.1, SVG Export Plug-In . SVG Version: 6.00 Build 0)  -->
<!DOCTYPE svg PUBLIC "-//W3C//DTD SVG 1.1//EN" "http://www.w3.org/Graphics/SVG/1.1/DTD/svg11.dtd">
<svg version="1.1" id="Layer_1" xmlns="http://www.w3.org/2000/svg" xmlns:xlink="http://www.w3.org/1999/xlink" x="0px" y="0px"
	 viewBox="0 0 26.4 19" style="enable-background:new 0 0 26.4 19;" xml:space="preserve">
<g>
	<path d="M26.4,16.1V2.9c-1.6,1.4-5.4,4.7-8,7L26.4,16.1z"/>
	<path d="M0,0v1.5c1.6,1.4,10.7,9.3,11.5,10c0.7,0.6,1.5,0.7,1.8,0.7c0.3,0,1-0.1,1.8-0.7c0.7-0.7,10.4-9.1,11.5-10V0H0z"/>
	<path d="M15.7,12.2c-1,0.9-2.1,1-2.5,1c-0.4,0-1.4-0.1-2.5-1c-0.2-0.2-0.9-0.8-2-1.7l-8.8,7V19h26.4v-1.6l-8.8-6.9
		C16.6,11.4,15.9,12.1,15.7,12.2z"/>
	<path d="M0,2.9v13.3l8-6.3C5.4,7.6,1.7,4.4,0,2.9z"/>
</g>
</svg>
