<?xml version="1.0" encoding="utf-8"?>
<!-- Generator: Adobe Illustrator 18.0.0, SVG Export Plug-In . SVG Version: 6.00 Build 0)  -->
<!DOCTYPE svg PUBLIC "-//W3C//DTD SVG 1.1//EN" "http://www.w3.org/Graphics/SVG/1.1/DTD/svg11.dtd">
<svg version="1.1" xmlns="http://www.w3.org/2000/svg" xmlns:xlink="http://www.w3.org/1999/xlink" x="0px" y="0px"
	 viewBox="1.1 0 28.3 27.3" enable-background="new 1.1 0 28.3 27.3" xml:space="preserve">
<g id="Layer_1">
	<g>
		<g>
			<path fill="#B9282B" d="M2.7,27.1c-0.7,0-1-0.4-1.2-0.7c-0.2-0.4-0.3-1-0.1-1.6c0.2-0.7,0.6-1.4,1.3-2.1c0.9-0.9,2.2-1.7,3.7-2.5
				C7.1,19.9,8,19.5,9,19.1c1.6-2.5,3-5.2,3.9-7.5c0.1-0.4,0.3-0.7,0.4-1.1c-0.4-0.9-0.6-1.6-0.8-2.2c-0.3-1.1-0.5-2.1-0.6-2.9
				c-0.1-0.8-0.1-1.6,0-2.4c0.1-0.8,0.3-1.3,0.5-1.7c0.3-0.4,0.6-0.7,1.1-0.8c0.2-0.1,0.4-0.1,0.6-0.1c0.4-0.1,0.6-0.1,0.8,0
				c0.2,0.1,0.5,0.2,0.7,0.3c1,0.5,0.9,1.3,0.8,2.6l-0.1,0.6c-0.2,1.5-0.6,4-1.5,6.6c0.1,0.1,0.1,0.3,0.2,0.4
				c0.6,1.2,1.5,2.5,2.6,3.8c0.5,0.6,1.1,1.3,1.7,2c1-0.1,1.9-0.1,2.9,0c0.9,0.1,1.9,0.2,2.8,0.4c1,0.2,1.7,0.5,2.3,0.9
				c0.8,0.5,1.3,1.1,1.6,1.8c0.3,0.7,0.4,1.6,0,2.3c-0.3,0.6-0.8,1-1.6,1.3c-0.7,0.2-1.4,0.2-2.1,0c-0.7-0.2-1.5-0.6-2.4-1.3
				c-0.9-0.6-1.8-1.4-2.8-2.4c-0.4-0.4-0.8-0.8-1.3-1.3c-0.7,0.1-1.4,0.2-2.4,0.4c-1.1,0.2-2.4,0.5-4.1,1c-0.8,0.2-1.5,0.5-2.3,0.7
				c-0.1,0.2-0.2,0.3-0.3,0.4c-1.4,2.1-2.8,3.8-4,4.8c-0.9,0.8-1.7,1.2-2.6,1.3C2.9,27,2.8,27.1,2.7,27.1z M7.3,21.5
				c-0.1,0-0.2,0.1-0.3,0.2c-1.8,0.9-2.8,1.7-3.3,2.2c-0.6,0.6-0.8,1-0.8,1.3c0,0.1,0,0.3,0,0.4c0.2,0,0.8-0.2,1.8-1
				C5.2,24,6.2,23.1,7.3,21.5z M20.9,18.2c0.1,0.1,0.2,0.2,0.3,0.3c1,1,1.8,1.6,2.6,2.2c0.8,0.5,1.4,0.9,2,1.1
				c0.4,0.1,0.8,0.1,1.2,0c0.2-0.1,0.5-0.2,0.6-0.4c0.1-0.2,0.1-0.6,0-1c-0.2-0.4-0.5-0.8-1-1.1c-0.5-0.3-1-0.5-1.8-0.7
				c-0.8-0.2-1.7-0.3-2.5-0.4C21.7,18.3,21.3,18.2,20.9,18.2z M14.2,12.4c-0.9,2.2-2,4.3-2.9,5.9c0.2-0.1,0.4-0.1,0.5-0.2
				c1.7-0.5,3.1-0.8,4.3-1c0.5-0.1,1-0.2,1.5-0.2c-0.4-0.4-0.7-0.9-1.1-1.3C15.6,14.5,14.8,13.4,14.2,12.4z M14.5,1.8
				c0,0-0.1,0-0.1,0l-0.1,0c-0.1,0-0.1,0-0.2,0C14,2,13.9,2.1,13.8,2.2c-0.1,0.2-0.2,0.5-0.3,1c-0.1,0.7-0.1,1.4,0,2.1
				C13.5,6,13.7,6.9,14,7.9c0,0,0,0,0,0c0.4-1.7,0.7-3.3,0.8-4.3L14.9,3c0-0.4,0.1-0.8,0.1-1c0,0,0,0,0,0L14.9,2
				C14.8,2,14.6,1.9,14.5,1.8z"/>
		</g>
	</g>
</g>
<g id="Layer_2">
</g>
</svg>
