<?xml version="1.0" encoding="utf-8"?>
<!-- Generator: Adobe Illustrator 18.1.1, SVG Export Plug-In . SVG Version: 6.00 Build 0)  -->
<!DOCTYPE svg PUBLIC "-//W3C//DTD SVG 1.1//EN" "http://www.w3.org/Graphics/SVG/1.1/DTD/svg11.dtd">
<svg version="1.1" id="Layer_1" xmlns="http://www.w3.org/2000/svg" xmlns:xlink="http://www.w3.org/1999/xlink" x="0px" y="0px"
	 viewBox="0 0 52.3 52.3" style="enable-background:new 0 0 52.3 52.3;" xml:space="preserve">
<g>
	<path d="M44.1,9.1C44.1,9.1,44.1,9.1,44.1,9.1S44.1,9.1,44.1,9.1c-4.5-5-10.9-7.8-18-7.8c-13.8,0-25,11.1-25,24.9s11.2,25,25,25
		s25-11.2,25-25C51.1,19.4,48.4,13.6,44.1,9.1z M48.1,32.1c0,0.1,0,0.3,0.1,0.4c-1,3.4-2.8,6.6-5.1,9.1l-9.9-9.9
		c0.4-0.5,0.7-1,1-1.6c0.5,0,0.9-0.5,0.9-1c0-0.3-0.1-0.5-0.3-0.7c0.2-0.7,0.3-1.5,0.3-2.3s-0.1-1.6-0.3-2.3
		c0.2-0.2,0.3-0.4,0.3-0.7c0-0.5-0.4-1-0.9-1c-0.3-0.5-0.6-1-0.9-1.5l10.1-9.7c2.2,2.5,3.9,5.5,4.8,8.8c-0.1,0.1-0.1,0.3-0.1,0.4
		c0,0.3,0.2,0.6,0.4,0.8c0.3,1.4,0.5,2.8,0.6,4.2c-0.5,0-1,0.5-1,1s0.4,1,1,1c-0.1,1.4-0.3,2.9-0.6,4.2
		C48.3,31.5,48.1,31.8,48.1,32.1z M34.3,4.6l-7.2,7.2V8.7c0,0,0,0,0.1,0l4.7-4.7C32.8,4.1,33.5,4.3,34.3,4.6z M38.3,6.6L27.7,17.3
		c-0.2,0-0.4-0.1-0.6-0.1v-2.5l9.2-9.2C37,5.8,37.7,6.2,38.3,6.6z M42,9.5l-10.1,9.7c-0.6-0.5-1.3-0.9-2-1.3L40,7.8
		C40.7,8.3,41.4,8.9,42,9.5z M27.1,5.8V3.2c0.8,0,1.7,0.1,2.5,0.2L27.1,5.8z M26.1,19.1c3.9,0,7,3.1,7,7c0,3.9-3.1,7-7,7
		c-3.9,0-7-3.1-7-7C19.1,22.3,22.3,19.1,26.1,19.1z M3.1,26.1c0-12.3,9.8-22.4,22-23v14c-4.5,0.5-8,4.3-8,8.9c0,5,4,9,9,9
		c2.1,0,4.1-0.7,5.6-2l9.9,9.9c-4.1,3.8-9.5,6.1-15.5,6.1C13.4,49.1,3.1,38.8,3.1,26.1z"/>
	<circle cx="46.1" cy="35.1" r="1"/>
	<circle cx="46.1" cy="29.1" r="1"/>
	<circle cx="46.1" cy="23.1" r="1"/>
	<circle cx="46.1" cy="17.1" r="1"/>
	<circle cx="43.1" cy="38.1" r="1"/>
	<circle cx="43.1" cy="32.1" r="1"/>
	<circle cx="43.1" cy="26.1" r="1"/>
	<circle cx="43.1" cy="20.1" r="1"/>
	<circle cx="37.1" cy="26.1" r="1"/>
	<circle cx="37.1" cy="20.1" r="1"/>
	<circle cx="43.1" cy="14.1" r="1"/>
	<circle cx="40.1" cy="35.1" r="1"/>
	<circle cx="40.1" cy="29.1" r="1"/>
	<circle cx="40.1" cy="23.1" r="1"/>
	<circle cx="40.1" cy="17.1" r="1"/>
	<circle cx="37.1" cy="32.1" r="1"/>
</g>
</svg>
