<?xml version="1.0" encoding="utf-8"?>
<!-- Generator: Adobe Illustrator 18.1.1, SVG Export Plug-In . SVG Version: 6.00 Build 0)  -->
<!DOCTYPE svg PUBLIC "-//W3C//DTD SVG 1.1//EN" "http://www.w3.org/Graphics/SVG/1.1/DTD/svg11.dtd">
<svg version="1.1" id="Layer_1" xmlns="http://www.w3.org/2000/svg" xmlns:xlink="http://www.w3.org/1999/xlink" x="0px" y="0px"
	 viewBox="0 0 52.5 52.5" style="enable-background:new 0 0 52.5 52.5;" xml:space="preserve">
<g>
	<path d="M51.3,39.3v-34h-24v-3c0-0.6-0.4-1-1-1s-1,0.4-1,1v3h-24v34h24v1.6l-8.7,8.7c-0.4,0.4-0.4,1,0,1.4c0.2,0.2,0.5,0.3,0.7,0.3
		s0.5-0.1,0.7-0.3l7.3-7.3v2.6c0,0.6,0.4,1,1,1s1-0.4,1-1v-2.6l7.3,7.3c0.2,0.2,0.5,0.3,0.7,0.3s0.5-0.1,0.7-0.3
		c0.4-0.4,0.4-1,0-1.4l-8.7-8.7v-1.6H51.3z M3.3,7.3h46v30h-46V7.3z"/>
	<path d="M18.3,21.3c0.3,0,0.6-0.1,0.8-0.2l8.2,6c0,0.1,0,0.1,0,0.2c0,1.1,0.9,2,2,2s2-0.9,2-2c0-0.1,0-0.2,0-0.3l10.3-7.9
		c0.2,0.1,0.5,0.2,0.8,0.2c1.1,0,2-0.9,2-2s-0.9-2-2-2s-2,0.9-2,2c0,0.1,0,0.2,0,0.3L30,25.4c-0.2-0.1-0.5-0.2-0.8-0.2
		c-0.3,0-0.6,0.1-0.8,0.2l-8.2-6c0-0.1,0-0.1,0-0.2c0-1.1-0.9-2-2-2s-2,0.9-2,2c0,0.1,0,0.2,0,0.2L11,23.4c-0.2-0.1-0.5-0.2-0.8-0.2
		c-1.1,0-2,0.9-2,2s0.9,2,2,2s2-0.9,2-2c0-0.1,0-0.2,0-0.2l5.2-3.9C17.7,21.2,18,21.3,18.3,21.3z"/>
</g>
</svg>
