<?xml version="1.0" encoding="utf-8"?>
<!-- Generator: Adobe Illustrator 18.1.1, SVG Export Plug-In . SVG Version: 6.00 Build 0)  -->
<!DOCTYPE svg PUBLIC "-//W3C//DTD SVG 1.1//EN" "http://www.w3.org/Graphics/SVG/1.1/DTD/svg11.dtd">
<svg version="1.1" id="Layer_1" xmlns="http://www.w3.org/2000/svg" xmlns:xlink="http://www.w3.org/1999/xlink" x="0px" y="0px"
	 viewBox="0 0 54.5 54.5" style="enable-background:new 0 0 54.5 54.5;" xml:space="preserve">
<g>
	<path d="M27.3,52.3c-13.8,0-25-11.2-25-25s11.2-25,25-25s25,11.2,25,25S41,52.3,27.3,52.3z M27.3,4.3c-12.7,0-23,10.3-23,23
		c0,12.7,10.3,23,23,23c12.7,0,23-10.3,23-23C50.3,14.6,39.9,4.3,27.3,4.3z"/>
</g>
<g>
	<g>
		<path d="M25.8,32.7v-1.5c0-1.4,0.3-2.2,1.1-3.2l2.4-3.3c1.3-1.7,1.7-2.5,1.7-3.8c0-2-1.4-3.3-3.5-3.3c-2,0-3.3,1.2-3.7,3.4
			c0,0.2-0.2,0.3-0.4,0.3l-2.3-0.4c-0.2,0-0.3-0.2-0.3-0.4c0.5-3.4,3-5.7,6.7-5.7c3.9,0,6.5,2.5,6.5,6.1c0,1.7-0.6,3-1.8,4.7
			l-2.4,3.3c-0.7,1-0.9,1.5-0.9,2.7v1.1c0,0.2-0.1,0.4-0.4,0.4h-2.4C25.9,33,25.8,32.9,25.8,32.7z M25.6,36.1c0-0.2,0.1-0.4,0.4-0.4
			h2.7c0.2,0,0.4,0.1,0.4,0.4v3.1c0,0.2-0.1,0.4-0.4,0.4H26c-0.2,0-0.4-0.1-0.4-0.4V36.1z"/>
	</g>
</g>
</svg>
