<?xml version="1.0" encoding="utf-8"?>
<!-- Generator: Adobe Illustrator 18.1.1, SVG Export Plug-In . SVG Version: 6.00 Build 0)  -->
<!DOCTYPE svg PUBLIC "-//W3C//DTD SVG 1.1//EN" "http://www.w3.org/Graphics/SVG/1.1/DTD/svg11.dtd">
<svg version="1.1" id="Layer_1" xmlns="http://www.w3.org/2000/svg" xmlns:xlink="http://www.w3.org/1999/xlink" x="0px" y="0px"
	 viewBox="0 0 55.3 55.3" style="enable-background:new 0 0 55.3 55.3;" xml:space="preserve">
<g>
	<path d="M52.5,43.1c-0.3-0.3-6.2-8.4-13.8-8.4s-13.6,8.1-13.8,8.4c-0.3,0.4-0.3,0.8,0,1.2c0.3,0.3,6.2,8.4,13.8,8.4
		s13.6-8.1,13.8-8.4C52.7,43.9,52.7,43.4,52.5,43.1z M38.7,50.7c-5.5,0-10.3-5.2-11.7-7c1.5-1.8,6.2-7,11.7-7c5.5,0,10.3,5.2,11.7,7
		C48.9,45.5,44.2,50.7,38.7,50.7z"/>
	<path d="M21.7,41.7h-17v-30h40v22c0,0.6,0.4,1,1,1s1-0.4,1-1v-22v-1V5.5c0-1.6-1.3-2.8-2.8-2.8H5.5c-1.6,0-2.8,1.3-2.8,2.8v5.2v1
		v31c0,0.6,0.4,1,1,1h18c0.6,0,1-0.4,1-1S22.2,41.7,21.7,41.7z M4.7,5.5C4.7,5,5,4.7,5.5,4.7h38.3c0.5,0,0.8,0.4,0.8,0.8v4.2h-40
		V5.5z"/>
	<rect x="16.7" y="17.7" width="23" height="2"/>
	<rect x="9.7" y="17.7" width="4" height="2"/>
	<rect x="16.7" y="22.7" width="23" height="2"/>
	<rect x="9.7" y="22.7" width="4" height="2"/>
	<rect x="16.7" y="27.7" width="23" height="2"/>
	<rect x="9.7" y="27.7" width="4" height="2"/>
	<rect x="16.7" y="32.7" width="15" height="2"/>
	<rect x="9.7" y="32.7" width="4" height="2"/>
	<path d="M38.7,37.7c-3.3,0-6,2.7-6,6s2.7,6,6,6s6-2.7,6-6S42,37.7,38.7,37.7z M38.7,47.7c-2.2,0-4-1.8-4-4s1.8-4,4-4s4,1.8,4,4
		S40.9,47.7,38.7,47.7z"/>
	<circle cx="38.7" cy="43.7" r="2"/>
</g>
</svg>
