<?xml version="1.0" encoding="utf-8"?>
<!-- Generator: Adobe Illustrator 18.1.1, SVG Export Plug-In . SVG Version: 6.00 Build 0)  -->
<!DOCTYPE svg PUBLIC "-//W3C//DTD SVG 1.1//EN" "http://www.w3.org/Graphics/SVG/1.1/DTD/svg11.dtd">
<svg version="1.1" id="Layer_1" xmlns="http://www.w3.org/2000/svg" xmlns:xlink="http://www.w3.org/1999/xlink" x="0px" y="0px"
	 viewBox="0 0 52.6 44.7" style="enable-background:new 0 0 52.6 44.7;" xml:space="preserve">
<g>
	<path d="M14.8,43.6c-1.6,0-7.7-4.7-9.8-10.4c-2.9-7.8-3.3-13.7-3.5-17.3L1.4,15C1.1,10,2,7,4.4,4.6C5.8,3.2,7.8,1.5,10,1.2
		c2.2-0.3,3.4,0.7,4.5,1.6c0.2,0.2,0.5,0.4,0.7,0.5c1.5,1.1,2.2,1.7,2.7,3.2C18,7.1,18,8,17.6,8.6c-0.1,0.1-0.2,0.2-0.3,0.3
		C17.2,9.3,17,9.7,16.8,10c-0.3,0.3-0.6,0.6-1,0.7c-0.1,0.2-0.2,0.3-0.3,0.5c-0.3,0.4-0.8,0.7-1.3,0.9c0,0.1-0.1,0.1-0.1,0.2
		c-0.6,0.8-1.8,0.8-2.2,0.8c-0.4,0-0.9,0-1.4-0.2l0,0c-0.2-0.1-0.5-0.2-0.7-0.4c-0.1,0-0.2,0.1-0.3,0.1c0,0.1,0.1,0.2,0.1,0.3
		c0.5,1.3,1.6,4.5,4,6.7c2.2,2,3.4,4,4.3,5.8c1.6-5.2,5.5-7.6,11.6-7.2c-0.1-1.6,0.4-3.4,1.5-5c1.2-1.8,4.2-4.8,10.6-4.8
		c7.1,0,9.6,6.3,9.6,11.6c0,7.1-5.9,9.2-7.9,9.7c-0.9,2.7-5.5,13.7-16.4,13.7c-2.8,0-4.9-0.3-6.3-0.5c-0.7-0.1-1.3-0.2-1.8-0.2
		l-0.2,0c-0.7,0-1.5,0.2-2.2,0.4C15.8,43.4,15.3,43.6,14.8,43.6z M10.7,3.2c-0.2,0-0.3,0-0.5,0C8.7,3.4,7,4.8,5.8,6.1
		c-2,1.9-2.6,4.5-2.4,8.8l0.1,0.8c0.2,3.4,0.6,9.2,3.4,16.7c1.8,4.9,6.9,8.8,8,9.1c0.2,0,0.7-0.1,1.1-0.2c0.8-0.2,1.9-0.5,3-0.5
		c0.6,0,1.2,0.1,1.9,0.2c1.4,0.2,3.3,0.5,6,0.5c10.9,0,14.7-12.7,14.7-12.8c0.1-0.4,0.4-0.7,0.8-0.7c0.3,0,6.8-1.1,6.8-7.9
		c0-2.3-0.5-9.6-7.6-9.6c-5.5,0-8,2.4-9,3.9c-1.1,1.5-1.4,3.3-0.9,4.6c0.1,0.3,0.1,0.7-0.2,1c-0.2,0.3-0.6,0.4-0.9,0.4
		c-0.9-0.1-1.7-0.2-2.5-0.2c-7,0-8.5,4.9-8.9,8.5c-0.1,0.5-0.4,0.8-0.9,0.9c-0.4,0.1-0.9-0.2-1.1-0.6c-0.9-2.3-2-5.1-5.1-8
		c-2.7-2.6-4-6-4.5-7.5l-0.1-0.4c-0.1-0.2-0.3-0.8,0-1.5c0.3-0.6,0.8-0.8,1.2-0.9c0.3-0.1,0.5-0.2,0.6-0.3c0.3-0.5,0.9-0.6,1.4-0.3
		c0.3,0.2,0.5,0.5,0.5,0.8c0.3,0.1,0.9,0.1,1.3,0c0-0.2,0.1-0.5,0.3-0.6c0.3-0.2,0.6-0.3,1-0.2c0,0,0.2-0.1,0.2-0.2
		c-0.1-0.3,0-0.7,0.3-0.9c0.2-0.2,0.6-0.3,0.9-0.2c0,0,0.1-0.3,0.1-0.4c-0.1-0.3,0-0.6,0.2-0.8c0.1-0.2,0.3-0.3,0.5-0.3
		c0-0.1,0-0.2,0-0.2c-0.2-0.8-0.5-1.2-1.9-2.1c-0.3-0.2-0.5-0.4-0.8-0.6C12.4,3.7,11.7,3.2,10.7,3.2z"/>
</g>
</svg>
