<?xml version="1.0" encoding="utf-8"?>
<!-- Generator: Adobe Illustrator 18.1.1, SVG Export Plug-In . SVG Version: 6.00 Build 0)  -->
<!DOCTYPE svg PUBLIC "-//W3C//DTD SVG 1.1//EN" "http://www.w3.org/Graphics/SVG/1.1/DTD/svg11.dtd" [
	<!ENTITY st0 "fill:#11293A;">
]>
<svg version="1.1" id="Layer_1" xmlns="http://www.w3.org/2000/svg" xmlns:xlink="http://www.w3.org/1999/xlink" x="0px" y="0px"
	 viewBox="0 0 89 57.6" style="enable-background:new 0 0 89 57.6;" xml:space="preserve">
<g>
	<path style="&st0;" d="M84.4,1.4H4.6c-1.4,0-2.5,1.1-2.5,2.5v44.9c0,1.4,1.1,2.6,2.5,2.6h21.5v2.9c0,1.1,0.8,2.1,1.9,2.1h33
		c1.1,0,2.1-1,2.1-2.1v-2.9h21.4c1.4,0,2.6-1.2,2.6-2.7V3.8C87.1,2.4,85.9,1.4,84.4,1.4z M61.1,54.4h-33v-3h10v-1h12.5
		c0,0,0.5-0.1,0.5-0.1v1.1h10V54.4z M85.1,48.7c0,0.3-0.3,0.7-0.6,0.7H50.7c0,0,0,0,0,0H38.4c0,0,0,0,0,0H4.6
		c-0.3,0-0.5-0.3-0.5-0.6V3.9c0-0.3,0.2-0.5,0.5-0.5h79.9c0.3,0,0.6,0.1,0.6,0.4V48.7z"/>
	<path style="&st0;" d="M82.2,47.4h-1.5c-0.7,0-0.8,0.3-0.8,0.5c0,0.2,0.1,0.5,0.8,0.5h1.5c0.7,0,0.9-0.3,0.9-0.5
		C83.1,47.6,83,47.4,82.2,47.4z"/>
	<path style="&st0;" d="M83.1,5.9c0-0.3-0.2-0.5-0.5-0.5h-76c-0.3,0-0.5,0.2-0.5,0.5v40c0,0.3,0.2,0.5,0.5,0.5h76
		c0.3,0,0.5-0.2,0.5-0.5V5.9z M82.1,45.4h-75v-39h75V45.4z"/>
</g>
</svg>
