<?xml version="1.0" encoding="utf-8"?>
<!-- Generator: Adobe Illustrator 18.0.0, SVG Export Plug-In . SVG Version: 6.00 Build 0)  -->
<!DOCTYPE svg PUBLIC "-//W3C//DTD SVG 1.1//EN" "http://www.w3.org/Graphics/SVG/1.1/DTD/svg11.dtd">
<svg version="1.1" id="Layer_1" xmlns="http://www.w3.org/2000/svg" xmlns:xlink="http://www.w3.org/1999/xlink" x="0px" y="0px"
	 viewBox="0 0 36.7 22.2" enable-background="new 0 0 36.7 22.2" xml:space="preserve">
<g>
	<polygon points="-68.8,-52 -89,-31.8 -109.2,-52 -111.3,-49.9 -89,-27.7 -66.8,-49.9 	"/>
	<polygon points="-174.4,-29.8 -172.3,-27.7 -152.2,-47.8 -132,-27.7 -129.9,-29.8 -152.2,-52 	"/>
	<polygon points="-155.5,-19 -135.4,1.1 -155.5,21.3 -153.4,23.4 -131.2,1.1 -153.4,-21.1 	"/>
	<polygon points="-173.3,-21.1 -195.5,1.1 -173.3,23.4 -171.2,21.3 -191.4,1.1 -171.2,-19 	"/>
</g>
<path d="M-148.1,58.7c-1.4,0-2.7,0.6-3.6,1.5l-7-3.7c0.2-0.6,0.3-1.3,0.3-2c0-2-0.7-3.8-2-5.2l8.3-8.4c1,0.7,2.3,1.1,3.6,1.1
	c3.7,0,6.7-3,6.7-6.7c0-3.7-3-6.7-6.7-6.7c-3.7,0-6.7,3-6.7,6.7c0,1.2,0.3,2.4,0.9,3.4l-8.6,8.7c-1-0.5-2.1-0.8-3.3-0.8
	c-4.3,0-7.8,3.5-7.8,7.8c0,4.3,3.5,7.8,7.8,7.8c2.4,0,4.6-1.1,6-2.8l7.2,3.7c0,0.1,0,0.2,0,0.4c0,2.7,2.2,4.9,4.9,4.9
	s4.9-2.2,4.9-4.9C-143.1,60.9-145.3,58.7-148.1,58.7z"/>
<g>
	<path fill="#010101" d="M-72.1,50.5l-9-24.9h-7l-16.6,45.9h8.1l4.1-11.7h16.7L-72.1,50.5z M-89.9,52.8l1.4-4.1
		c1.1-3.2,2.4-7.2,3.9-12h0.1c1.5,4.8,2.8,8.8,3.9,12l1.4,4.1H-89.9z"/>
	<path fill="#010101" d="M-67.2,51.4H-71l-9.2,23.7h4.5l2.3-6h8.7l2.3,6h4.5L-67.2,51.4z M-72.1,65.5l0.8-2.1
		c0.6-1.7,1.4-3.7,2.2-6.2h0.1c0.8,2.5,1.5,4.5,2.2,6.2l0.8,2.1H-72.1z"/>
</g>
<path d="M-64.1-6.1v11h8v-11H-64.1z M-57.1,2.9h-6v-1h6V2.9z M-57.1,0.9h-6v-1h6V0.9z M-57.1-1.1h-6v-1h6V-1.1z M-57.1-3.1h-6v-1h6
	V-3.1z"/>
<g>
	<polygon points="-30.8,-10.4 -30.2,-9.6 -10.2,-27.2 -30.2,-44.9 -30.8,-44.1 -11.7,-27.2 	"/>
	<polygon points="21.2,-10.4 2,-27.2 21.2,-44.1 20.5,-44.9 0.5,-27.2 20.5,-9.6 	"/>
	<polygon points="18.4,0.7 0.7,20.7 1.4,21.3 18.4,2.2 35.2,21.3 35.9,20.7 	"/>
	<polygon points="-24,20 -40.9,0.9 -41.7,1.6 -24,21.6 -6.4,1.6 -7.2,0.9 	"/>
</g>
</svg>
