<?xml version="1.0" encoding="utf-8"?>
<!-- Generator: Adobe Illustrator 18.1.1, SVG Export Plug-In . SVG Version: 6.00 Build 0)  -->
<!DOCTYPE svg PUBLIC "-//W3C//DTD SVG 1.1//EN" "http://www.w3.org/Graphics/SVG/1.1/DTD/svg11.dtd">
<svg version="1.1" id="Layer_1" xmlns="http://www.w3.org/2000/svg" xmlns:xlink="http://www.w3.org/1999/xlink" x="0px" y="0px"
	 viewBox="0 0 52 52" style="enable-background:new 0 0 52 52;" xml:space="preserve">
<g>
	<path d="M49,1H3C1.9,1,1,1.9,1,3v46c0,1.1,0.9,2,2,2h46c1.1,0,2-0.9,2-2V3C51,1.9,50.1,1,49,1z M3,49V3h46l0,46H3z"/>
	<path d="M42.7,14.3l-5-5c-0.4-0.4-1-0.4-1.4,0s-0.4,1,0,1.4l3.3,3.3H30c-0.6,0-1,0.4-1,1s0.4,1,1,1h9.6l-3.3,3.3
		c-0.4,0.4-0.4,1,0,1.4c0.2,0.2,0.5,0.3,0.7,0.3s0.5-0.1,0.7-0.3l5-5c0,0,0,0,0,0l0.7-0.7L42.7,14.3C42.7,14.3,42.7,14.3,42.7,14.3z
		"/>
	<path d="M42.7,32.3C42.7,32.3,42.7,32.3,42.7,32.3l-5-5c-0.4-0.4-1-0.4-1.4,0s-0.4,1,0,1.4l3.3,3.3H30c-0.6,0-1,0.4-1,1s0.4,1,1,1
		h9.6l-3.3,3.3c-0.4,0.4-0.4,1,0,1.4c0.2,0.2,0.5,0.3,0.7,0.3s0.5-0.1,0.7-0.3l5-5c0,0,0,0,0,0l0.7-0.7L42.7,32.3z"/>
	<path d="M22,36h-9.6l3.3-3.3c0.4-0.4,0.4-1,0-1.4s-1-0.4-1.4,0l-5,5c0,0,0,0,0,0L8.6,37l0.7,0.7c0,0,0,0,0,0l5,5
		c0.2,0.2,0.5,0.3,0.7,0.3s0.5-0.1,0.7-0.3c0.4-0.4,0.4-1,0-1.4L12.4,38H22c0.6,0,1-0.4,1-1S22.6,36,22,36z"/>
	<path d="M22,18h-9.6l3.3-3.3c0.4-0.4,0.4-1,0-1.4s-1-0.4-1.4,0l-5,5c0,0,0,0,0,0L8.6,19l0.7,0.7c0,0,0,0,0,0l5,5
		c0.2,0.2,0.5,0.3,0.7,0.3s0.5-0.1,0.7-0.3c0.4-0.4,0.4-1,0-1.4L12.4,20H22c0.6,0,1-0.4,1-1S22.6,18,22,18z"/>
</g>
</svg>
