<?xml version="1.0" encoding="utf-8"?>
<!-- Generator: Adobe Illustrator 18.0.0, SVG Export Plug-In . SVG Version: 6.00 Build 0)  -->
<!DOCTYPE svg PUBLIC "-//W3C//DTD SVG 1.1//EN" "http://www.w3.org/Graphics/SVG/1.1/DTD/svg11.dtd">
<svg version="1.1" id="Layer_1" xmlns="http://www.w3.org/2000/svg" xmlns:xlink="http://www.w3.org/1999/xlink" x="0px" y="0px"
	 viewBox="0 0 1024 1024" enable-background="new 0 0 1024 1024" xml:space="preserve">
<path fill="#396ECE" d="M892.7,349.5c-20.7-49.6-50.4-94.1-88.2-132.4c-37.8-38.3-81.9-68.3-131-89.3C622.7,106,568.7,95,513,95
	s-109.7,11-160.5,32.8c-49.1,21-93.1,51.1-131,89.3c-37.8,38.2-67.5,82.8-88.2,132.4c-21.5,51.3-32.3,105.8-32.3,162
	s10.9,110.7,32.3,162c20.7,49.6,50.4,94.1,88.2,132.4c37.8,38.3,81.9,68.3,131,89.3C403.3,917,457.3,928,513,928
	s109.7-11,160.5-32.8c49.1-21,93.1-51.1,131-89.3c37.8-38.2,67.5-82.8,88.2-132.4c21.5-51.3,32.3-105.8,32.3-162
	S914.1,400.8,892.7,349.5z M614.4,177.3c0.4,15.2,18,29.1,10.5,35.1s-45.2-21.5-52.5-27.8c-31.5-27-48.4-18-55-22.5
	c-6.6-4.5-4.3-10.5,5.9-19.5s38.6,3,55.1,4.9S614,162.1,614.4,177.3z M522.5,181.6c4.5,3.8,28.9,13.5,30.4,20.6s0,13.1-9.4,12.8
	s-31.4-2.7-27.4-6.8c15.8-15.8-6-20.3-19.5-21.4s-19.1-8.6-12.4-9.4S518,177.9,522.5,181.6z M511.8,152.4
	c-5.4,15.4-31.3,16.9-35.4,13.9c-2.6-1.9,2.2-4.1,5-7.9c1.6-2.2,0.4-5.8,2.5-7.9C489.5,144.9,517.3,137,511.8,152.4z M586.6,828.1
	c10.9-22.5,45-79.5,11.3-98.6s-24.4-27.8-45-49.9s-12.2-25.5-13.5-31.1c-4.5-19.5,19.9-48.8,21-51.8s1.1-14.3,0.8-17.6
	s-15.4-12.4-19.1-12.8s-5.6,6-10.9,6.4s-28.1-13.9-33-17.6s-7.1-12.8-13.9-19.5s-7.5-1.5-18-5.6s-44.3-16.5-70.1-27
	s-28.1-25.2-28.5-35.6s-15.8-25.5-23-36.4c-7.2-10.9-8.5-25.9-11.2-22.5s13.5,42.8,10.9,43.9s-8.3-10.9-15.8-20.6s7.9-4.5-16.1-51.8
	s7.5-71.3,9-96s20.3,9,10.5-6.8s0.8-48.8-6.8-60.8S275,230,275,230c1.1-11.6,37.5-31.5,63.8-49.9s42.3-4.1,63.4,2.6
	s22.5,4.5,15.4-2.3s3-10.1,19.5-7.5s21,22.5,46.1,20.6s2.6,4.9,6,11.3s-3.8,5.6-20.3,16.9s0.4,11.3,29.6,32.6s20.3-14.3,17.3-30
	s21.4-3.4,21.4-3.4c18,12,14.7,0.7,27.8,4.8s48.7,34.2,48.7,34.2c-44.6,24.4-16.5,27-9,32.6s-15.4,16.5-15.4,16.5
	c-9.4-9.4-10.9,0.4-16.9,3.8s-0.4,12-0.4,12c-31,4.9-24,37.5-23.6,45.4s-19.9,19.9-25.1,31.1s13.5,35.6,3.8,37.1s-19.5-36.8-72-22.5
	c-15.8,4.3-51,22.5-32.3,59.6s49.9-10.5,60.4-5.3s-3,28.9-0.8,29.3s29.6,1,31.1,33s41.6,29.3,50.3,30s37.5-23.6,41.6-24.8
	s20.6-15,56.6,5.6s54.4,17.6,66.8,26.3s3.8,25.9,15.4,31.5s58.1-1.9,69.8,17.3s-48,115.1-66.8,125.6S719.8,778.6,701,794
	s-45,34.4-69.8,49.1c-20.7,12.3-25.4,33.8-34.1,42.4c-3.5,0.8-7,1.6-10.6,2.3C577.9,880.9,577.3,847.5,586.6,828.1z M602,488.4
	c-5.3,1.5-16.1,11.3-42.8-4.5s-45-12.8-47.3-15.4c0,0-2.3-6.4,9.4-7.5c23.9-2.3,54,22.1,60.8,22.5s10.1-6.8,22.1-2.9
	C616.3,484.5,607.3,486.9,602,488.4z"/>
</svg>
