<?xml version="1.0" encoding="utf-8"?>
<!-- Generator: Adobe Illustrator 18.1.1, SVG Export Plug-In . SVG Version: 6.00 Build 0)  -->
<!DOCTYPE svg PUBLIC "-//W3C//DTD SVG 1.1//EN" "http://www.w3.org/Graphics/SVG/1.1/DTD/svg11.dtd">
<svg version="1.1" id="Layer_1" xmlns="http://www.w3.org/2000/svg" xmlns:xlink="http://www.w3.org/1999/xlink" x="0px" y="0px"
	 viewBox="0 0 42.8 53.4" style="enable-background:new 0 0 42.8 53.4;" xml:space="preserve">
<g>
	<path d="M21.4,13.7c3.3,0,6-2.7,6-6s-2.7-6-6-6s-6,2.7-6,6S18.1,13.7,21.4,13.7z M21.4,3.7c2.2,0,4,1.8,4,4s-1.8,4-4,4
		c-2.2,0-4-1.8-4-4S19.2,3.7,21.4,3.7z"/>
	<path d="M14.2,33.7h1.2v11.3c0,1.5,1.2,2.7,2.7,2.7h6.7c1.5,0,2.7-1.2,2.7-2.7V33.7h1.2c1.5,0,2.8-1.3,2.8-2.8v-9.8
		c0-1.1-0.5-6.4-10-6.4c-9.7,0-10,5.7-10,6.4v9.8C11.4,32.5,12.6,33.7,14.2,33.7z M13.4,21.1c0-0.7,0.4-4.4,8-4.4c7.6,0,8,3.7,8,4.4
		v9.8c0,0.4-0.4,0.8-0.8,0.8h-1.2v-8c0-0.6-0.4-1-1-1s-1,0.4-1,1v9v12.3c0,0.4-0.3,0.7-0.7,0.7H18c-0.4,0-0.7-0.3-0.7-0.7V32.7v-9
		c0-0.6-0.4-1-1-1s-1,0.4-1,1v8h-1.2c-0.4,0-0.8-0.4-0.8-0.8V21.1z"/>
	<path d="M29.5,38.3c-0.6-0.1-1.1,0.3-1.1,0.8c-0.1,0.5,0.3,1.1,0.8,1.1c6.7,1,10.1,3,10.1,4.4c0,2.1-6.8,5-18,5s-18-2.9-18-5
		c0-1.5,3.5-3.5,10.1-4.4c0.5-0.1,0.9-0.6,0.8-1.1s-0.6-0.9-1.1-0.8c-7.4,1.1-11.9,3.5-11.9,6.4c0,4.5,10.3,7,20,7s20-2.5,20-7
		C41.4,41.8,36.9,39.4,29.5,38.3z"/>
</g>
</svg>
