<?xml version="1.0" encoding="utf-8"?>
<!-- Generator: Adobe Illustrator 18.1.1, SVG Export Plug-In . SVG Version: 6.00 Build 0)  -->
<!DOCTYPE svg PUBLIC "-//W3C//DTD SVG 1.1//EN" "http://www.w3.org/Graphics/SVG/1.1/DTD/svg11.dtd">
<svg version="1.1" id="Layer_1" xmlns="http://www.w3.org/2000/svg" xmlns:xlink="http://www.w3.org/1999/xlink" x="0px" y="0px"
	 viewBox="0 0 52.5 52.7" style="enable-background:new 0 0 52.5 52.7;" xml:space="preserve">
<g>
	<path d="M11.3,13.4c3.3,0,6-2.7,6-6s-2.7-6-6-6s-6,2.7-6,6S7.9,13.4,11.3,13.4z M11.3,3.4c2.2,0,4,1.8,4,4s-1.8,4-4,4s-4-1.8-4-4
		S9,3.4,11.3,3.4z"/>
	<path d="M41.3,13.4c3.3,0,6-2.7,6-6s-2.7-6-6-6s-6,2.7-6,6S37.9,13.4,41.3,13.4z M41.3,3.4c2.2,0,4,1.8,4,4s-1.8,4-4,4s-4-1.8-4-4
		S39,3.4,41.3,3.4z"/>
	<path d="M47.6,16.8c-0.5-0.8-1.2-1.5-2.1-1.9c-0.1,0-0.2-0.1-0.3-0.1c-1-0.4-3.1-0.6-6-0.6c-0.3,0-1.4,0.1-2.4,0.3c0,0,0,0,0,0
		c0,0-0.1,0-0.1,0c-0.5,0.1-0.9,0.3-1.2,0.5c-0.8,0.5-1.5,1.1-1.7,1.8c-0.5,0.9-2.3,4.7-2.8,6.2c-0.6,0.4-2.4,1.6-3.3,2.2
		c-0.9,0.6-1.2,0.8-1.4,0.9c-0.2-0.1-0.5-0.3-1.4-0.9c-0.9-0.6-2.7-1.7-3.3-2.2c-0.5-1.4-2.3-5.2-2.8-6.2c-0.2-0.6-0.9-1.3-1.7-1.8
		c-0.3-0.2-0.8-0.4-1.2-0.5c0,0-0.1,0-0.1,0c0,0,0,0,0,0c-1-0.2-2.1-0.3-2.4-0.3c-3,0-5,0.2-6,0.6c-0.1,0-0.2,0-0.3,0.1
		c-0.9,0.4-1.7,1.1-2.1,1.9c-0.6,1-3.4,6-3.5,7.7c0,0.7,0.4,1.6,1.3,3.2c0.7,1.2,1.6,2.8,1.6,3.5c0,2.5,1.3,3.1,2.4,3.1
		C6.4,41,5.8,45.1,5.6,46.8c0,0.4-0.1,0.6-0.1,0.8c-0.1,1.1,0.1,2.1,0.7,2.7c0.5,0.6,1.3,0.9,2.2,0.9c1.1,0,2.1-0.7,2.6-1.6
		c0.1,0.3,0.3,0.6,0.5,0.8c0.3,0.4,1,0.9,2,0.9c2.4,0,2.8-1.9,3.1-2.9c0.9-5.8,1.4-14.5,1.6-21.1c1.6,1.3,5,3.1,5.1,3.1
		c0.8,0.4,1.5,0.6,2.2,0.6c0.3,0,0.6-0.1,0.8-0.1c0.3,0.1,0.5,0.1,0.8,0.1c0.6,0,1.4-0.2,2.2-0.6c0,0,3.4-1.8,5.1-3.1
		c0.2,6.6,0.7,15.3,1.6,21.2c0.2,0.9,0.7,2.9,3.1,2.9c1,0,1.7-0.5,2-0.9c0.2-0.2,0.4-0.5,0.5-0.8c0.5,0.9,1.6,1.6,2.6,1.6
		c0.9,0,1.6-0.3,2.2-0.9c0.6-0.7,0.9-1.6,0.7-2.7c0-0.2-0.1-0.5-0.1-0.8c-0.2-1.8-0.8-5.8-1.1-12.5c1.1,0,2.4-0.6,2.4-3.1
		c0-0.7,0.9-2.3,1.6-3.5c0.9-1.6,1.4-2.5,1.3-3.2C51,22.8,48.2,17.8,47.6,16.8z M14.6,48c-0.3,1.2-0.5,1.3-1.1,1.3
		c-0.4,0-0.5-0.1-0.5-0.2c-0.2-0.2-0.2-0.6-0.2-1.1c0.6-4.7,0.9-9.5,0.6-14.4c0-0.5-0.5-1-1.1-1c-0.5,0-1,0.4-1,0.9
		C10.7,40.9,9.5,48,9.4,48.1c0,0,0,0.1,0,0.1c0,0.5-0.5,1.1-1,1.1c-0.3,0-0.5-0.1-0.7-0.3c-0.2-0.2-0.3-0.7-0.3-1.2
		c0-0.2,0.1-0.4,0.1-0.8c0.3-1.9,0.9-6.3,1.1-13.7C9,33,9.3,32.3,9.3,31.3c0-0.6-0.2-1.3-0.5-2c0-0.9,0-1.8,0-2.7c0-0.1,0-5.2,0-5.2
		c0,0-0.1-0.4-0.4-0.6c-0.5-0.3-1.1-0.1-1.4,0.4l-0.5,0.8c-1,1.5-1.3,2-1.4,2.3c0,0,0,0.1,0,0.1c-0.2,0.7,0.2,1.6,1,3.5
		c0.5,1.2,1.2,2.8,1.2,3.5c0,1.1-0.3,1.1-0.5,1.1c-0.3,0-0.5,0-0.5-1.1c0-1.3-0.9-2.9-1.8-4.5c-0.4-0.7-1-1.8-1.1-2.1
		c0-0.8,1.7-4.2,3.3-6.8c0.3-0.4,0.7-0.8,1.2-1c0.2-0.1,0.2,0,0.2,0c0.4-0.2,2.5-0.4,5.4-0.4c0.6,0,1.4,0.1,1.9,0.3
		c0.2,0,0.3,0.1,0.5,0.2c0.2,0.6,0.5,2.3,0.5,5.3C16.3,28.4,15.8,40.7,14.6,48z M19.2,25.6c-0.1-0.1-0.3-0.5-0.9-1.6
		c0-0.7,0-1.4,0-1.9c0-0.6,0-1.1,0-1.6c0.7,1.6,1.4,3.1,1.5,3.5c0.1,0.5,0.1,0.6,4.1,3.1c0.6,0.4,1.2,0.7,1.3,0.8
		c0.5,0.4,0.8,0.8,0.8,1c-0.2,0.2-0.6,0.4-1.8-0.2C23.4,28.2,19.6,26,19.2,25.6z M33.4,25.5c-0.5,0.6-4.2,2.7-5,3.1
		c-0.2,0.1-0.3,0.1-0.5,0.2c0,0,0-0.1,0-0.1c0-0.3-0.2-0.6-0.3-1c0.2-0.1,0.6-0.4,1.1-0.7c4-2.5,4-2.6,4.1-3.1
		c0.1-0.4,0.7-1.9,1.5-3.5c0,0.5,0,1,0,1.6c0,0.6,0,1.3,0,1.9C33.6,25.1,33.4,25.4,33.4,25.5z M48.1,26.8c-0.9,1.6-1.8,3.2-1.8,4.5
		c0,1.1-0.2,1.1-0.5,1.1c-0.2,0-0.5,0-0.5-1.1c0-0.6,0.7-2.3,1.2-3.5c0.8-1.9,1.2-2.8,1-3.5c0,0,0-0.1,0-0.1
		c-0.1-0.3-0.5-0.8-1.4-2.3l-0.5-0.7c-0.3-0.5-0.9-0.8-1.4-0.5c-0.3,0.2-0.4,0.6-0.4,0.6h0l0,4.8c0,0,0,0.2,0,0.2c0,0.9,0,1.9,0,2.8
		c-0.3,0.8-0.5,1.5-0.5,2.1c0,1,0.2,1.7,0.6,2.2c0.3,7.4,0.9,11.8,1.1,13.7c0,0.3,0.1,0.6,0.1,0.8c0.1,0.5,0,0.9-0.3,1.2
		c-0.2,0.2-0.4,0.3-0.7,0.3c-0.5,0-1-0.6-1-1.1c0,0,0-0.1,0-0.1c0-0.1-1.3-7.2-1.9-14.4c0-0.5-0.5-0.9-1.1-0.9c-0.5,0-1,0.4-1,1
		c-0.2,4.9,0,9.7,0.6,14.4c0.1,0.5,0,0.9-0.2,1.1c0,0-0.1,0.2-0.5,0.2c-0.6,0-0.8-0.2-1.1-1.3c-1.2-7.4-1.7-19.6-1.7-26
		c0-3,0.3-4.7,0.5-5.3c0.1-0.1,0.3-0.1,0.5-0.2c0.5-0.1,1.3-0.3,1.9-0.3c2.9,0,5,0.3,5.4,0.4c0,0,0,0,0.2,0c0.5,0.2,0.9,0.6,1.2,1
		c1.5,2.7,3.2,6,3.3,6.8C49.1,24.9,48.5,26,48.1,26.8z"/>
</g>
</svg>
