<?xml version="1.0" encoding="utf-8"?>
<!-- Generator: Adobe Illustrator 18.1.1, SVG Export Plug-In . SVG Version: 6.00 Build 0)  -->
<!DOCTYPE svg PUBLIC "-//W3C//DTD SVG 1.1//EN" "http://www.w3.org/Graphics/SVG/1.1/DTD/svg11.dtd">
<svg version="1.1" id="search_x5F__x5F_icon-layer" xmlns="http://www.w3.org/2000/svg" xmlns:xlink="http://www.w3.org/1999/xlink"
	 x="0px" y="0px" viewBox="0 0 32.5 33.3" style="enable-background:new 0 0 32.5 33.3;" xml:space="preserve">
<path id="search_x5F__x5F_icon" d="M31.4,31.2l-9.3-9.3c2.1-2.2,3.4-5.2,3.4-8.5c0-6.7-5.5-12.2-12.2-12.2C6.6,1.1,1.1,6.6,1.1,13.3
	c0,6.7,5.5,12.2,12.2,12.2c2.9,0,5.6-1,7.7-2.8l9.4,9.4L31.4,31.2z M2.5,13.3c0-5.9,4.8-10.8,10.8-10.8c5.9,0,10.8,4.8,10.8,10.8
	s-4.8,10.8-10.8,10.8C7.4,24.1,2.5,19.3,2.5,13.3z"/>
</svg>
