<?xml version="1.0" encoding="utf-8"?>
<!-- Generator: Adobe Illustrator 18.1.1, SVG Export Plug-In . SVG Version: 6.00 Build 0)  -->
<!DOCTYPE svg PUBLIC "-//W3C//DTD SVG 1.1//EN" "http://www.w3.org/Graphics/SVG/1.1/DTD/svg11.dtd">
<svg version="1.1" id="Layer_1" xmlns="http://www.w3.org/2000/svg" xmlns:xlink="http://www.w3.org/1999/xlink" x="0px" y="0px"
	 viewBox="0 0 92 91.9" style="enable-background:new 0 0 92 91.9;" xml:space="preserve">
<g>
	<path d="M46.4,3L46.4,3c-0.1,0-0.3,0-0.4,0C22.2,3,3,22.2,3,46s19.3,43,43,43C69.7,89,88.9,69.8,89,46H89V3H46.4z M80.4,46L80.4,46
		C80.3,65,65,80.4,46,80.4C27,80.4,11.6,65,11.6,46C11.6,27,27,11.6,46,11.6c0.1,0,0.2,0,0.3,0v0h34.1V46z"/>
	<path d="M46.1,19.5c0,0-0.1,0-0.1,0c-14.6,0-26.4,11.9-26.4,26.4S31.4,72.4,46,72.4c14.4,0,26.2-11.6,26.4-26h0.1V19.5H46.2
		L46.1,19.5z M71.6,45.6L71.6,45.6L71.6,46c0,14.1-11.5,25.5-25.6,25.5c-14.1,0-25.6-11.5-25.6-25.6c0-14.1,11.5-25.6,25.7-25.6
		c0,0,0,0,0,0c0.1,0,0.1,0,0.2,0l25.4,0V45.6z"/>
</g>
</svg>
