<?xml version="1.0" encoding="utf-8"?>
<!-- Generator: Adobe Illustrator 18.1.1, SVG Export Plug-In . SVG Version: 6.00 Build 0)  -->
<!DOCTYPE svg PUBLIC "-//W3C//DTD SVG 1.1//EN" "http://www.w3.org/Graphics/SVG/1.1/DTD/svg11.dtd">
<svg version="1.1" id="Layer_1" xmlns="http://www.w3.org/2000/svg" xmlns:xlink="http://www.w3.org/1999/xlink" x="0px" y="0px"
	 viewBox="0 0 128.3 242.9" style="enable-background:new 0 0 128.3 242.9;" xml:space="preserve">
<g>
	<path d="M64.2,71.7c18.7,0,33.9-15.2,33.9-33.9C98.1,19.2,82.9,4,64.2,4C45.5,4,30.2,19.2,30.2,37.8C30.2,56.5,45.5,71.7,64.2,71.7
		z M64.2,8c16.5,0,29.9,13.4,29.9,29.9c0,16.5-13.4,29.9-29.9,29.9c-16.5,0-29.9-13.4-29.9-29.9C34.2,21.4,47.7,8,64.2,8z"/>
	<path d="M64.3,86.8c-56.8,0-59.7,30.3-59.7,36.4v43c0,7.4,6.1,13.5,13.5,13.5h12v46.7c0,7,5.7,12.6,12.7,12.6h42.6
		c7,0,12.7-5.7,12.7-12.6v-46.7h12.1c7.4,0,13.5-6,13.5-13.5v-43C123.7,117.1,120.8,86.8,64.3,86.8z M119.7,166.2
		c0,5.2-4.3,9.5-9.5,9.5H98.1v-35.9c0-1.1-0.9-2-2-2c-1.1,0-2,0.9-2,2v37.9v48.7c0,4.8-3.9,8.6-8.6,8.6H42.9c-4.8,0-8.6-3.9-8.6-8.6
		v-48.7v-37.9c0-1.1-0.9-2-2-2c-1.1,0-2,0.9-2,2v35.9h-12c-5.2,0-9.5-4.3-9.5-9.5v-43c0-5.4,2.7-32.4,55.6-32.4
		c52.7,0,55.3,27,55.3,32.4V166.2z"/>
</g>
</svg>
