<?xml version="1.0" encoding="utf-8"?>
<!-- Generator: Adobe Illustrator 18.1.1, SVG Export Plug-In . SVG Version: 6.00 Build 0)  -->
<!DOCTYPE svg PUBLIC "-//W3C//DTD SVG 1.1//EN" "http://www.w3.org/Graphics/SVG/1.1/DTD/svg11.dtd">
<svg version="1.1" id="Layer_1" xmlns="http://www.w3.org/2000/svg" xmlns:xlink="http://www.w3.org/1999/xlink" x="0px" y="0px"
	 viewBox="0 0 25.7 51.8" style="enable-background:new 0 0 25.7 51.8;" xml:space="preserve">
<g>
	<path d="M12.9,12.9c3.3,0,6-2.7,6-6s-2.7-6-6-6c-3.3,0-6,2.7-6,6S9.6,12.9,12.9,12.9z M12.9,2.9c2.2,0,4,1.8,4,4c0,2.2-1.8,4-4,4
		c-2.2,0-4-1.8-4-4C8.9,4.7,10.7,2.9,12.9,2.9z"/>
	<path d="M24.7,31.2c-0.3-1.5-4-14.2-4.4-15.7c-0.2-0.8-1.2-1.7-2.4-2.1c-1-0.5-3.5-0.6-5-0.6c-1.5,0-4,0.1-5,0.6
		c-1.2,0.4-2.1,1.3-2.4,2.1C5.1,17,1.4,29.7,1.1,31.2c-0.2,1.4-0.3,3.1,1.6,3.7c0.5,0.2,1.4,0.3,2.3-0.5l-0.4,1.8
		c-0.1,0.6,0,1.3,0.4,1.8c0.4,0.5,1,0.8,1.6,0.8h2.6l-0.4,0l0.8,9.5c0,0.1,0,0.2,0,0.2c0.1,0.8,0.5,1.6,1.8,2
		c0.4,0.1,0.9,0.2,1.5,0.2h0h0c0.6,0,1.1-0.1,1.5-0.2c1.2-0.4,1.6-1.2,1.8-2c0-0.1,0-0.2,0-0.2l0.8-9.5l-0.4,0h2.6
		c0.6,0,1.2-0.3,1.6-0.8c0.4-0.5,0.5-1.1,0.4-1.8l-0.4-1.8c0.9,0.8,1.8,0.6,2.3,0.5C25,34.3,24.9,32.6,24.7,31.2z M14.2,48.3
		C14.2,48.3,14.2,48.3,14.2,48.3c0,0.3-0.2,0.5-0.7,0.6c-0.2,0-0.4,0-0.6,0c-0.3,0-0.5,0-0.6,0c-0.6-0.1-0.7-0.3-0.7-0.5
		c0,0,0-0.1,0-0.1l-0.8-9.4h2.1H15L14.2,48.3z M22.5,33c-0.1,0-0.5,0.1-0.9-1l-3-8.4c-0.2-0.5-0.7-0.8-1.2-0.6
		c-0.5,0.1-0.8,0.7-0.7,1.2l2.6,12.6c0,0.1,0,0.1-0.1,0.2l-6.3,0l-6.3,0c-0.1-0.1-0.1-0.1-0.1-0.2l2.6-12.6c0.1-0.5-0.2-1-0.7-1.2
		c-0.5-0.1-1,0.1-1.2,0.6l-3,8.4c-0.4,1.2-0.8,1.1-0.9,1c-0.3-0.1-0.5-0.2-0.2-1.4C3.3,30.4,6.3,20,7.4,16.1
		c0.1-0.1,0.5-0.6,1.2-0.8c0,0,0.1,0,0.1-0.1c0.2-0.1,1.4-0.4,4.1-0.4c2.8,0,4,0.3,4.1,0.4c0,0,0.1,0,0.1,0.1
		c0.7,0.3,1.1,0.7,1.2,0.8c1.1,3.9,4.1,14.2,4.4,15.5C22.9,32.9,22.7,32.9,22.5,33z"/>
</g>
</svg>
