<?xml version="1.0" encoding="utf-8"?>
<!-- Generator: Adobe Illustrator 18.0.0, SVG Export Plug-In . SVG Version: 6.00 Build 0)  -->
<!DOCTYPE svg PUBLIC "-//W3C//DTD SVG 1.1//EN" "http://www.w3.org/Graphics/SVG/1.1/DTD/svg11.dtd">
<svg version="1.1" id="Layer_1" xmlns="http://www.w3.org/2000/svg" xmlns:xlink="http://www.w3.org/1999/xlink" x="0px" y="0px"
	 viewBox="0 0 29 49" enable-background="new 0 0 29 49" xml:space="preserve">
<g>
	<polygon points="89,-28.6 68.9,-8.5 48.7,-28.6 46.6,-26.6 68.9,-4.3 91.1,-26.6 	"/>
	<polygon points="-16.6,-6.4 -14.5,-4.3 5.7,-24.5 25.9,-4.3 27.9,-6.4 5.7,-28.6 	"/>
	<polygon points="2.3,4.3 22.5,24.5 2.3,44.7 4.4,46.7 26.7,24.5 4.4,2.2 	"/>
	<polygon points="-15.4,2.2 -37.7,24.5 -15.4,46.7 -13.3,44.7 -33.5,24.5 -13.3,4.3 	"/>
</g>
<path d="M9.8,82c-1.4,0-2.7,0.6-3.6,1.5l-7-3.7c0.2-0.6,0.3-1.3,0.3-2c0-2-0.7-3.8-2-5.2l8.3-8.4c1,0.7,2.3,1.1,3.6,1.1
	c3.7,0,6.7-3,6.7-6.7c0-3.7-3-6.7-6.7-6.7c-3.7,0-6.7,3-6.7,6.7c0,1.2,0.3,2.4,0.9,3.4L-5,70.9c-1-0.5-2.1-0.8-3.3-0.8
	c-4.3,0-7.8,3.5-7.8,7.8c0,4.3,3.5,7.8,7.8,7.8c2.4,0,4.6-1.1,6-2.8l7.2,3.7c0,0.1,0,0.2,0,0.4c0,2.7,2.2,4.9,4.9,4.9
	s4.9-2.2,4.9-4.9C14.7,84.2,12.5,82,9.8,82z"/>
<g>
	<path fill="#010101" d="M85.8,73.9l-9-24.9h-7L53.3,94.9h8.1l4.1-11.7h16.7L85.8,73.9z M67.9,76.2l1.4-4.1c1.1-3.2,2.4-7.2,3.9-12
		h0.1c1.5,4.8,2.8,8.8,3.9,12l1.4,4.1H67.9z"/>
	<path fill="#010101" d="M90.7,74.8h-3.9l-9.2,23.7h4.5l2.3-6h8.7l2.3,6h4.5L90.7,74.8z M85.8,88.8l0.8-2.1c0.6-1.7,1.4-3.7,2.2-6.2
		h0.1c0.8,2.5,1.5,4.5,2.2,6.2l0.8,2.1H85.8z"/>
</g>
</svg>
