<?xml version="1.0" encoding="utf-8"?>
<!-- Generator: Adobe Illustrator 18.0.0, SVG Export Plug-In . SVG Version: 6.00 Build 0)  -->
<!DOCTYPE svg PUBLIC "-//W3C//DTD SVG 1.1//EN" "http://www.w3.org/Graphics/SVG/1.1/DTD/svg11.dtd">
<svg version="1.1" id="Layer_1" xmlns="http://www.w3.org/2000/svg" xmlns:xlink="http://www.w3.org/1999/xlink" x="0px" y="0px"
	 viewBox="0 0 36.7 22.2" enable-background="new 0 0 36.7 22.2" xml:space="preserve">
<g>
	<polygon points="-26.5,-52 -46.7,-31.8 -66.8,-52 -68.9,-49.9 -46.7,-27.7 -24.4,-49.9 	"/>
	<polygon points="-132.1,-29.8 -130,-27.7 -109.8,-47.8 -89.7,-27.7 -87.6,-29.8 -109.8,-52 	"/>
	<polygon points="-113.2,-19 -93,1.1 -113.2,21.3 -111.1,23.4 -88.9,1.1 -111.1,-21.1 	"/>
	<polygon points="-131,-21.1 -153.2,1.1 -131,23.4 -128.9,21.3 -149,1.1 -128.9,-19 	"/>
</g>
<path d="M-105.7,58.7c-1.4,0-2.7,0.6-3.6,1.5l-7-3.7c0.2-0.6,0.3-1.3,0.3-2c0-2-0.7-3.8-2-5.2l8.3-8.4c1,0.7,2.3,1.1,3.6,1.1
	c3.7,0,6.7-3,6.7-6.7c0-3.7-3-6.7-6.7-6.7c-3.7,0-6.7,3-6.7,6.7c0,1.2,0.3,2.4,0.9,3.4l-8.6,8.7c-1-0.5-2.1-0.8-3.3-0.8
	c-4.3,0-7.8,3.5-7.8,7.8c0,4.3,3.5,7.8,7.8,7.8c2.4,0,4.6-1.1,6-2.8l7.2,3.7c0,0.1,0,0.2,0,0.4c0,2.7,2.2,4.9,4.9,4.9
	s4.9-2.2,4.9-4.9C-100.8,60.9-103,58.7-105.7,58.7z"/>
<g>
	<path fill="#010101" d="M-29.8,50.5l-9-24.9h-7l-16.6,45.9h8.1l4.1-11.7h16.7L-29.8,50.5z M-47.6,52.8l1.4-4.1
		c1.1-3.2,2.4-7.2,3.9-12h0.1c1.5,4.8,2.8,8.8,3.9,12l1.4,4.1H-47.6z"/>
	<path fill="#010101" d="M-24.8,51.4h-3.9l-9.2,23.7h4.5l2.3-6h8.7l2.3,6h4.5L-24.8,51.4z M-29.7,65.5l0.8-2.1
		c0.6-1.7,1.4-3.7,2.2-6.2h0.1c0.8,2.5,1.5,4.5,2.2,6.2l0.8,2.1H-29.7z"/>
</g>
<path d="M-21.8-6.1v11h8v-11H-21.8z M-14.8,2.9h-6v-1h6V2.9z M-14.8,0.9h-6v-1h6V0.9z M-14.8-1.1h-6v-1h6V-1.1z M-14.8-3.1h-6v-1h6
	V-3.1z"/>
<g>
	<polygon points="11.5,-10.4 12.2,-9.6 32.2,-27.2 12.2,-44.9 11.5,-44.1 30.7,-27.2 	"/>
	<polygon points="63.5,-10.4 44.3,-27.2 63.5,-44.1 62.8,-44.9 42.8,-27.2 62.8,-9.6 	"/>
	<polygon points="60.7,0.7 43,20.7 43.8,21.3 60.7,2.2 77.5,21.3 78.3,20.7 	"/>
	<polygon points="18.4,20 1.4,0.9 0.7,1.6 18.4,21.6 35.9,1.6 35.2,0.9 	"/>
</g>
</svg>
