<?xml version="1.0" encoding="utf-8"?>
<!-- Generator: Adobe Illustrator 18.0.0, SVG Export Plug-In . SVG Version: 6.00 Build 0)  -->
<!DOCTYPE svg PUBLIC "-//W3C//DTD SVG 1.1//EN" "http://www.w3.org/Graphics/SVG/1.1/DTD/svg11.dtd">
<svg version="1.1" id="Layer_1" xmlns="http://www.w3.org/2000/svg" xmlns:xlink="http://www.w3.org/1999/xlink" x="0px" y="0px"
	 viewBox="0 0 21.6 36.6" enable-background="new 0 0 21.6 36.6" xml:space="preserve">
<g>
	<polygon points="-68.8,-6.2 -89,14 -109.2,-6.2 -111.3,-4.1 -89,18.2 -66.8,-4.1 	"/>
	<polygon points="-174.4,16.1 -172.3,18.2 -152.2,-2 -132,18.2 -129.9,16.1 -152.2,-6.2 	"/>
	<polygon points="-155.5,26.8 -135.4,47 -155.5,67.1 -153.4,69.2 -131.2,47 -153.4,24.7 	"/>
	<polygon points="-173.3,24.7 -195.5,47 -173.3,69.2 -171.2,67.1 -191.4,47 -171.2,26.8 	"/>
</g>
<path d="M-148.1,104.5c-1.4,0-2.7,0.6-3.6,1.5l-7-3.7c0.2-0.6,0.3-1.3,0.3-2c0-2-0.7-3.8-2-5.2l8.3-8.4c1,0.7,2.3,1.1,3.6,1.1
	c3.7,0,6.7-3,6.7-6.7c0-3.7-3-6.7-6.7-6.7c-3.7,0-6.7,3-6.7,6.7c0,1.2,0.3,2.4,0.9,3.4l-8.6,8.7c-1-0.5-2.1-0.8-3.3-0.8
	c-4.3,0-7.8,3.5-7.8,7.8c0,4.3,3.5,7.8,7.8,7.8c2.4,0,4.6-1.1,6-2.8l7.2,3.7c0,0.1,0,0.2,0,0.4c0,2.7,2.2,4.9,4.9,4.9
	s4.9-2.2,4.9-4.9C-143.1,106.7-145.3,104.5-148.1,104.5z"/>
<g>
	<path fill="#010101" d="M-72.1,96.3l-9-24.9h-7l-16.6,45.9h8.1l4.1-11.7h16.7L-72.1,96.3z M-89.9,98.6l1.4-4.1
		c1.1-3.2,2.4-7.2,3.9-12h0.1c1.5,4.8,2.8,8.8,3.9,12l1.4,4.1H-89.9z"/>
	<path fill="#010101" d="M-67.2,97.2H-71l-9.2,23.7h4.5l2.3-6h8.7l2.3,6h4.5L-67.2,97.2z M-72.1,111.3l0.8-2.1
		c0.6-1.7,1.4-3.7,2.2-6.2h0.1c0.8,2.5,1.5,4.5,2.2,6.2l0.8,2.1H-72.1z"/>
</g>
<path d="M-64.1,39.8v11h8v-11H-64.1z M-57.1,48.7h-6v-1h6V48.7z M-57.1,46.7h-6v-1h6V46.7z M-57.1,44.7h-6v-1h6V44.7z M-57.1,42.8
	h-6v-1h6V42.8z"/>
<g>
	<polygon points="-30.8,35.5 -30.2,36.2 -10.2,18.7 -30.2,1 -30.8,1.7 -11.7,18.7 	"/>
	<polygon points="21.2,35.5 2,18.7 21.2,1.7 20.5,1 0.5,18.7 20.5,36.2 	"/>
	<polygon points="18.4,46.5 0.7,66.5 1.4,67.2 18.4,48 35.2,67.2 35.9,66.5 	"/>
	<polygon points="-24,65.9 -40.9,46.7 -41.7,47.4 -24,67.4 -6.4,47.4 -7.2,46.7 	"/>
</g>
</svg>
