<?xml version="1.0" encoding="utf-8"?>
<!-- Generator: Adobe Illustrator 18.1.1, SVG Export Plug-In . SVG Version: 6.00 Build 0)  -->
<!DOCTYPE svg PUBLIC "-//W3C//DTD SVG 1.1//EN" "http://www.w3.org/Graphics/SVG/1.1/DTD/svg11.dtd">
<svg version="1.1" id="Layer_1" xmlns="http://www.w3.org/2000/svg" xmlns:xlink="http://www.w3.org/1999/xlink" x="0px" y="0px"
	 viewBox="0 0 52 52" style="enable-background:new 0 0 52 52;" xml:space="preserve">
<g>
	<path d="M29.8,51h-7.7l-1.2-7.3c-1.3-0.4-2.6-0.9-3.8-1.6l-6,4.2l-5.4-5.4l4.3-6c-0.7-1.2-1.2-2.5-1.6-3.9L1,29.8v-7.7l7.3-1.2
		c0.4-1.3,0.9-2.6,1.6-3.9l-4.2-6l5.4-5.4l6,4.3c1.2-0.7,2.5-1.2,3.8-1.6L22.1,1h7.7l1.3,7.3c1.3,0.4,2.6,0.9,3.8,1.6l6-4.3l5.4,5.4
		l-4.3,6.1c0.7,1.2,1.2,2.5,1.6,3.8l7.3,1.2v7.7l-7.3,1.3c-0.4,1.3-0.9,2.6-1.6,3.8l4.3,6L41,46.4l-6.1-4.3
		c-1.2,0.7-2.5,1.2-3.8,1.6L29.8,51z M23.8,49h4.3l1.2-6.9l0.6-0.2c1.6-0.4,3.1-1,4.5-1.9l0.6-0.3l5.8,4l3-3.1L39.7,35l0.3-0.6
		c0.8-1.4,1.5-2.9,1.8-4.5l0.2-0.6l7-1.2v-4.3l-7-1.1L41.9,22c-0.4-1.6-1-3.1-1.8-4.5L39.7,17l4.1-5.8l-3-3L35,12.3l-0.6-0.3
		c-1.4-0.8-2.9-1.5-4.5-1.9l-0.6-0.2L28.1,3h-4.3l-1.1,6.9L22,10.1c-1.6,0.4-3.1,1-4.5,1.8L17,12.2l-5.7-4.1l-3.1,3l4,5.7l-0.3,0.6
		c-0.8,1.4-1.5,2.9-1.9,4.5l-0.2,0.6L3,23.8v4.3l6.9,1.2L10,30c0.4,1.6,1,3.1,1.9,4.5l0.3,0.6l-4.1,5.7l3,3.1l5.7-4l0.6,0.3
		c1.4,0.8,2.9,1.5,4.5,1.9l0.6,0.2L23.8,49z M26,35c-5,0-9-4-9-9c0-5,4-9,9-9c5,0,9,4,9,9C35,31,31,35,26,35z M26,19
		c-3.9,0-7,3.1-7,7c0,3.9,3.1,7,7,7c3.9,0,7-3.1,7-7C33,22.1,29.9,19,26,19z"/>
</g>
<g>
	<path d="M29.8,51h-7.7l-1.2-7.3c-1.3-0.4-2.6-0.9-3.8-1.6l-6,4.2l-5.4-5.4l4.3-6c-0.7-1.2-1.2-2.5-1.6-3.9L1,29.8v-7.7l7.3-1.2
		c0.4-1.3,0.9-2.6,1.6-3.9l-4.2-6l5.4-5.4l6,4.3c1.2-0.7,2.5-1.2,3.8-1.6L22.1,1h7.7l1.3,7.3c1.3,0.4,2.6,0.9,3.8,1.6l6-4.3l5.4,5.4
		l-4.3,6.1c0.7,1.2,1.2,2.5,1.6,3.8l7.3,1.2v7.7l-7.3,1.3c-0.4,1.3-0.9,2.6-1.6,3.8l4.3,6L41,46.4l-6.1-4.3
		c-1.2,0.7-2.5,1.2-3.8,1.6L29.8,51z M23.8,49h4.3l1.2-6.9l0.6-0.2c1.6-0.4,3.1-1,4.5-1.9l0.6-0.3l5.8,4l3-3.1L39.7,35l0.3-0.6
		c0.8-1.4,1.5-2.9,1.8-4.5l0.2-0.6l7-1.2v-4.3l-7-1.1L41.9,22c-0.4-1.6-1-3.1-1.8-4.5L39.7,17l4.1-5.8l-3-3L35,12.3l-0.6-0.3
		c-1.4-0.8-2.9-1.5-4.5-1.9l-0.6-0.2L28.1,3h-4.3l-1.1,6.9L22,10.1c-1.6,0.4-3.1,1-4.5,1.8L17,12.2l-5.7-4.1l-3.1,3l4,5.7l-0.3,0.6
		c-0.8,1.4-1.5,2.9-1.9,4.5l-0.2,0.6L3,23.8v4.3l6.9,1.2L10,30c0.4,1.6,1,3.1,1.9,4.5l0.3,0.6l-4.1,5.7l3,3.1l5.7-4l0.6,0.3
		c1.4,0.8,2.9,1.5,4.5,1.9l0.6,0.2L23.8,49z M26,35c-5,0-9-4-9-9c0-5,4-9,9-9c5,0,9,4,9,9C35,31,31,35,26,35z M26,19
		c-3.9,0-7,3.1-7,7c0,3.9,3.1,7,7,7c3.9,0,7-3.1,7-7C33,22.1,29.9,19,26,19z"/>
</g>
</svg>
