<?xml version="1.0" encoding="utf-8"?>
<!-- Generator: Adobe Illustrator 18.1.1, SVG Export Plug-In . SVG Version: 6.00 Build 0)  -->
<!DOCTYPE svg PUBLIC "-//W3C//DTD SVG 1.1//EN" "http://www.w3.org/Graphics/SVG/1.1/DTD/svg11.dtd">
<svg version="1.1" id="Layer_1" xmlns="http://www.w3.org/2000/svg" xmlns:xlink="http://www.w3.org/1999/xlink" x="0px" y="0px"
	 viewBox="0 0 56 56" style="enable-background:new 0 0 56 56;" xml:space="preserve">
<style type="text/css">
	.Drop_x0020_Shadow{fill:none;}
	.Outer_x0020_Glow_x0020_5_x0020_pt{fill:none;}
	.Blue_x0020_Neon{fill:none;stroke:#8AACDA;stroke-width:7;stroke-linecap:round;stroke-linejoin:round;}
	.Chrome_x0020_Highlight{fill:url(#SVGID_1_);stroke:#FFFFFF;stroke-width:0.3629;stroke-miterlimit:1;}
	.Jive_GS{fill:#FFDD00;}
	.Alyssa_GS{fill:#A6D0E4;}
</style>
<linearGradient id="SVGID_1_" gradientUnits="userSpaceOnUse" x1="-472" y1="-222.0179" x2="-472" y2="-223.0179">
	<stop  offset="0" style="stop-color:#656565"/>
	<stop  offset="0.618" style="stop-color:#1B1B1B"/>
	<stop  offset="0.6292" style="stop-color:#545454"/>
	<stop  offset="0.9831" style="stop-color:#3E3E3E"/>
</linearGradient>
<path d="M53,30.9c-0.2-3.6-2.6-4.7-4.4-5.5c-0.9-0.4-1.5-0.8-1.8-1.4c0-0.6,0.2-1,0.2-1.5v-0.1c0-0.6,0.7-1.5,0.9-2.4
	c0.4-0.3,0.8-0.9,1-2.1c0.1-0.6-0.1-1.1-0.3-1.5c0.3-1.3,0.9-4-0.3-5.8C47.8,9.8,47,9.3,46,9c-0.6-0.7-1.7-1-3.1-1h0
	c-2.1,0-3.7,0.7-4.7,2c-1.1,1.5-1.3,3.6-0.7,6.4c-0.2,0.4-0.4,0.9-0.3,1.5c0.1,1.2,0.4,1.8,0.9,2.1c0.2,0.9,0.9,1.8,0.9,2.4v0.1
	c0,0.5,0.2,1,0.2,1.5c-0.1,0.3-0.3,0.5-0.7,0.7c-0.9-2.5-3.1-3.6-4.7-4.3c-1-0.5-1.6-0.8-1.9-1.4c0-0.6,0.2-1,0.2-1.5v-0.1
	c0-0.6,0.7-1.5,0.9-2.4c0.4-0.3,0.8-0.9,1-2.1c0.1-0.6-0.1-1.1-0.3-1.5c0.3-1.3,0.9-4-0.3-5.8C32.8,4.8,32,4.3,31,4
	c-0.5-0.5-1.4-1-3.1-1c-2.1,0-3.7,0.7-4.7,2c-1.1,1.5-1.3,3.6-0.7,6.4c-0.2,0.4-0.4,0.9-0.3,1.5c0.1,1.2,0.4,1.8,0.9,2.1
	c0.2,0.9,0.9,1.8,0.9,2.4v0.1c0,0.5,0.2,1,0.2,1.5c-0.3,0.5-1,0.9-2,1.4c-1.7,0.8-3.8,1.8-4.7,4.3c-0.4-0.2-0.5-0.4-0.6-0.7
	c0-0.6,0.2-1,0.2-1.5v-0.1c0-0.6,0.7-1.5,0.9-2.4c0.4-0.3,0.8-0.9,1-2.1c0.1-0.6-0.1-1.1-0.4-1.5c0.6-2.8,0.4-5-0.7-6.4
	c-1-1.3-2.6-2-4.7-2c-1.4,0-2.4,0.4-3.1,1c-1,0.2-1.7,0.8-2.2,1.6c-1.1,1.8-0.6,4.6-0.3,5.8c-0.2,0.4-0.4,0.9-0.3,1.5
	c0.1,1.2,0.4,1.8,0.9,2.1C8.3,20.9,9,21.8,9,22.4v0.1c0,0.5,0.2,1,0.2,1.5c-0.3,0.6-1,1-1.9,1.4c-1.7,0.8-4,2-4.3,5.6v11
	c0,0.1,0,0.1,0,0.2c0.1,0.3,1.7,7.8,13.7,10.7c0.3,0.1,0.6,0,0.9-0.2c0.2-0.2,0.4-0.5,0.4-0.8l0-0.9c0.2-2.6,2.1-3.4,4.3-4.2
	c1.6-0.6,3.2-1.3,3.8-2.8c0-0.1,0.1-0.2,0.1-0.3c0.1-0.8,0.1-1.4,0.1-2l0-0.5c0-0.4-0.1-0.7-0.5-0.8c-0.2-0.2-0.8-1.2-0.9-2.2
	c0-0.4-0.4-0.8-0.8-0.9c-0.1-0.1-0.2-0.3-0.2-0.8c0-0.2,0-0.3,0-0.3c0.4-0.2,0.5-0.7,0.4-1.1c-0.7-2.6-0.6-4.6,0.3-5.8
	c0.7-0.9,1.8-1.3,3.5-1.3c1.1,0,1.7,0.3,1.8,0.5c0.2,0.3,0.4,0.5,0.7,0.5c0.7,0.1,1.1,0.4,1.4,0.8c0.8,1.3,0.3,4-0.1,5.2
	c-0.1,0.4,0,0.9,0.4,1.1c0,0,0.1,0.1,0,0.3c-0.1,0.5-0.2,0.7-0.2,0.8c-0.4,0.1-0.8,0.4-0.8,0.9c-0.1,0.9-0.7,2-0.8,2.1
	c-0.3,0.2-0.5,0.5-0.5,0.9l0,0.5c0,0.6,0,1.2,0.1,2c0,0.1,0,0.2,0.1,0.3c0.6,1.5,2.2,2.2,3.8,2.8c2.1,0.9,4.1,1.7,4.2,4.2v1
	c0,0.3,0.1,0.6,0.4,0.8c0.2,0.1,0.4,0.2,0.6,0.2c0.1,0,0.2,0,0.2,0c12-3,13.7-10.4,13.7-10.7c0-0.1,0-0.1,0-0.2L53,30.9z M51,41.9
	c-0.2,0.8-1.9,6.2-11,8.8c-0.3-3.6-3.3-4.8-5.5-5.7c-1.2-0.5-2.2-0.9-2.5-1.6c0-0.6,0-1.1,0-1.7v-0.1c0-0.6,0.9-1.7,1.2-2.6
	c0.5-0.3,0.9-0.9,1.1-2.3c0.1-0.7-0.1-1.2-0.3-1.6c0.4-1.3,1-4.3-0.3-6.3c-0.5-0.9-1.4-1.4-2.4-1.7c-0.7-0.7-1.8-1.1-3.3-1.1
	c0,0,0,0,0,0c-2.3,0-4,0.8-5.1,2.1c-1.2,1.6-1.4,3.9-0.7,6.9c-0.3,0.4-0.4,0.9-0.3,1.6c0.2,1.3,0.6,1.9,1,2.3c0.2,0.9,1.2,2,1.2,2.6
	v0.1c0,0.6,0.1,1.1,0,1.7c-0.3,0.6-1.4,1.1-2.6,1.6c-2.2,0.9-5.1,2.1-5.5,5.7c-9.1-2.7-10.8-8-11-8.8L5,31c0.1-2.4,1.6-3,3.2-3.8
	c1.2-0.6,2.5-1.2,3.1-2.6c0-0.1,0.1-0.2,0.1-0.3c0.1-0.7,0.1-1.3,0.1-1.9l0-0.5c0-0.3-0.2-0.7-0.5-0.8c-0.2-0.2-0.7-1.1-0.8-1.9
	c0-0.4-0.4-0.8-0.8-0.9c0-0.1-0.1-0.3-0.2-0.7c0-0.1,0-0.2,0-0.2c0.4-0.2,0.5-0.7,0.4-1.1c-0.4-1.1-0.9-3.5-0.1-4.7
	c0.3-0.4,0.7-0.7,1.2-0.7c0.3,0,0.6-0.2,0.7-0.5c0.1-0.2,0.7-0.4,1.6-0.4c1.5,0,2.6,0.4,3.1,1.2c0.8,1,0.9,2.8,0.2,5.2
	c-0.1,0.4,0,0.8,0.4,1c0,0,0,0.1,0,0.2c0,0.4-0.1,0.6-0.2,0.7c-0.4,0.1-0.7,0.4-0.8,0.9c-0.1,0.8-0.6,1.8-0.7,1.9
	c-0.3,0.2-0.5,0.5-0.5,0.9l0,0.5c0,0.6,0,1.1,0.1,1.9c0,0.1,0,0.2,0.1,0.3c0.5,1.3,1.8,1.9,3,2.4c0.3,0.1,0.6,0.1,0.9-0.1
	s0.4-0.4,0.5-0.7c0.4-2.4,2.2-3.2,4-4.1c1.3-0.6,2.7-1.2,3.2-2.6c0-0.1,0.1-0.2,0.1-0.3c0.1-0.7,0.1-1.3,0.1-1.9l0-0.5
	c0-0.4-0.1-0.7-0.5-0.8c-0.2-0.2-0.7-1.1-0.8-1.9c0-0.4-0.4-0.8-0.8-0.9c0-0.1-0.1-0.3-0.2-0.7c0-0.1,0-0.2,0-0.2
	c0.4-0.2,0.5-0.7,0.4-1.1C24,9,24,7.2,24.8,6.2C25.4,5.4,26.5,5,27.9,5c1.1,0,1.5,0.3,1.6,0.4c0.2,0.3,0.4,0.5,0.7,0.5
	c0.6,0.1,1,0.3,1.2,0.7c0.7,1.2,0.3,3.6-0.1,4.7c-0.1,0.4,0,0.9,0.4,1.1c0,0,0,0.1,0,0.2c0,0.4-0.1,0.6-0.2,0.7
	c-0.4,0.1-0.7,0.4-0.8,0.9c-0.1,0.8-0.6,1.7-0.8,1.9c-0.3,0.2-0.5,0.5-0.5,0.8l0,0.5c0,0.6,0,1.1,0.1,1.9c0,0.1,0,0.2,0.1,0.3
	c0.5,1.4,1.9,2,3.2,2.6c1.8,0.8,3.5,1.6,4,4.1c0.1,0.3,0.2,0.6,0.5,0.7c0.3,0.1,0.6,0.2,0.9,0.1c1.2-0.5,2.5-1.1,3-2.4
	c0-0.1,0.1-0.2,0.1-0.3c0.1-0.7,0.1-1.3,0.1-1.9l0-0.5c0-0.4-0.1-0.7-0.5-0.8c-0.2-0.2-0.7-1.1-0.8-1.9c0-0.4-0.4-0.8-0.8-0.9
	c0-0.1-0.1-0.3-0.2-0.7c0-0.1,0-0.2,0-0.2c0.4-0.2,0.5-0.7,0.4-1.1C39,14,39,12.2,39.8,11.2c0.6-0.8,1.6-1.2,3.1-1.2
	c0.9,0,1.5,0.2,1.6,0.5c0.2,0.3,0.4,0.5,0.7,0.5c0.6,0.1,1,0.3,1.2,0.7c0.7,1.2,0.3,3.6-0.1,4.7c-0.1,0.4,0,0.9,0.4,1.1
	c0,0,0,0.1,0,0.2c0,0.4-0.1,0.6-0.2,0.7c-0.4,0.1-0.7,0.4-0.8,0.9c-0.1,0.8-0.6,1.7-0.8,1.9c-0.3,0.2-0.5,0.5-0.5,0.8l0,0.5
	c0,0.6,0,1.1,0.1,1.9c0,0.1,0,0.2,0.1,0.3c0.5,1.4,1.8,2,3,2.6c1.6,0.8,3.1,1.5,3.2,3.8V41.9z"/>
</svg>
