<?xml version="1.0" encoding="utf-8"?>
<!-- Generator: Adobe Illustrator 18.1.1, SVG Export Plug-In . SVG Version: 6.00 Build 0)  -->
<!DOCTYPE svg PUBLIC "-//W3C//DTD SVG 1.1//EN" "http://www.w3.org/Graphics/SVG/1.1/DTD/svg11.dtd">
<svg version="1.1" id="Layer_1" xmlns="http://www.w3.org/2000/svg" xmlns:xlink="http://www.w3.org/1999/xlink" x="0px" y="0px"
	 viewBox="0 0 103.4 111" style="enable-background:new 0 0 103.4 111;" xml:space="preserve">
<g>
	<path d="M87.6,61.1c0-8.2-6.6-14.8-14.8-14.8C64.6,46.3,58,53,58,61.1c0,8.2,6.6,14.8,14.8,14.8C80.9,75.9,87.6,69.3,87.6,61.1z
		 M72.8,74.2c-7.3,0-13.1-5.9-13.1-13.1c0-7.2,5.9-13.1,13.1-13.1c7.2,0,13.1,5.9,13.1,13.1C85.9,68.4,80,74.2,72.8,74.2z"/>
	<path d="M76.6,55.9v-2.2c0-0.3-0.2-0.6-0.5-0.8c-0.3-0.1-0.7-0.1-0.9,0.1l-1.7,1.6c-0.2,0-0.5,0-0.7,0c-3.6,0-6.5,2.9-6.5,6.5
		c0,3.6,2.9,6.5,6.5,6.5s6.5-2.9,6.5-6.5C79.2,59,78.2,57.1,76.6,55.9z M72.8,65.9c-2.6,0-4.8-2.1-4.8-4.8c0-2.6,2.1-4.8,4.8-4.8
		s4.8,2.1,4.8,4.8C77.5,63.8,75.4,65.9,72.8,65.9z"/>
	<path d="M58.3,82.2c-2.6,0-4.6,2.1-4.6,4.6c0,2.6,2.1,4.6,4.6,4.6c2.6,0,4.6-2.1,4.6-4.6C62.9,84.3,60.9,82.2,58.3,82.2z
		 M58.3,89.8c-1.6,0-3-1.3-3-3c0-1.6,1.3-3,3-3c1.6,0,3,1.3,3,3C61.3,88.5,59.9,89.8,58.3,89.8z"/>
	<path d="M88.2,86.8c0-2.6-2.1-4.6-4.6-4.6c-2.6,0-4.6,2.1-4.6,4.6c0,2.6,2.1,4.6,4.6,4.6C86.1,91.5,88.2,89.4,88.2,86.8z
		 M83.6,89.8c-1.6,0-3-1.3-3-3c0-1.6,1.3-3,3-3s3,1.3,3,3C86.5,88.5,85.2,89.8,83.6,89.8z"/>
	<path d="M35.8,85.9H25.6c-1.4,0-2.6,1.1-2.6,2.6c0,1.4,1.2,2.6,2.6,2.6h10.2c1.4,0,2.6-1.1,2.6-2.6C38.4,87.1,37.2,85.9,35.8,85.9z
		 M35.8,89.3H25.6c-0.5,0-0.9-0.4-0.9-0.9c0-0.5,0.4-0.9,0.9-0.9h10.2c0.5,0,0.9,0.4,0.9,0.9C36.7,88.9,36.3,89.3,35.8,89.3z"/>
	<circle cx="25.6" cy="46.8" r="1.7"/>
	<circle cx="30.6" cy="46.8" r="1.7"/>
	<circle cx="35.6" cy="46.8" r="1.7"/>
	<path d="M20.6,50c-0.9,0-1.7,0.7-1.7,1.7c0,0.9,0.7,1.7,1.7,1.7c0.9,0,1.7-0.7,1.7-1.7C22.2,50.8,21.5,50,20.6,50z"/>
	<circle cx="25.6" cy="51.7" r="1.7"/>
	<circle cx="30.6" cy="51.7" r="1.7"/>
	<circle cx="35.6" cy="51.7" r="1.7"/>
	<circle cx="40.6" cy="51.7" r="1.7"/>
	<path d="M15.6,54.9c-0.9,0-1.7,0.7-1.7,1.7c0,0.9,0.7,1.7,1.7,1.7c0.9,0,1.7-0.7,1.7-1.7C17.2,55.7,16.5,54.9,15.6,54.9z"/>
	<path d="M20.6,54.9c-0.9,0-1.7,0.7-1.7,1.7c0,0.9,0.7,1.7,1.7,1.7c0.9,0,1.7-0.7,1.7-1.7C22.2,55.7,21.5,54.9,20.6,54.9z"/>
	<path d="M25.6,58.3c0.9,0,1.7-0.7,1.7-1.7c0-0.9-0.7-1.7-1.7-1.7c-0.9,0-1.7,0.7-1.7,1.7C23.9,57.5,24.6,58.3,25.6,58.3z"/>
	<path d="M30.6,58.3c0.9,0,1.7-0.7,1.7-1.7c0-0.9-0.7-1.7-1.7-1.7s-1.7,0.7-1.7,1.7C28.9,57.5,29.7,58.3,30.6,58.3z"/>
	<path d="M35.6,58.3c0.9,0,1.7-0.7,1.7-1.7c0-0.9-0.7-1.7-1.7-1.7c-0.9,0-1.7,0.7-1.7,1.7C33.9,57.5,34.6,58.3,35.6,58.3z"/>
	<path d="M40.6,54.9c-0.9,0-1.7,0.7-1.7,1.7c0,0.9,0.7,1.7,1.7,1.7c0.9,0,1.7-0.7,1.7-1.7C42.2,55.7,41.5,54.9,40.6,54.9z"/>
	<path d="M45.6,54.9c-0.9,0-1.7,0.7-1.7,1.7c0,0.9,0.7,1.7,1.7,1.7c0.9,0,1.7-0.7,1.7-1.7C47.2,55.7,46.5,54.9,45.6,54.9z"/>
	<path d="M15.6,59.8c-0.9,0-1.7,0.7-1.7,1.7c0,0.9,0.7,1.7,1.7,1.7c0.9,0,1.7-0.7,1.7-1.7C17.2,60.6,16.5,59.8,15.6,59.8z"/>
	<path d="M20.6,59.8c-0.9,0-1.7,0.7-1.7,1.7c0,0.9,0.7,1.7,1.7,1.7c0.9,0,1.7-0.7,1.7-1.7C22.2,60.6,21.5,59.8,20.6,59.8z"/>
	<path d="M25.6,63.2c0.9,0,1.7-0.7,1.7-1.7c0-0.9-0.7-1.7-1.7-1.7c-0.9,0-1.7,0.7-1.7,1.7C23.9,62.4,24.6,63.2,25.6,63.2z"/>
	<path d="M30.6,63.2c0.9,0,1.7-0.7,1.7-1.7c0-0.9-0.7-1.7-1.7-1.7s-1.7,0.7-1.7,1.7C28.9,62.4,29.7,63.2,30.6,63.2z"/>
	<path d="M35.6,63.2c0.9,0,1.7-0.7,1.7-1.7c0-0.9-0.7-1.7-1.7-1.7c-0.9,0-1.7,0.7-1.7,1.7C33.9,62.4,34.6,63.2,35.6,63.2z"/>
	<path d="M40.6,59.8c-0.9,0-1.7,0.7-1.7,1.7c0,0.9,0.7,1.7,1.7,1.7c0.9,0,1.7-0.7,1.7-1.7C42.2,60.6,41.5,59.8,40.6,59.8z"/>
	<path d="M45.6,59.8c-0.9,0-1.7,0.7-1.7,1.7c0,0.9,0.7,1.7,1.7,1.7c0.9,0,1.7-0.7,1.7-1.7C47.2,60.6,46.5,59.8,45.6,59.8z"/>
	<circle cx="15.6" cy="66.4" r="1.7"/>
	<path d="M20.6,64.8c-0.9,0-1.7,0.7-1.7,1.7c0,0.9,0.7,1.7,1.7,1.7c0.9,0,1.7-0.7,1.7-1.7C22.2,65.5,21.5,64.8,20.6,64.8z"/>
	<circle cx="25.6" cy="66.4" r="1.7"/>
	<circle cx="30.6" cy="66.4" r="1.7"/>
	<circle cx="35.6" cy="66.4" r="1.7"/>
	<circle cx="40.6" cy="66.4" r="1.7"/>
	<circle cx="45.6" cy="66.4" r="1.7"/>
	<path d="M20.6,69.7c-0.9,0-1.7,0.7-1.7,1.7c0,0.9,0.7,1.7,1.7,1.7c0.9,0,1.7-0.7,1.7-1.7C22.2,70.4,21.5,69.7,20.6,69.7z"/>
	<path d="M25.6,73c0.9,0,1.7-0.7,1.7-1.7c0-0.9-0.7-1.7-1.7-1.7c-0.9,0-1.7,0.7-1.7,1.7C23.9,72.2,24.6,73,25.6,73z"/>
	<path d="M30.6,73c0.9,0,1.7-0.7,1.7-1.7c0-0.9-0.7-1.7-1.7-1.7s-1.7,0.7-1.7,1.7C28.9,72.2,29.7,73,30.6,73z"/>
	<path d="M35.6,73c0.9,0,1.7-0.7,1.7-1.7c0-0.9-0.7-1.7-1.7-1.7c-0.9,0-1.7,0.7-1.7,1.7C33.9,72.2,34.6,73,35.6,73z"/>
	<path d="M40.6,69.7c-0.9,0-1.7,0.7-1.7,1.7c0,0.9,0.7,1.7,1.7,1.7c0.9,0,1.7-0.7,1.7-1.7C42.2,70.4,41.5,69.7,40.6,69.7z"/>
	<circle cx="25.6" cy="76.2" r="1.7"/>
	<circle cx="30.6" cy="76.2" r="1.7"/>
	<circle cx="35.6" cy="76.2" r="1.7"/>
	<path d="M93.2,35.6l-53.9-28c-0.3-0.2-0.6-0.2-1-0.3c-0.3-0.5-0.8-1-1.4-1.3l-3.6-1.9c-0.8-0.4-1.7-0.6-2.5-0.6
		c-2.1,0-3.9,1.1-4.9,3c-1.4,2.7-0.3,6,2.3,7.4l3.6,1.9c0.5,0.3,1,0.4,1.6,0.4c0.1,0,0.2,0,0.3,0c0.2,0.2,0.5,0.5,0.8,0.6l35.8,18.8
		H11c-4.4,0-7.8,3.5-7.8,7.9v51c0,4.4,3.4,7.9,7.8,7.9h0.4c0.1,2.9,2.3,5.2,4.9,5.2H20c2.7,0,4.8-2.3,4.9-5.2h50.9
		c0.1,2.9,2.3,5.2,4.9,5.2h3.6c2.7,0,4.8-2.3,4.9-5.2h2.9c4.4,0,8-3.6,8-7.9v-51C100.1,39.5,97.1,36.2,93.2,35.6z M79.6,102.6v-1.4
		h5.7v1.4c0,0.8-0.5,1.5-1.1,1.5h-3.6C80.1,104.1,79.6,103.4,79.6,102.6z M15.3,102.6v-1.4H21v1.4c0,0.8-0.5,1.5-1.1,1.5h-3.6
		C15.8,104.1,15.3,103.4,15.3,102.6z M78.8,99.5v-0.1H21.9v0.1h-7.4v-0.1H11c-2.7,0-4.8-2.2-4.8-4.9v-51c0-1.9,1.1-3.6,2.6-4.4
		c0.4-0.2,0.9-0.3,1.4-0.3h82.8c0.2,0,0.3,0,0.5,0.1c2,0.7,3.4,2.5,3.4,4.6v51c0,2.7-2.3,4.9-5,4.9h-5.9v0.1H78.8z M29.9,10.9
		C28.8,10.3,28.4,9,29,8c0.4-0.7,1.1-1.1,1.9-1.1c0.3,0,0.7,0.1,1,0.2l3.4,1.8l-2,3.8L29.9,10.9z M36.5,14.3
		C36.5,14.3,36.5,14.3,36.5,14.3l2-3.8c0,0,0,0,0,0l51.1,26.6H80L36.5,14.3z"/>
</g>
</svg>
