<?xml version="1.0" encoding="utf-8"?>
<!-- Generator: Adobe Illustrator 18.1.1, SVG Export Plug-In . SVG Version: 6.00 Build 0)  -->
<!DOCTYPE svg PUBLIC "-//W3C//DTD SVG 1.1//EN" "http://www.w3.org/Graphics/SVG/1.1/DTD/svg11.dtd">
<svg version="1.1" id="Layer_1" xmlns="http://www.w3.org/2000/svg" xmlns:xlink="http://www.w3.org/1999/xlink" x="0px" y="0px"
	 viewBox="0 0 53.6 53.6" style="enable-background:new 0 0 53.6 53.6;" xml:space="preserve">
<style type="text/css">
	.Drop_x0020_Shadow{fill:none;}
	.Outer_x0020_Glow_x0020_5_x0020_pt{fill:none;}
	.Blue_x0020_Neon{fill:none;stroke:#8AACDA;stroke-width:7;stroke-linecap:round;stroke-linejoin:round;}
	.Chrome_x0020_Highlight{fill:url(#SVGID_1_);stroke:#FFFFFF;stroke-width:0.3629;stroke-miterlimit:1;}
	.Jive_GS{fill:#FFDD00;}
	.Alyssa_GS{fill:#A6D0E4;}
</style>
<linearGradient id="SVGID_1_" gradientUnits="userSpaceOnUse" x1="-473.1641" y1="-223.0472" x2="-473.1641" y2="-224.0472">
	<stop  offset="0" style="stop-color:#656565"/>
	<stop  offset="0.618" style="stop-color:#1B1B1B"/>
	<stop  offset="0.6292" style="stop-color:#545454"/>
	<stop  offset="0.9831" style="stop-color:#3E3E3E"/>
</linearGradient>
<path d="M41.8,31.8c-2.1,0-4.1,0.7-5.7,1.8l-13.6-6.8L36.1,20c1.6,1.1,3.6,1.8,5.7,1.8c5.5,0,10-4.5,10-10s-4.5-10-10-10
	c-5.5,0-9.9,4.4-10,9.9l-14.1,7.1c-1.7-1.2-3.7-1.9-5.9-1.9c-5.5,0-10,4.5-10,10s4.5,10,10,10c2.2,0,4.2-0.7,5.9-1.9l14.1,7.1
	c0.1,5.5,4.5,9.9,10,9.9c5.5,0,10-4.5,10-10S47.3,31.8,41.8,31.8z M32,39.8l-12.7-6.4c1.2-1.3,2-3,2.4-4.8L34.5,35
	C33.3,36.3,32.4,38,32,39.8z M34.5,18.6L21.6,25c-0.3-1.8-1.2-3.5-2.4-4.8L32,13.8C32.4,15.6,33.3,17.3,34.5,18.6z M41.8,3.8
	c4.4,0,8,3.6,8,8s-3.6,8-8,8s-8-3.6-8-8S37.4,3.8,41.8,3.8z M3.8,26.8c0-4.4,3.6-8,8-8s8,3.6,8,8c0,4.4-3.6,8-8,8S3.8,31.2,3.8,26.8
	z M41.8,49.8c-4.4,0-8-3.6-8-8s3.6-8,8-8s8,3.6,8,8S46.2,49.8,41.8,49.8z"/>
</svg>
