<?xml version="1.0" encoding="utf-8"?>
<!-- Generator: Adobe Illustrator 18.1.1, SVG Export Plug-In . SVG Version: 6.00 Build 0)  -->
<!DOCTYPE svg PUBLIC "-//W3C//DTD SVG 1.1//EN" "http://www.w3.org/Graphics/SVG/1.1/DTD/svg11.dtd" [
	<!ENTITY st0 "fill:#231F20;">
]>
<svg version="1.1" id="Layer_1" xmlns="http://www.w3.org/2000/svg" xmlns:xlink="http://www.w3.org/1999/xlink" x="0px" y="0px"
	 viewBox="0 0 62.8 62.8" style="enable-background:new 0 0 62.8 62.8;" xml:space="preserve">
<g>
	<path style="&st0;" d="M58.1,2.7c-1.8-0.8-3.7-0.4-4.4,0.9l-9.9,18.7c-1.2-0.4-2.3-0.7-3.4-0.7c-3.2,0-5.8,1.8-7.2,5c0,0,0,0,0,0
		c0,0,0,0,0,0C27.9,40,14,41.8,10.6,41.6c-0.5,0-0.9,0.2-1.1,0.6c-0.2,0.4-0.2,0.8,0.1,1.1c13.1,16.2,31.9,16.9,32.7,16.9
		c0,0,0,0,0,0c0.2,0,0.4,0.1,0.6,0c0.4-0.2,9.3-5.9,14.1-23.1c1.7-4,0-8.7-3.9-10.7l7.2-19.9C60.9,5.2,59.9,3.5,58.1,2.7z M53.4,41
		c-1.3,0-3.8-0.3-4.6-1.9c-0.3-0.5-0.9-0.8-1.4-0.6c-0.6,0.2-1.6,0.1-2.5-0.4c-0.8-0.4-1.4-1-1.6-1.6c-0.1-0.3-0.3-0.6-0.6-0.7
		c-0.3-0.1-0.7-0.1-1,0c-0.4,0.2-1.5,0.1-2.5-0.4c-0.7-0.4-1.3-0.9-1.3-1.3c-0.1-0.3-0.2-0.6-0.5-0.8c-0.3-0.2-0.6-0.2-0.9-0.1
		c-1.4,0.4-2.6-0.5-3.2-1.2c0.6-0.9,1.1-1.9,1.6-2.9c0.8,0.6,2,1.3,3.4,1.4c1.1,1.5,3.8,2.6,5.5,2.6c1.1,1.6,3.7,2.7,5.5,2.5
		c1.2,1.7,3.6,2.2,5.3,2.4C54.1,38.9,53.7,40,53.4,41z M42,58.1c-0.8-0.1-3.1-0.3-6.1-1c1.5-1,4.6-3.8,7.8-10.5
		c-5.3,6.5-10.7,8.3-13.4,8.7c-2-0.8-4.2-1.7-6.4-3c1.2-0.8,3.7-2.9,5.7-6.5c-3.4,2.4-7.7,3.8-9.4,4.3c-2.5-1.7-4.9-3.8-7.2-6.3
		c4.2-0.4,12.9-2.2,18.8-9.9c0.9,0.8,2.3,1.8,4.1,1.6c0.4,0.7,1.2,1.4,2.2,1.9c0.9,0.5,2.2,0.9,3.4,0.8c0.5,0.8,1.3,1.5,2.3,2
		c1.1,0.6,2.4,0.8,3.4,0.7c1.3,1.7,3.7,2.2,5.3,2.3C48.4,52.9,43.2,57.2,42,58.1z M55.2,35.6c-1.6-0.1-4-0.6-4.4-1.8
		c-0.1-0.3-0.3-0.6-0.7-0.7c-0.1-0.1-0.3-0.1-0.4-0.1c-0.2,0-0.3,0-0.5,0.1c-0.2,0.1-0.4,0.1-0.6,0.1c-1.4,0-3-1.2-3.1-1.7
		c-0.1-0.4-0.3-0.7-0.6-0.8c-0.3-0.2-0.7-0.2-1-0.1c0,0-0.1,0-0.3,0c-1.3,0-3.3-1.1-3.6-1.6c-0.1-0.6-0.6-1-1.3-0.9
		c-1.1,0.1-2.3-0.6-3-1.2c1.6-2.7,4.4-3.6,7.6-2.3c0.1,0,0.3,0.1,0.5,0.2c0,0,0,0,0,0c0,0,0,0,0,0c1.4,0.6,4.9,2.2,6.7,3l1.4,0.6
		C54.6,29.6,56,32.7,55.2,35.6z M51,25.5c-1.5-0.7-3.6-1.6-5.1-2.3l9.8-18.5c0.1-0.1,0.7-0.2,1.4,0.1c0.7,0.3,1,0.8,1,0.9L51,25.5z"
		/>
	<path style="&st0;" d="M11.6,16.3c0-2.6-2.1-4.7-4.7-4.7c-2.6,0-4.7,2.1-4.7,4.7c0,2.6,2.1,4.7,4.7,4.7
		C9.5,20.9,11.6,18.8,11.6,16.3z M7,18.6c-1.3,0-2.3-1-2.3-2.3c0-1.3,1-2.3,2.3-2.3c1.3,0,2.3,1,2.3,2.3C9.3,17.6,8.3,18.6,7,18.6z"
		/>
	<path style="&st0;" d="M17.4,19.8c1.3,0,2.3-1,2.3-2.3s-1-2.3-2.3-2.3c-1.3,0-2.3,1-2.3,2.3S16.2,19.8,17.4,19.8z"/>
	<path style="&st0;" d="M15.7,36.1c3.5,0,6.4-2.9,6.4-6.4c0-3.5-2.9-6.4-6.4-6.4c-3.5,0-6.4,2.9-6.4,6.4
		C9.3,33.2,12.2,36.1,15.7,36.1z M15.7,25.6c2.2,0,4.1,1.8,4.1,4.1c0,2.2-1.8,4.1-4.1,4.1c-2.2,0-4.1-1.8-4.1-4.1
		C11.6,27.4,13.4,25.6,15.7,25.6z"/>
</g>
</svg>
