<?xml version="1.0" encoding="utf-8"?>
<!-- Generator: Adobe Illustrator 18.1.1, SVG Export Plug-In . SVG Version: 6.00 Build 0)  -->
<!DOCTYPE svg PUBLIC "-//W3C//DTD SVG 1.1//EN" "http://www.w3.org/Graphics/SVG/1.1/DTD/svg11.dtd">
<svg version="1.1" id="Layer_1" xmlns="http://www.w3.org/2000/svg" xmlns:xlink="http://www.w3.org/1999/xlink" x="0px" y="0px"
	 viewBox="0 0 44.9 28.7" style="enable-background:new 0 0 44.9 28.7;" xml:space="preserve">
<path d="M42.6,0H2.1C0.9,0,0,1.1,0,2.4v24.4c0,1.3,0.9,2,2.1,2h40.5c1.3,0,2.3-1,2.3-2.3V2.3C44.9,1,43.8,0,42.6,0z M15.7,13.8
	c0.7,0.5,1.3,0.9,1.9,1.2l0.1,0.1c0.9,0.5,3.3,1.8,5,1.8c1.6,0,4.3-1.7,5.1-2.2c0.4-0.3,1-0.7,1.5-1l13,13.3l-39.8,0L15.7,13.8z
	 M1.9,26.1V3.8c2.6,2,8.7,6.5,12.9,9.5L1.9,26.1z M30.1,13c4.1-2.9,10.2-7.6,12.9-9.7l0,22.9L30.1,13z M43.1,1.8v0.3
	c-2.8,2.1-12,9.2-15.9,11.7c-1.2,0.8-3.5,2.1-4.6,2.1c-1.4,0-3.6-1-4.4-1.6l-0.1-0.1C14,11.6,4.5,4.5,1.9,2.5V1.8H43.1z"/>
</svg>
