<?xml version="1.0" encoding="utf-8"?>
<!-- Generator: Adobe Illustrator 18.1.1, SVG Export Plug-In . SVG Version: 6.00 Build 0)  -->
<!DOCTYPE svg PUBLIC "-//W3C//DTD SVG 1.1//EN" "http://www.w3.org/Graphics/SVG/1.1/DTD/svg11.dtd">
<svg version="1.1" id="Layer_1" xmlns="http://www.w3.org/2000/svg" xmlns:xlink="http://www.w3.org/1999/xlink" x="0px" y="0px"
	 viewBox="0 0 106.7 113.4" style="enable-background:new 0 0 106.7 113.4;" xml:space="preserve">
<g>
	<path d="M84,4.7L28,4.8L4.5,49.4h97.7L84,4.7z M30.1,5.8l51.6-0.1l14.6,40.6l-85.8,0L30.1,5.8z"/>
	<polygon points="73.2,10.9 37.9,11 37.5,12.3 73.5,12.2 	"/>
	<polygon points="75.3,21 66.8,21 67,22.7 75.7,22.7 	"/>
	<polygon points="34.6,21 34.1,22.7 58.3,22.7 58.3,21 	"/>
	<polygon points="32.2,28.3 58.2,28.2 58.3,26.3 32.9,26.3 	"/>
	<polygon points="76.4,26.3 67.3,26.3 67.5,28.2 76.8,28.2 	"/>
	<polygon points="30.1,34.7 58.1,34.6 58.1,32.4 30.9,32.4 	"/>
	<polygon points="67.9,32.4 68.1,34.6 78.2,34.6 77.7,32.4 	"/>
	<polygon points="94.8,70.6 96.4,74.9 10.6,74.9 12.7,70.6 8.3,70.6 4.5,77.9 102.2,77.9 99.2,70.6 	"/>
	<polygon points="94.8,89 96.4,93.3 10.6,93.3 12.7,89 8.3,89 4.5,96.3 102.2,96.3 99.2,89 	"/>
	<path d="M26.9,79.4h-2.6l-5.9,10.3h70l-6.6-10.3h-2.6l1.3,2.2c0.2,0.4-0.5,0.7-1.5,1c-0.7,0.2-1.3,0.5-1.7,0.9
		C77,83.9,77,84.4,76.9,85c-0.1,1.4-0.3,2.1-1.8,2.1H53.8l-0.1-1.3c5.2-0.2,9.1-2.9,10-6.4h-2.9c-1.2,2.4-4.1,4.1-7.7,4.1
		c-3.7,0-6.7-1.7-8-4.1h-2.9c1.2,3.3,4.9,6,9.9,6.4l0,1.3H31.3c-1.5,0-1.8-0.7-1.9-2.1c-0.1-0.6-0.1-1.1-0.4-1.4
		c-0.3-0.4-1-0.7-1.7-0.9c-1-0.3-1.7-0.6-1.5-1L26.9,79.4z M80.2,85.2c0.1-0.1,0.6-0.3,1-0.4c0.3-0.1,0.6-0.2,0.9-0.4l1.6,2.7
		l-3.5,0c0.1-0.4,0.1-0.8,0.1-1.2C80.1,85.7,80.1,85.3,80.2,85.2z M26.2,85.2c0.1,0.1,0.1,0.5,0.1,0.8c0,0.3,0,0.7,0.1,1.2l-3.5,0
		l1.4-2.7c0.3,0.1,0.6,0.3,0.9,0.4C25.6,84.9,26.1,85.1,26.2,85.2z"/>
	<path d="M79.1,100l1.3,2.2c0.2,0.4-0.5,0.7-1.5,1c-0.7,0.2-1.3,0.5-1.7,0.9c-0.3,0.4-0.3,0.9-0.3,1.4c-0.1,1.4-0.3,2.1-1.8,2.1
		H53.8l-0.1-1.3c5.2-0.2,9.1-2.9,10-6.4h-2.9c-1.2,2.4-4.1,4.1-7.7,4.1c-3.7,0-6.7-1.7-8-4.1h-2.9c1.2,3.3,4.9,6,9.9,6.4l0,1.3H31.3
		c-1.5,0-1.8-0.7-1.9-2.1c-0.1-0.6-0.1-1.1-0.4-1.4c-0.3-0.4-1-0.7-1.7-0.9c-1-0.3-1.7-0.6-1.5-1l1.1-2.2h-2.6l-5.9,10.3h70
		L81.7,100H79.1z M22.9,107.7l1.4-2.7c0.3,0.1,0.6,0.3,0.9,0.4c0.3,0.1,0.9,0.3,1,0.4c0.1,0.1,0.1,0.5,0.1,0.8c0,0.3,0,0.7,0.1,1.2
		L22.9,107.7z M83.6,107.7l-3.5,0c0.1-0.4,0.1-0.8,0.1-1.2c0-0.3,0-0.7,0-0.7c0.1-0.1,0.6-0.3,1-0.4c0.3-0.1,0.6-0.2,0.9-0.4
		L83.6,107.7z"/>
	<polygon points="94.8,79.4 96.4,83.7 88.9,83.7 89.6,86.8 102.2,86.8 99.2,79.4 	"/>
	<polygon points="8.3,79.4 4.5,86.8 17.1,86.8 18.3,83.7 10.6,83.7 12.7,79.4 	"/>
	<polygon points="94.8,51.7 96.4,56 10.6,56 12.7,51.7 8.3,51.7 4.5,59.1 102.2,59.1 99.2,51.7 	"/>
	<path d="M26.9,60.6h-2.6l-5.9,10.3h70l-6.6-10.3h-2.6l1.3,2.2c0.2,0.4-0.5,0.7-1.5,1c-0.7,0.2-1.3,0.5-1.7,0.9
		c-0.3,0.4-0.3,0.9-0.3,1.4c-0.1,1.4-0.3,2.1-1.8,2.1H53.8L53.7,67c5.2-0.2,9.1-2.9,10-6.4h-2.9c-1.2,2.4-4.1,4.1-7.7,4.1
		c-3.7,0-6.7-1.7-8-4.1h-2.9c1.2,3.3,4.9,6,9.9,6.4l0,1.3H31.3c-1.5,0-1.8-0.7-1.9-2.1c-0.1-0.6-0.1-1.1-0.4-1.4
		c-0.3-0.4-1-0.7-1.7-0.9c-1-0.3-1.7-0.6-1.5-1L26.9,60.6z M80.2,66.4c0.1-0.1,0.6-0.3,1-0.4c0.3-0.1,0.6-0.2,0.9-0.4l1.6,2.7
		l-3.5,0c0.1-0.4,0.1-0.8,0.1-1.2C80.1,66.8,80.1,66.5,80.2,66.4z M26.2,66.4c0.1,0.1,0.1,0.5,0.1,0.8c0,0.3,0,0.7,0.1,1.2l-3.5,0
		l1.4-2.7c0.3,0.1,0.6,0.3,0.9,0.4C25.6,66.1,26.1,66.3,26.2,66.4z"/>
	<polygon points="94.8,60.6 96.4,64.9 88.9,64.9 89.6,67.9 102.2,67.9 99.2,60.6 	"/>
	<polygon points="8.3,60.6 4.5,67.9 17.1,67.9 18.3,64.9 10.6,64.9 12.7,60.6 	"/>
	<polygon points="94.8,99.4 96.4,103.7 88.9,103.7 89.6,106.7 102.2,106.7 99.2,99.4 	"/>
	<polygon points="12.7,99.4 8.3,99.4 4.5,106.7 17.1,106.7 18.3,103.7 10.6,103.7 	"/>
</g>
</svg>
