<?xml version="1.0" encoding="utf-8"?>
<!-- Generator: Adobe Illustrator 18.1.1, SVG Export Plug-In . SVG Version: 6.00 Build 0)  -->
<!DOCTYPE svg PUBLIC "-//W3C//DTD SVG 1.1//EN" "http://www.w3.org/Graphics/SVG/1.1/DTD/svg11.dtd">
<svg version="1.1" id="Layer_1" xmlns="http://www.w3.org/2000/svg" xmlns:xlink="http://www.w3.org/1999/xlink" x="0px" y="0px"
	 viewBox="232.7 19 532 455.1" style="enable-background:new 232.7 19 532 455.1;" xml:space="preserve">
<style type="text/css">
	.st0{fill:#2B2B2B;}
</style>
<g>
	<g>
		<path class="st0" d="M245.9,90.4c-2.1,0-3.7,1.6-3.7,3.7s1.6,3.7,3.7,3.7c79.1,0,143.3,70.1,143.3,156.5c0,2.1,1.6,3.7,3.7,3.7
			s3.7-1.6,3.7-3.7c0-73.2-44.4-135.6-105.8-156.5h161.3c79.1,0,143.3,70.1,143.3,156.5c0,2.1,1.6,3.7,3.7,3.7
			c2.1,0,3.7-1.6,3.7-3.7c0-90.4-67.7-163.9-151-163.9L245.9,90.4L245.9,90.4z M609.2,265.5h-221c-85.7,0-155.5,92-155.5,204.9
			c0,2.1,1.6,3.7,3.7,3.7c2.1,0,3.7-1.6,3.7-3.7c0-108.7,66.4-197.3,148.1-197.3h108.4c-3.2,0.8-5.3,3.7-5.3,7.1v37.5
			c0,4.2,3.4,7.4,7.4,7.4s7.4-3.4,7.4-7.4v-37.5c0-3.4-2.4-6.3-5.3-7.1h108.4c81.7,0,148.1,88.6,148.1,197.3c0,2.1,1.6,3.7,3.7,3.7
			c2.1,0,3.7-1.6,3.7-3.7C764.7,357.5,694.9,265.5,609.2,265.5z M396.6,99.9c-3.2-0.5-6.1,1.3-6.6,4.5c-0.5,3.2,1.3,6.1,4.5,6.6
			c5.6,1.1,10.8,2.1,15.6,3.4c0.5,0,1.1,0.3,1.3,0.3c2.4,0,4.8-1.6,5.6-4.2c0.8-2.9-1.1-6.1-4-6.9C408,102.1,402.4,101,396.6,99.9z
			 M504.8,242.7c0.3,2.9,2.6,5.3,5.6,5.3c0.3,0,0.3,0,0.5,0c3.2-0.3,5.3-2.9,5-6.1c-0.8-7.9-1.6-15.6-2.6-22.7
			c-0.5-3.2-3.4-5.3-6.3-4.8c-3.2,0.5-5.3,3.4-4.8,6.3C503.4,227.7,504.2,235.1,504.8,242.7z M497.9,199.4c0.8,2.6,2.9,4.2,5.6,4.2
			c0.5,0,1.1,0,1.3-0.3c2.9-0.8,4.8-4,4-6.9c-2.1-7.9-4.5-15.3-7.4-22.2c-1.3-2.9-4.5-4.2-7.4-2.9s-4.2,4.5-2.9,7.4
			C493.7,185.1,496,192,497.9,199.4z M475.1,135.4c-2.4-2.1-5.8-2.1-7.9,0.3c-2.1,2.4-2.1,5.8,0.3,7.9c5,4.8,9.8,10.3,13.7,16.1
			c1.1,1.6,2.9,2.6,4.8,2.6c1.1,0,2.1-0.3,3.2-1.1c2.6-1.9,3.2-5.3,1.6-7.9C486,146.7,480.7,140.7,475.1,135.4z M435.2,110.5
			c-2.9-1.1-6.1,0.3-7.4,3.2c-1.3,2.9,0.3,6.1,3.2,7.4c6.9,2.6,13.5,6.1,19.3,9.5c0.8,0.5,1.9,0.8,2.9,0.8c1.9,0,3.7-1.1,4.8-2.6
			c1.6-2.6,0.8-6.1-1.9-7.7C450,117.1,442.9,113.7,435.2,110.5z M236.4,85.7c2.1,0,3.7-1.6,3.7-3.7c0-30.7,41-55.5,91.5-55.5H418
			C387.1,37,365.9,57.9,365.9,82c0,2.1,1.6,3.7,3.7,3.7c2.1,0,3.7-1.6,3.7-3.7c0-30.7,41-55.5,91.5-55.5c2.1,0,3.7-1.6,3.7-3.7
			c0-2.1-1.6-3.7-3.7-3.7H331.6c-54.5,0-98.9,28.3-98.9,62.9C232.7,84.1,234.3,85.7,236.4,85.7z M295.1,75.4c1.9,0,3.4-1.3,3.7-3.2
			c1.1-5.3,2.4-9.5,4-13.5c0.8-1.9,0-4.2-1.9-5c-1.9-0.8-4.2,0-5,1.9c-1.9,4.5-3.4,9.5-4.5,15.3c-0.3,2.1,1.1,4,2.9,4.5
			C294.8,75.4,295.1,75.4,295.1,75.4z M310.4,47.9c3.2-2.9,6.9-5.3,11.6-6.9c1.9-0.8,2.9-2.9,2.1-4.8c-0.8-1.9-2.9-2.9-4.8-2.1
			c-5.6,2.1-10,4.8-14,8.5c-1.6,1.3-1.6,3.7-0.3,5.3c0.8,0.8,1.9,1.3,2.6,1.3C308.8,48.9,309.9,48.7,310.4,47.9z M335.3,37.5
			c0.3,0,0.3,0,0.5,0c4.2-0.5,9-1.1,14.5-1.1c2.1,0,3.7-1.9,3.7-4c0-2.1-1.9-3.7-4-3.7c-5.8,0.3-10.8,0.5-15.3,1.1
			c-2.1,0.3-3.4,2.1-3.2,4.2S333.4,37.5,335.3,37.5z M498.7,348c-4.2,0-7.4,3.4-7.4,7.4v37.5c0,4.2,3.4,7.4,7.4,7.4
			c4,0,7.4-3.4,7.4-7.4v-37.5C506.3,351.4,502.9,348,498.7,348z M498.7,423.1c-4.2,0-7.4,3.4-7.4,7.4v29.9c0,4.2,3.4,7.4,7.4,7.4
			c4,0,7.4-3.4,7.4-7.4v-29.9C506.3,426.5,502.9,423.1,498.7,423.1z"/>
	</g>
</g>
</svg>
