<?xml version="1.0" encoding="utf-8"?>
<!-- Generator: Adobe Illustrator 18.1.1, SVG Export Plug-In . SVG Version: 6.00 Build 0)  -->
<!DOCTYPE svg PUBLIC "-//W3C//DTD SVG 1.1//EN" "http://www.w3.org/Graphics/SVG/1.1/DTD/svg11.dtd">
<svg version="1.1" id="Layer_1" xmlns="http://www.w3.org/2000/svg" xmlns:xlink="http://www.w3.org/1999/xlink" x="0px" y="0px"
	 viewBox="0 0 50.7 39.2" style="enable-background:new 0 0 50.7 39.2;" xml:space="preserve">
<g>
	<path d="M48.1,18c-0.9-0.5-2-0.2-2.5,0.7c-0.1,0.2-8.7,15.4-23.8,15.4c-8.1,0-13.2-4.9-13.2-4.9c-0.7-0.7-1.9-0.7-2.6,0
		c-0.7,0.7-0.7,1.9,0,2.6c0.2,0.2,6.1,6,15.8,6c17.2,0,26.6-16.6,27-17.3C49.3,19.6,49,18.5,48.1,18z"/>
	<circle cx="7.3" cy="6.9" r="5.4"/>
	<path d="M30.3,10c0.1-0.1,2.5-2.3,7-1.7c4.8,0.6,6.5,3.1,6.5,3.2c0.3,0.5,0.9,0.8,1.5,0.8c0.3,0,0.7-0.1,1-0.3
		c0.8-0.5,1.1-1.7,0.5-2.5c-0.1-0.2-2.6-3.9-9.1-4.8c-6.4-0.9-9.9,2.5-10,2.7c-0.7,0.7-0.7,1.8,0,2.5C28.5,10.7,29.6,10.7,30.3,10z"
		/>
</g>
</svg>
