<?xml version="1.0" encoding="utf-8"?>
<!-- Generator: Adobe Illustrator 18.0.0, SVG Export Plug-In . SVG Version: 6.00 Build 0)  -->
<!DOCTYPE svg PUBLIC "-//W3C//DTD SVG 1.1//EN" "http://www.w3.org/Graphics/SVG/1.1/DTD/svg11.dtd">
<svg version="1.1" id="Layer_1" xmlns="http://www.w3.org/2000/svg" xmlns:xlink="http://www.w3.org/1999/xlink" x="0px" y="0px"
	 viewBox="0 0 48 27.7" enable-background="new 0 0 48 27.7" xml:space="preserve">
<g>
	<polygon points="44.2,1.7 24,21.8 3.8,1.7 1.7,3.8 24,26 46.2,3.8 	"/>
	<polygon points="-61.4,23.9 -59.3,26 -39.2,5.8 -19,26 -16.9,23.9 -39.2,1.7 	"/>
	<polygon points="-42.5,34.7 -22.4,54.8 -42.5,75 -40.4,77.1 -18.2,54.8 -40.4,32.6 	"/>
	<polygon points="-60.3,32.6 -82.5,54.8 -60.3,77.1 -58.2,75 -78.4,54.8 -58.2,34.7 	"/>
</g>
<path d="M-35.1,112.3c-1.4,0-2.7,0.6-3.6,1.5l-7-3.7c0.2-0.6,0.3-1.3,0.3-2c0-2-0.7-3.8-2-5.2l8.3-8.4c1,0.7,2.3,1.1,3.6,1.1
	c3.7,0,6.7-3,6.7-6.7c0-3.7-3-6.7-6.7-6.7c-3.7,0-6.7,3-6.7,6.7c0,1.2,0.3,2.4,0.9,3.4l-8.6,8.7c-1-0.5-2.1-0.8-3.3-0.8
	c-4.3,0-7.8,3.5-7.8,7.8c0,4.3,3.5,7.8,7.8,7.8c2.4,0,4.6-1.1,6-2.8l7.2,3.7c0,0.1,0,0.2,0,0.4c0,2.7,2.2,4.9,4.9,4.9
	s4.9-2.2,4.9-4.9C-30.1,114.6-32.3,112.3-35.1,112.3z"/>
<g>
	<path fill="#010101" d="M40.9,104.2l-9-24.9h-7L8.4,125.2h8.1l4.1-11.7h16.7L40.9,104.2z M23.1,106.5l1.4-4.1
		c1.1-3.2,2.4-7.2,3.9-12h0.1c1.5,4.8,2.8,8.8,3.9,12l1.4,4.1H23.1z"/>
	<path fill="#010101" d="M45.8,105.1H42l-9.2,23.7h4.5l2.3-6h8.7l2.3,6H55L45.8,105.1z M40.9,119.1l0.8-2.1c0.6-1.7,1.4-3.7,2.2-6.2
		H44c0.8,2.5,1.5,4.5,2.2,6.2l0.8,2.1H40.9z"/>
</g>
</svg>
