<?xml version="1.0" encoding="utf-8"?>
<!-- Generator: Adobe Illustrator 18.0.0, SVG Export Plug-In . SVG Version: 6.00 Build 0)  -->
<!DOCTYPE svg PUBLIC "-//W3C//DTD SVG 1.1//EN" "http://www.w3.org/Graphics/SVG/1.1/DTD/svg11.dtd">
<svg version="1.1" id="Layer_1" xmlns="http://www.w3.org/2000/svg" xmlns:xlink="http://www.w3.org/1999/xlink" x="0px" y="0px"
	 viewBox="0 0 48.8 49.5" enable-background="new 0 0 48.8 49.5" xml:space="preserve">
<g>
	<polygon points="36.8,-77.6 16.7,-57.5 -3.5,-77.6 -5.6,-75.6 16.7,-53.3 38.9,-75.6 	"/>
	<polygon points="-68.8,-55.4 -66.7,-53.3 -46.5,-73.5 -26.3,-53.3 -24.3,-55.4 -46.5,-77.6 	"/>
	<polygon points="-49.9,-44.7 -29.7,-24.5 -49.9,-4.3 -47.8,-2.2 -25.5,-24.5 -47.8,-46.7 	"/>
	<polygon points="-67.6,-46.7 -89.9,-24.5 -67.6,-2.2 -65.5,-4.3 -85.7,-24.5 -65.5,-44.7 	"/>
</g>
<path d="M-42.4,33c-1.4,0-2.7,0.6-3.6,1.5l-7-3.7c0.2-0.6,0.3-1.3,0.3-2c0-2-0.7-3.8-2-5.2l8.3-8.4c1,0.7,2.3,1.1,3.6,1.1
	c3.7,0,6.7-3,6.7-6.7c0-3.7-3-6.7-6.7-6.7c-3.7,0-6.7,3-6.7,6.7c0,1.2,0.3,2.4,0.9,3.4l-8.6,8.7c-1-0.5-2.1-0.8-3.3-0.8
	c-4.3,0-7.8,3.5-7.8,7.8c0,4.3,3.5,7.8,7.8,7.8c2.4,0,4.6-1.1,6-2.8l7.2,3.7c0,0.1,0,0.2,0,0.4c0,2.7,2.2,4.9,4.9,4.9
	s4.9-2.2,4.9-4.9C-37.5,35.2-39.7,33-42.4,33z"/>
<g>
	<path fill="#010101" d="M33.6,24.9L24.6,0h-7L1.1,45.9h8.1l4.1-11.7H30L33.6,24.9z M15.7,27.2l1.4-4.1c1.1-3.2,2.4-7.2,3.9-12h0.1
		c1.5,4.8,2.8,8.8,3.9,12l1.4,4.1H15.7z"/>
	<path fill="#010101" d="M38.5,25.8h-3.9l-9.2,23.7H30l2.3-6H41l2.3,6h4.5L38.5,25.8z M33.6,39.8l0.8-2.1c0.6-1.7,1.4-3.7,2.2-6.2
		h0.1c0.8,2.5,1.5,4.5,2.2,6.2l0.8,2.1H33.6z"/>
</g>
</svg>
