<?xml version="1.0" encoding="utf-8"?>
<!-- Generator: Adobe Illustrator 18.0.0, SVG Export Plug-In . SVG Version: 6.00 Build 0)  -->
<!DOCTYPE svg PUBLIC "-//W3C//DTD SVG 1.1//EN" "http://www.w3.org/Graphics/SVG/1.1/DTD/svg11.dtd">
<svg version="1.1" id="Layer_1" xmlns="http://www.w3.org/2000/svg" xmlns:xlink="http://www.w3.org/1999/xlink" x="0px" y="0px"
	 viewBox="0 0 21.6 36.6" enable-background="new 0 0 21.6 36.6" xml:space="preserve">
<g>
	<polygon points="-37.6,-6.2 -57.8,14 -77.9,-6.2 -80,-4.1 -57.8,18.2 -35.5,-4.1 	"/>
	<polygon points="-143.2,16.1 -141.1,18.2 -120.9,-2 -100.8,18.2 -98.7,16.1 -120.9,-6.2 	"/>
	<polygon points="-124.3,26.8 -104.1,47 -124.3,67.1 -122.2,69.2 -99.9,47 -122.2,24.7 	"/>
	<polygon points="-142,24.7 -164.3,47 -142,69.2 -140,67.1 -160.1,47 -140,26.8 	"/>
</g>
<path d="M-116.8,104.5c-1.4,0-2.7,0.6-3.6,1.5l-7-3.7c0.2-0.6,0.3-1.3,0.3-2c0-2-0.7-3.8-2-5.2l8.3-8.4c1,0.7,2.3,1.1,3.6,1.1
	c3.7,0,6.7-3,6.7-6.7c0-3.7-3-6.7-6.7-6.7c-3.7,0-6.7,3-6.7,6.7c0,1.2,0.3,2.4,0.9,3.4l-8.6,8.7c-1-0.5-2.1-0.8-3.3-0.8
	c-4.3,0-7.8,3.5-7.8,7.8c0,4.3,3.5,7.8,7.8,7.8c2.4,0,4.6-1.1,6-2.8l7.2,3.7c0,0.1,0,0.2,0,0.4c0,2.7,2.2,4.9,4.9,4.9
	s4.9-2.2,4.9-4.9C-111.9,106.7-114.1,104.5-116.8,104.5z"/>
<g>
	<path fill="#010101" d="M-40.9,96.3l-9-24.9h-7l-16.6,45.9h8.1l4.1-11.7h16.7L-40.9,96.3z M-58.7,98.6l1.4-4.1
		c1.1-3.2,2.4-7.2,3.9-12h0.1c1.5,4.8,2.8,8.8,3.9,12l1.4,4.1H-58.7z"/>
	<path fill="#010101" d="M-35.9,97.2h-3.9L-49,121h4.5l2.3-6h8.7l2.3,6h4.5L-35.9,97.2z M-40.8,111.3l0.8-2.1
		c0.6-1.7,1.4-3.7,2.2-6.2h0.1c0.8,2.5,1.5,4.5,2.2,6.2l0.8,2.1H-40.8z"/>
</g>
<path d="M-32.9,39.8v11h8v-11H-32.9z M-25.9,48.7h-6v-1h6V48.7z M-25.9,46.7h-6v-1h6V46.7z M-25.9,44.7h-6v-1h6V44.7z M-25.9,42.8
	h-6v-1h6V42.8z"/>
<g>
	<polygon points="0.4,35.5 1.1,36.2 21.1,18.7 1.1,1 0.4,1.7 19.6,18.7 	"/>
	<polygon points="52.4,35.5 33.2,18.7 52.4,1.7 51.7,1 31.7,18.7 51.7,36.2 	"/>
	<polygon points="49.6,46.5 31.9,66.5 32.7,67.2 49.6,48 66.4,67.2 67.2,66.5 	"/>
	<polygon points="7.3,65.9 -9.7,46.7 -10.4,47.4 7.3,67.4 24.8,47.4 24.1,46.7 	"/>
</g>
</svg>
