<?xml version="1.0" encoding="utf-8"?>
<!-- Generator: Adobe Illustrator 18.0.0, SVG Export Plug-In . SVG Version: 6.00 Build 0)  -->
<!DOCTYPE svg PUBLIC "-//W3C//DTD SVG 1.1//EN" "http://www.w3.org/Graphics/SVG/1.1/DTD/svg11.dtd">
<svg version="1.1" id="Layer_1" xmlns="http://www.w3.org/2000/svg" xmlns:xlink="http://www.w3.org/1999/xlink" x="0px" y="0px"
	 viewBox="0 0 25 24.3" enable-background="new 0 0 25 24.3" xml:space="preserve">
<path d="M21.1,21.5c0,0-3.9,1.1-7.9,2.2c-0.5,0-1,0-1.5,0c-4-1.1-7.9-2.2-7.9-2.2C2.4,21,1,20.2,1,18.6V3.5c0-1.6,1.3-2.9,2.9-2.9
	c0,0,4.3,1.2,7.9,2.2c0.5,0,1,0,1.4,0c3.8-1,7.9-2.2,7.9-2.2c1.6,0,2.9,1.3,2.9,2.9v15.1C24,20.2,22.6,21.1,21.1,21.5z M3.9,2.1
	c-0.8,0-1.4,0.6-1.4,1.4v15.1c0,0.8,0.6,1.2,1.4,1.4c0,0,4,1.1,7.9,2.2v-18L3.9,2.1z M22.6,3.5c0-0.8-0.6-1.4-1.4-1.4l-7.9,2.2v18
	c4-1.1,7.9-2.1,7.9-2.1c0.8-0.2,1.4-0.6,1.4-1.4V3.5z"/>
</svg>
