<?xml version="1.0" encoding="utf-8"?>
<!-- Generator: Adobe Illustrator 18.0.0, SVG Export Plug-In . SVG Version: 6.00 Build 0)  -->
<!DOCTYPE svg PUBLIC "-//W3C//DTD SVG 1.1//EN" "http://www.w3.org/Graphics/SVG/1.1/DTD/svg11.dtd">
<svg version="1.1" id="Layer_1" xmlns="http://www.w3.org/2000/svg" xmlns:xlink="http://www.w3.org/1999/xlink" x="0px" y="0px"
	 viewBox="0 0 29.3 29.5" enable-background="new 0 0 29.3 29.5" xml:space="preserve">
<path d="M17,14.8L28.3,3.5c0.6-0.6,0.6-1.5,0-2.1s-1.5-0.6-2.1,0L14.8,12.7L3.5,1.4C2.9,0.8,2,0.8,1.4,1.4s-0.6,1.5,0,2.1l11.3,11.3
	L1.4,26.1c-0.6,0.6-0.6,1.5,0,2.1c0.3,0.3,0.7,0.4,1.1,0.4s0.8-0.1,1.1-0.4L14.8,17l11.3,11.3c0.3,0.3,0.7,0.4,1.1,0.4
	s0.8-0.1,1.1-0.4c0.6-0.6,0.6-1.5,0-2.1L17,14.8z"/>
</svg>
