<?xml version="1.0" encoding="utf-8"?>
<!-- Generator: Adobe Illustrator 18.0.0, SVG Export Plug-In . SVG Version: 6.00 Build 0)  -->
<!DOCTYPE svg PUBLIC "-//W3C//DTD SVG 1.1//EN" "http://www.w3.org/Graphics/SVG/1.1/DTD/svg11.dtd">
<svg version="1.1" id="Layer_2" xmlns="http://www.w3.org/2000/svg" xmlns:xlink="http://www.w3.org/1999/xlink" x="0px" y="0px"
	 viewBox="0 0 22.8 33.8" enable-background="new 0 0 22.8 33.8" xml:space="preserve">
<g>
	<path fill="#AF2222" d="M11.3,1.3c-5.5,0-9.9,4.5-9.9,10.1c0,0.8,0.7,1.5,1.5,1.5s1.5-0.7,1.5-1.5c0-3.9,3.1-7.1,6.9-7.1
		c3.9,0,7,3.1,7,7c0,4-3.7,5.8-7,7l-1.3,0.5v6.1c0,0.8,0.7,1.5,1.5,1.5s1.5-0.7,1.5-1.5v-3.9c2.7-1,8.3-3.5,8.3-9.6
		C21.3,5.8,16.8,1.3,11.3,1.3z"/>
	<circle fill="#AF2222" cx="11.7" cy="31.1" r="1.7"/>
</g>
</svg>
