<?xml version="1.0" encoding="utf-8"?>
<!-- Generator: Adobe Illustrator 18.0.0, SVG Export Plug-In . SVG Version: 6.00 Build 0)  -->
<!DOCTYPE svg PUBLIC "-//W3C//DTD SVG 1.1//EN" "http://www.w3.org/Graphics/SVG/1.1/DTD/svg11.dtd">
<svg version="1.1" id="Layer_1" xmlns="http://www.w3.org/2000/svg" xmlns:xlink="http://www.w3.org/1999/xlink" x="0px" y="0px"
	 viewBox="0 0 41.8 40.3" enable-background="new 0 0 41.8 40.3" xml:space="preserve">
<g>
	<path d="M38.8,6.3h-35c-0.8,0-1.5-0.7-1.5-1.5s0.7-1.5,1.5-1.5h35c0.8,0,1.5,0.7,1.5,1.5S39.6,6.3,38.8,6.3z"/>
</g>
<g>
	<path d="M38.8,22.3h-35c-0.8,0-1.5-0.7-1.5-1.5s0.7-1.5,1.5-1.5h35c0.8,0,1.5,0.7,1.5,1.5S39.6,22.3,38.8,22.3z"/>
</g>
<g>
	<path d="M38.8,38.3h-35c-0.8,0-1.5-0.7-1.5-1.5s0.7-1.5,1.5-1.5h35c0.8,0,1.5,0.7,1.5,1.5S39.6,38.3,38.8,38.3z"/>
</g>
</svg>
