<?xml version="1.0" encoding="utf-8"?>
<!-- Generator: Adobe Illustrator 18.0.0, SVG Export Plug-In . SVG Version: 6.00 Build 0)  -->
<!DOCTYPE svg PUBLIC "-//W3C//DTD SVG 1.1//EN" "http://www.w3.org/Graphics/SVG/1.1/DTD/svg11.dtd">
<svg version="1.1" id="Layer_1" xmlns:sketch="http://www.bohemiancoding.com/sketch/ns"
	 xmlns="http://www.w3.org/2000/svg" xmlns:xlink="http://www.w3.org/1999/xlink" x="0px" y="0px" viewBox="7.3 1 45.2 57.2"
	 enable-background="new 7.3 1 45.2 57.2" xml:space="preserve">
<title></title>
<g id="black">
	<g id="podcast">
		<path id="Podcast_1_" fill="#0C7B8F" d="M30,29.4c3,0,5.4-2.4,5.4-5.4c0-3-2.4-5.4-5.4-5.4S24.6,21,24.6,24
			C24.6,27,27,29.4,30,29.4L30,29.4z M30,10.4c-7.5,0-13.6,6.1-13.6,13.6c0,3.7,1.4,7,3.8,9.4c0.7-1.1,1.6-2.1,2.9-2.9
			c-1.6-1.7-2.6-4-2.6-6.5c0-5.3,4.3-9.5,9.5-9.5c5.3,0,9.5,4.3,9.5,9.5c0,2.5-1,4.8-2.6,6.5c1.3,0.8,2.2,1.8,2.9,2.9
			c2.3-2.4,3.8-5.8,3.8-9.4C43.6,16.5,37.5,10.4,30,10.4L30,10.4z M30,2.2C18,2.2,8.3,12,8.3,24c0,7.8,4.1,14.7,10.3,18.5
			c-0.1-0.9-0.2-2-0.2-3c0,0,0-0.8,0.2-2c-3.9-3.2-6.3-8.1-6.3-13.6c0-9.8,7.9-17.7,17.7-17.7S47.7,14.2,47.7,24
			c0,5.5-2.5,10.3-6.3,13.6c0.2,1.2,0.2,2,0.2,2c0,1.1-0.1,2.1-0.2,3c6.2-3.8,10.4-10.7,10.4-18.6C51.7,12,42,2.2,30,2.2L30,2.2z
			 M30,32.1c-4.1,0-7.5,3.4-7.5,7.5c0,4.1,3.3,17.7,7.5,17.7s7.5-13.5,7.5-17.7S34.1,32.1,30,32.1L30,32.1z"/>
	</g>
</g>
</svg>
