<?xml version="1.0" encoding="utf-8"?>
<!-- Generator: Adobe Illustrator 15.1.0, SVG Export Plug-In . SVG Version: 6.00 Build 0)  -->
<!DOCTYPE svg PUBLIC "-//W3C//DTD SVG 1.1//EN" "http://www.w3.org/Graphics/SVG/1.1/DTD/svg11.dtd">
<svg version="1.1" id="Layer_1" xmlns="http://www.w3.org/2000/svg" xmlns:xlink="http://www.w3.org/1999/xlink" x="0px" y="0px"
	 width="22.6px" height="31.733px" viewBox="0 0 22.6 31.733" enable-background="new 0 0 22.6 31.733" xml:space="preserve">
<g>
	<circle fill="none" cx="11.364" cy="10.785" r="5.335"/>
	<path d="M17.48,19.652c3.648-2.517,5.511-7.132,4.298-11.658C20.237,2.242,14.325-1.171,8.573,0.37
		C2.821,1.911-0.592,7.824,0.949,13.575c1.181,4.405,4.926,7.429,9.198,7.916l1.994,7.44c0.541,2.016,2.613,3.212,4.629,2.672
		s3.212-2.612,2.672-4.628L17.48,19.652z M6.21,12.166C5.447,9.319,7.136,6.394,9.983,5.631c2.846-0.763,5.771,0.926,6.534,3.772
		s-0.926,5.772-3.772,6.535C9.898,16.701,6.973,15.012,6.21,12.166z"/>
</g>
</svg>
